<?xml version="1.0" encoding="utf-8"?>
<!-- Generator: Adobe Illustrator 27.5.0, SVG Export Plug-In . SVG Version: 6.00 Build 0)  -->
<svg version="1.1" id="Layer_1" xmlns="http://www.w3.org/2000/svg" xmlns:xlink="http://www.w3.org/1999/xlink" x="0px" y="0px"
	 viewBox="0 0 255.258 255.411" style="enable-background:new 0 0 255.258 255.411;" xml:space="preserve">
<g>
	<radialGradient id="SVGID_1_" cx="127.6289" cy="127.7803" r="123.7999" gradientUnits="userSpaceOnUse">
		<stop  offset="0" style="stop-color:#4F9AC4"/>
		<stop  offset="0.0372" style="stop-color:#4897C3"/>
		<stop  offset="0.2711" style="stop-color:#2183BE"/>
		<stop  offset="0.4578" style="stop-color:#0977BA"/>
		<stop  offset="0.5726" style="stop-color:#0073B9"/>
		<stop  offset="0.654" style="stop-color:#0071B6"/>
		<stop  offset="0.7175" style="stop-color:#006BAC"/>
		<stop  offset="0.7751" style="stop-color:#00619B"/>
		<stop  offset="0.829" style="stop-color:#005284"/>
		<stop  offset="0.8805" style="stop-color:#003F66"/>
		<stop  offset="0.9302" style="stop-color:#002841"/>
		<stop  offset="0.9774" style="stop-color:#000D16"/>
		<stop  offset="0.9984" style="stop-color:#000000"/>
	</radialGradient>
	<circle style="fill:url(#SVGID_1_);" cx="127.629" cy="127.78" r="123.8"/>
	
		<radialGradient id="SVGID_00000160884025452698924630000018415556642423284105_" cx="127.6289" cy="127.7803" r="123.8003" gradientUnits="userSpaceOnUse">
		<stop  offset="0" style="stop-color:#4F9AC4"/>
		<stop  offset="0.0272" style="stop-color:#4D96C1"/>
		<stop  offset="0.3286" style="stop-color:#366F9E"/>
		<stop  offset="0.569" style="stop-color:#285788"/>
		<stop  offset="0.717" style="stop-color:#234E80"/>
		<stop  offset="0.7567" style="stop-color:#214A79"/>
		<stop  offset="0.813" style="stop-color:#1C3F67"/>
		<stop  offset="0.8792" style="stop-color:#142C48"/>
		<stop  offset="0.9522" style="stop-color:#08131E"/>
		<stop  offset="0.9984" style="stop-color:#000000"/>
	</radialGradient>
	<path style="opacity:0.55;fill:url(#SVGID_00000160884025452698924630000018415556642423284105_);" d="M249.344,144.156
		c-0.585-1.219-1.407-2.156-2.605-2.795c-1.444-0.771-3.035-1.268-4.6-1.729c-1.569-0.461-3.155-0.855-4.735-1.275
		c-1.549-0.412-2.985-0.902-4.604-1.003c-1.51-0.094-3.196,0.036-4.611-0.596c-1.158-0.517-1.889-1.726-2.27-2.894
		c-0.402-1.23-0.548-2.337-1.57-3.256c-1.108-0.996-2.606-1.563-3.974-2.096c-1.342-0.523-2.789-1.089-4.234-1.231
		c-0.798-0.078-1.589-0.081-2.355,0.186c-0.616,0.215-1.176,0.561-1.774,0.817c-1.294,0.555-2.67,0.612-3.963,0.027
		c-1.506-0.681-2.842-1.879-4.07-2.966c-0.994-0.88-1.681-2.125-2.375-3.237c-0.355-0.569-0.7-1.152-1.1-1.691
		c-0.463-0.624-1.025-0.894-1.819-0.882c-1.7,0.027-3.194,1.231-4.755,1.773c-1.778,0.617-3.844,0.489-5.689,0.336
		c-1.015-0.084-2.034-0.275-3.05-0.323c-0.899-0.042-1.824,0.06-2.718,0.148c-2.096,0.207-4.173,0.578-6.251,0.913
		c-1.918,0.308-3.845,0.602-5.786,0.709c-1.575,0.087-3.075,0.069-4.549-0.555c-0.93-0.394-1.593-0.877-2.644-0.596
		c-1.505,0.402-2.856,1.277-4.08,2.212c-1.306,0.997-2.544,2.079-3.792,3.147c-1.097,0.939-2.073,1.977-3.099,2.991
		c-0.381,0.377-0.749,0.723-1.284,0.844c-0.829,0.188-1.691,0.232-2.525,0.42c-0.714,0.16-1.271,0.263-1.989,0.102
		c-0.915-0.206-1.853-0.289-2.37,0.64c-0.532,0.955-0.472,2.998-1.59,3.552c-0.524,0.26-1.451,0.104-2.003,0.088
		c-1.24-0.036-2.479-0.121-3.714-0.228c-0.959-0.083-1.934-0.152-2.881-0.333c-0.582-0.111-0.703-0.414-0.965-0.942
		c-0.998-2.011-1.784-4.15-2.564-6.253c-0.316-0.854-0.575-1.684-0.485-2.609c0.045-0.46,0.167-0.914,0.156-1.378
		c-0.017-0.685-0.347-1.291-0.738-1.834c-1.147-1.591-2.892-3.008-4.952-2.417c-1.623,0.466-3.018,1.648-4.418,2.546
		c-0.081,0.052-0.195,0.001-0.219-0.089c-0.182-0.676-0.055-1.371,0.183-2.018c0.683-1.853,2.11-3.46,3.504-4.817
		c1.26-1.225,2.747-2.551,4.432-3.146c2.328-0.822,4.614,0.136,6.843,0.803c2.61,0.781,5.234,0.729,7.351-1.165
		c1.331-1.191,3.277-0.65,4.492,0.464c0.748,0.687,1.348,1.523,2.122,2.183c0.875,0.747,2.341,1.388,3.446,0.77
		c0.987-0.551,1.615-1.842,2.744-2.158c0.687-0.192,1.557-0.048,2.25,0.04c0.824,0.104,1.64,0.273,2.466,0.356
		c1.724,0.174,3.187-0.202,4.599-1.196c1.009-0.71,2.031-1.524,3.258-1.813c1.132-0.267,2.586-0.004,3.618-0.575
		c0.576-0.318,1.072-0.93,1.534-1.387c1.469-1.45,2.884-2.963,4.226-4.532c0.936-1.093,2.574-2.557,2.251-4.14
		c-0.477-2.335-2.996-4.576-5.276-5.082c-2.471-0.548-3.724,2.273-6.039,2.308c-0.95,0.014-1.642-0.363-2.282-1.042
		c-0.861-0.913-1.441-1.711-2.799-1.789c-2.681-0.154-5.096,1.636-7.706,1.995c-2.153,0.296-3.9-0.569-5.115-2.328
		c-0.633-0.916-1.121-1.922-1.753-2.838c-0.359-0.519-0.761-1.012-1.242-1.424c-0.134-0.115-0.56-0.568-0.744-0.536
		c-0.179,0.032-0.388,0.53-0.473,0.677c-0.472,0.818-0.846,1.678-1.261,2.525c-0.253,0.516-0.542,1.013-1.006,1.368
		c-0.557,0.426-1.269,0.61-1.945,0.746c-1.273,0.256-2.584,0.357-3.881,0.379c-2.222,0.038-4.8-0.243-6.16-2.219
		c-0.036-0.027-0.061-0.07-0.066-0.121c-0.001-0.006-0.001-0.013-0.002-0.019c-0.006-0.063,0.025-0.105,0.07-0.126
		c-0.069-0.036,0.04-0.287,0.067-0.426c0.053-0.273,0.099-0.548,0.139-0.823c0.075-0.52,0.161-1.048,0.026-1.553
		c-0.442-1.659-2.367-2.44-2.708-4.121c-0.383-1.892-0.272-3.852-0.718-5.745c-0.181-0.766-0.372-1.543-0.693-2.264
		c-0.135-0.304-0.325-0.59-0.444-0.901c-0.225-0.584,0.042-1.1,0.313-1.626c0.805-1.562,1.733-3.02,2.872-4.359
		c0.627-0.737,1.308-1.455,1.843-2.265c0.499-0.757,0.824-1.649,1.182-2.481c0.768-1.788,1.522-3.561,2.447-5.274
		c0.714-1.323,1.734-2.587,1.809-4.149c0.018-0.37,0.081-1.287-0.187-1.583c-0.151-0.166-0.445-0.067-0.696-0.072
		c-0.933-0.019-1.824-0.278-2.757-0.089c-0.063,0.013-0.137-0.007-0.168-0.069c-0.465-0.907-1.019-1.765-1.485-2.672
		c-0.032-0.062-0.023-0.129,0.023-0.181c1.173-1.3,2.84-2.076,4.279-3.034c1.567-1.044,3.242-2.447,2.808-4.54
		c-0.016-0.075,0.022-0.166,0.104-0.183c1.646-0.359,3.404-0.53,4.886-1.394c0.799-0.466,1.599-1.128,2.2-1.835
		c0.612-0.719,1.013-1.594,1.488-2.403c0.484-0.824,1.018-1.278,1.868-1.734c0.831-0.446,1.735-0.742,2.556-1.208
		c0.267-0.152,0.568-0.321,0.793-0.533c0.287-0.27,0.247-0.178,0.029-0.445c-0.306-0.372-0.68-0.687-0.977-1.074
		c-0.529-0.69-0.961-1.445-1.353-2.218c-0.05-0.099,0.011-0.225,0.129-0.224c2.113,0.003,4.229,0.087,6.342-0.018
		c1.129-0.056,2.255-0.17,3.367-0.373c0.504-0.092,1.068-0.159,1.551-0.339c0.51-0.189,0.458-0.324,0.287-0.794
		c-0.866-2.392-3.608-4.045-5.667-5.289c-2.245-1.356-4.635-2.634-7.059-3.634c-1.509-0.623-3.05-1.167-4.583-1.728
		c-1.078-0.395-1.925-0.425-3.055-0.311c-0.524,0.053-1.361,0.216-1.757-0.253c-0.463-0.548-0.031-1.502,0.256-2.119
		c-1.578-0.125-2.921-1.021-4.036-2.107c-0.079-0.077-0.043-0.223,0.066-0.249c4.078-0.977,8.189-1.872,12.127-3.337
		c2.316-0.862,4.627-1.94,6.66-3.378c-8.972-2.068-18.316-3.16-27.915-3.16c-42.465,0-79.934,21.381-102.234,53.964
		c0.636,0.595,1.597,1.513,1.296,2.453c-0.236,0.737-1.123,1.141-1.666,1.613c-1.152,1-1.254,2.636-1.329,4.072
		c-0.085,1.658-0.025,3.32-0.404,4.948c-0.224,0.961-0.558,1.878-0.73,2.855c-0.133,0.753-0.212,1.513-0.316,2.27
		c-0.179,1.301-0.395,2.579-0.714,3.854c-0.376,1.502-0.794,2.934-0.63,4.499c0.186,1.765,0.774,3.476,1.426,5.116
		c0.632,1.591,1.365,3.138,2.043,4.708c0.153,0.355,0.296,0.714,0.449,1.068c0.155,0.359,0.028,0.282,0.334,0.264
		c0.777-0.045,1.537-0.76,1.989-1.315c0.048-0.059,0.162-0.057,0.211,0c1.314,1.514,2.022,3.284,2.506,5.207
		c0.203,0.807,0.367,1.63,0.639,2.418c0.139,0.405,0.249,0.877,0.633,1.075c0.25,0.129,0.611,0.134,0.883,0.195
		c1.205,0.268,2.016,0.608,2.061,1.929c0.022,0.663-0.012,1.133,0.364,1.73c0.203,0.323,0.425,0.635,0.641,0.949
		c0.457,0.664,0.933,1.312,1.436,1.942c1.057,1.325,2.215,2.496,3.045,3.987c0.755,1.355,1.333,2.803,2.12,4.141
		c0.838,1.426,2.131,3.074,3.892,3.284c1.511,0.18,3.164-0.558,4.488,0.449c1.189,0.905,1.58,2.581,2.937,3.273
		c0.708,0.361,0.53-0.177,0.569-0.728c0.033-0.465,0.083-0.93,0.141-1.393c0.107-0.859,0.247-1.713,0.413-2.563
		c0.019-0.097,0.141-0.133,0.219-0.089c1.178,0.652,2.35,1.453,2.785,2.791c0.41,1.26,0.128,3.036,1.068,4.072
		c0.5,0.551,1.278,0.814,1.826,1.319c0.619,0.57,0.715,1.105,0.716,1.929c0.001,1.221-0.296,2.499,0.373,3.602
		c0.561,0.925,1.449,1.708,2.56,1.807c0.716,0.064,1.427-0.134,2.11-0.324c0.597-0.167,1.268-0.259,1.815-0.545
		c0.71-0.371,1.335-0.94,2.101-1.206c0.417-0.145,0.795-0.093,1.238-0.063c1.204,0.084,2.51,0.14,3.674,0.487
		c1.178,0.352,2.26,1.058,3.334,1.634c1.205,0.646,2.483,1.474,3.855,0.858c1.014-0.455,1.544-1.429,2.039-2.367
		c0.373-0.707,0.748-1.489,1.424-1.959c0.794-0.552,1.759-0.478,2.654-0.245c0.933,0.243,2.098,0.543,2.442,1.565
		c0.144,0.428,0.124,0.896,0.213,1.336c0.16,0.786,0.615,1.351,1.145,1.932c0.593,0.651,1.318,1.336,2.265,1.186
		c0.562-0.089,1.05-0.435,1.547-0.69c1.008-0.516,1.911-0.572,3.013-0.353c2.899,0.577,5.558,2.062,8.327,3.044
		c2.782,0.986,6.042,1.685,8.454-0.491c0.054-0.049,0.159-0.066,0.211,0c0.719,0.912,1.376,1.866,2.047,2.813
		c0.447,0.631,1.336,1.34,1.319,2.155c-0.015,0.758-0.454,1.268,0.302,1.991c0.321,0.307,0.774,0.413,1.191,0.523
		c0.729,0.194,1.495,0.343,2.131,0.775c2.254,1.529,2.632,6.952,6.412,5.224c1.259-0.576,2.257-1.252,3.701-0.968
		c1.733,0.341,3.027,1.595,4.833,1.755c0.592,0.053,1.229,0.126,1.807-0.05c0.402-0.122,0.783-0.325,1.182-0.459
		c0.69-0.231,1.428-0.307,1.984-0.822c0.186-0.172,0.316-0.432,0.533-0.567c0.694-0.429,1.936,0.339,2.513,0.668
		c1.502,0.857,2.653,2.34,3.319,3.913c0.029,0.068,0.026,0.167-0.053,0.204c-0.713,0.331-1.502,0.808-1.567,1.674
		c-0.057,0.757,0.522,1.446,1.003,1.951c0.063,0.066,0.057,0.188-0.03,0.234c-0.471,0.246-0.928,0.541-1.425,0.733
		c-0.635,0.246-0.511,0.143-0.37,0.854c0.221,1.113,0.207,2.232,0.067,3.354c-0.287,2.303-0.835,4.533-0.71,6.867
		c0.107,2.004,0.543,4.106,0.213,6.107c-0.301,1.823-1.738,2.699-2.95,3.912c-0.528,0.528-1.025,1.174-1.013,1.949
		c0.009,0.572,0.162,1.168,0.284,1.723c0.305,1.394,0.692,2.776,1.143,4.129c0.092,0.276,0.323,1.389,0.585,1.511
		c-0.002-0.001,0.157-0.169,0.341-0.293c0.236-0.158,0.485-0.293,0.749-0.398c1.017-0.404,2.102-0.26,3.078,0.192
		c2.609,1.209,4.481,3.873,6.178,6.087c0.831,1.084,1.631,2.21,2.568,3.208c1.27,1.354,2.565,2.654,3.644,4.173
		c1.1,1.55,2.034,3.306,2.298,5.212c0.14,1.016-0.103,1.88-0.175,2.865c-0.036,0.495-0.106,0.382,0.373,0.609
		c0.183,0.087,0.477,0.131,0.663,0.174c0.639,0.147,1.291,0.231,1.945,0.275c2.391,0.163,4.783-0.249,7.172-0.057
		c1.872,0.151,3.514,0.822,5.179,1.648c0.76,0.377,1.527,0.794,1.865,1.616c0.463,1.125,0.328,2.503,0.435,3.688
		c0.118,1.298,0.705,2.695,0.539,4.004c-0.148,1.167-1.146,1.792-2.136,2.244c1.227,0.707,2.126,1.729,1.543,3.227
		c-0.641,1.648-2.107,2.878-3.005,4.378c-1.089,1.819-1.256,4.309-1.456,6.373c-0.034,0.348-0.064,0.699-0.092,1.051
		c39.118-16.492,67.984-52.509,74.399-95.843C249.879,145.412,249.64,144.773,249.344,144.156z M115.974,100.012
		c-0.421,0.174-0.842,0.355-1.244,0.57c-0.27,0.144-0.511,0.278-0.673,0.541c-0.293,0.476-0.354,1.017-0.255,1.56
		c0.089,0.489,0.273,0.954,0.379,1.44c0.097,0.448,0.113,0.917-0.118,1.329c-0.324,0.577-0.981,0.889-1.57,1.121
		c-0.093,0.037-0.188-0.056-0.189-0.144c-0.004-0.411-0.108-0.813-0.38-1.13c-0.24-0.28-0.558-0.473-0.884-0.636
		c-0.695-0.346-1.45-0.571-2.104-0.997c-0.866,1.354-1.658,2.798-2.75,3.986c-1.004,1.092-2.285,1.839-3.637,2.419
		c-0.711,0.305-1.422,0.612-2.098,0.99c-0.443,0.247-0.877,0.524-1.243,0.879c-0.594,0.576-0.86,1.323-1.075,2.103
		c-0.346,1.254-0.688,2.496-1.17,3.707c-0.023,0.058-0.074,0.115-0.144,0.109c-1.505-0.113-3.023,0.017-4.531-0.008
		c-1.359-0.023-2.811-0.087-4.08-0.62c-0.48-0.201-0.983-0.492-1.29-0.926c-0.237-0.336-0.342-0.759-0.417-1.158
		c-0.166-0.887-0.138-1.852-0.477-2.699c-0.126-0.315-0.336-0.604-0.679-0.692c-0.505-0.13-1.072,0.125-1.514,0.343
		c-0.072,0.036-0.161,0.02-0.204-0.053c-0.629-1.07-0.551-2.394-0.392-3.579c0.154-1.149,0.441-2.281,0.542-3.437
		c0.04-0.457,0.073-0.938-0.157-1.353c-0.156-0.282-0.393-0.512-0.505-0.819c-0.151-0.413-0.044-0.916,0.137-1.301
		c0.18-0.383,0.536-0.668,0.872-0.908c0.821-0.587,1.783-0.965,2.59-1.572c-0.257-0.34-0.516-0.678-0.757-1.03
		c-0.273-0.399-0.561-0.867-0.394-1.366c0.081-0.242,0.228-0.457,0.376-0.662c0.245-0.34,0.505-0.668,0.753-1.006
		c0.562-0.763,1.093-1.528,1.764-2.204c0.638-0.643,1.373-1.234,2.228-1.561c0.727-0.278,1.504-0.302,2.212,0.041
		c0.6,0.291,1.077,0.774,1.66,1.092c0.303,0.165,0.635,0.276,0.981,0.295c0.223,0.013,0.429-0.022,0.648-0.048
		c0.15-0.018,0.298-0.021,0.447-0.053c0.812-0.175,1.566-0.605,2.298-0.982c0.372-0.192,0.744-0.387,1.127-0.555
		c0.394-0.173,0.804-0.304,1.202-0.468c0.966-0.398,1.888-0.893,2.79-1.418c0.858-0.499,1.701-1.026,2.567-1.512
		c0.222-0.124,0.445-0.246,0.671-0.364c0.166-0.087,0.335-0.203,0.526-0.219c0.328-0.027,0.64,0.161,0.914,0.317
		c0.257,0.146,0.637,0.426,0.948,0.293c0.304-0.129,0.502-0.486,0.671-0.751c0.162-0.254,0.318-0.565,0.563-0.75
		c0.13-0.098,0.273-0.076,0.43-0.075c0.163,0.002,0.326,0.007,0.489,0.019c0.841,0.06,1.673,0.291,2.328,0.844
		c0.436,0.368,0.743,0.816,0.94,1.351c0.373,1.014,0.337,2.118,0.647,3.146c0.124,0.41,0.326,0.818,0.705,1.045
		c0.505,0.303,1.154,0.238,1.706,0.13c0.094-0.018,0.189,0.041,0.189,0.144v2.561c0.753,0.229,1.578,0.093,2.345,0.254
		c0.402,0.084,0.786,0.267,1.056,0.584c0.367,0.432,0.497,0.999,0.557,1.549c0.007,0.064-0.052,0.127-0.11,0.144
		c-0.97,0.278-1.929,0.597-2.884,0.921C118.186,99.165,117.068,99.561,115.974,100.012z"/>
	<g>
		<g>
			<path style="fill:#ADB94F;" d="M147.621,102.858c-2.167-0.916-4.492-1.467-6.79-1.925c-2.982-0.593-6.039-0.974-9.077-1.042
				c-2.673-0.058-5.418,0.073-8.008,0.789c-0.023,0-0.052,0.006-0.079,0.019c-0.004,0.004-0.008,0.005-0.008,0.005
				c-0.133,0.037-0.263,0.068-0.39,0.109c-1.654,0.51-3.302,1.364-4.347,2.757c-0.713,0.547-1.382,1.132-1.978,1.768
				c-0.15,0.157,0.041,0.419,0.231,0.383c1.38-0.263,2.772-0.144,4.168-0.173c0.052,0.476,0.066,0.915,0.32,1.352
				c0.079,0.139,0.236,0.194,0.371,0.092c1.928-1.455,4.045-0.733,6.088,0.028c0.72,0.264,1.254,0.448,2.01,0.349
				c0.951-0.124,1.857,0.217,2.679,0.66c1.297,0.697,2.513,1.718,4.079,1.643c1.936-0.09,3.451-1.575,5.367-1.851
				c0.148-0.021,0.219-0.151,0.182-0.291c-0.415-1.498,1-2.081,2.145-2.567c1.114-0.474,2.227-0.928,3.106-1.787
				C147.782,103.086,147.734,102.906,147.621,102.858z M119.686,103.012c0.664-0.605,1.448-1.067,2.287-1.425
				C121.192,102.022,120.424,102.497,119.686,103.012z"/>
			<path style="fill:#758640;" d="M136.729,109.824c-1.188,0-2.179-0.596-3.138-1.172c-0.278-0.167-0.565-0.34-0.85-0.493
				c-0.63-0.339-1.582-0.775-2.589-0.643c-0.817,0.106-1.403-0.108-2.081-0.357c-2.281-0.849-4.167-1.392-5.947-0.049
				c-0.094,0.07-0.204,0.096-0.311,0.075c-0.114-0.024-0.215-0.101-0.279-0.212c-0.238-0.41-0.278-0.811-0.321-1.235l-0.004-0.039
				c-0.346,0.006-0.693,0.002-1.039-0.001c-0.978-0.01-1.988-0.017-2.967,0.169c-0.16,0.03-0.33-0.059-0.415-0.215
				c-0.078-0.145-0.06-0.305,0.048-0.417c0.559-0.597,1.206-1.177,1.978-1.771c0.937-1.24,2.421-2.18,4.41-2.793
				c0.087-0.028,0.176-0.052,0.267-0.076l0.114-0.032c0.037-0.016,0.078-0.027,0.116-0.031c2.911-0.802,5.979-0.835,8.036-0.79
				c2.881,0.065,5.943,0.417,9.103,1.045c2.098,0.418,4.549,0.975,6.819,1.934l0,0c0.103,0.044,0.18,0.146,0.202,0.266
				c0.02,0.112-0.013,0.223-0.089,0.295c-0.863,0.845-1.96,1.311-3.021,1.762l-0.163,0.069c-1.126,0.477-2.402,1.019-2.026,2.376
				c0.03,0.115,0.013,0.231-0.046,0.32c-0.057,0.087-0.149,0.143-0.258,0.159c-0.873,0.126-1.682,0.519-2.464,0.9
				c-0.912,0.444-1.855,0.903-2.917,0.952C136.841,109.822,136.785,109.824,136.729,109.824z M130.527,107.193
				c0.93,0,1.774,0.39,2.355,0.703c0.291,0.156,0.581,0.331,0.862,0.5c0.967,0.581,1.971,1.179,3.139,1.126
				c1.001-0.047,1.875-0.472,2.801-0.923c0.803-0.391,1.633-0.795,2.552-0.927c0.024-0.004,0.042-0.013,0.052-0.028
				c0.012-0.019,0.015-0.047,0.007-0.078c-0.445-1.607,1.082-2.255,2.197-2.728l0.162-0.069c1.083-0.46,2.106-0.895,2.93-1.702
				c0.003-0.004,0.006-0.018,0-0.036c-0.006-0.022-0.018-0.033-0.023-0.035c-2.245-0.949-4.677-1.501-6.761-1.916
				c-3.143-0.625-6.188-0.975-9.051-1.04c-2.04-0.043-5.087-0.012-7.965,0.784l-0.038,0.005l0,0l-0.005,0.005l-0.175,0.049
				c-0.086,0.023-0.171,0.045-0.255,0.072c-0.496,0.153-0.959,0.326-1.388,0.52l0.119,0.243c-0.796,0.443-1.561,0.92-2.274,1.417
				l-0.127-0.159c-0.222,0.216-0.423,0.444-0.603,0.683l-0.028,0.029c-0.766,0.588-1.407,1.161-1.96,1.752
				c-0.008,0.008-0.025,0.026-0.002,0.07c0.022,0.041,0.068,0.069,0.097,0.064c1.007-0.192,2.034-0.184,3.025-0.174
				c0.389,0.004,0.779,0.007,1.168-0.001l0.137-0.003l0.033,0.313c0.041,0.409,0.076,0.761,0.282,1.116
				c0.021,0.037,0.051,0.063,0.081,0.069c0.024,0.004,0.047-0.002,0.071-0.021c2.052-1.548,4.368-0.686,6.23,0.007
				c0.74,0.272,1.23,0.435,1.939,0.341C130.253,107.202,130.391,107.193,130.527,107.193z"/>
		</g>
		<g>
			<path style="fill:#ADB94F;" d="M154.839,103.053c-1.311,0.267-2.584,0.724-3.94,0.616c-0.154-0.012-0.329,0.143-0.244,0.303
				c0.741,1.408,1.448,2.593,2.803,3.291c-2.304,0.433-4.789,0.788-6.088,2.973c-0.104,0.172,0.006,0.401,0.222,0.375
				c4.262-0.485,8.398-1.686,12.722-1.474c0.227,0.01,0.375-0.283,0.169-0.43c-0.43-0.306-0.818-0.657-1.235-0.977
				c2.493-1.036,5.087-1.808,7.652-2.638c0.225-0.073,0.157-0.366-0.012-0.449c-1.14-0.569-2.341-0.69-3.606-0.66
				c-0.768,0.018-1.533,0.051-2.303,0.012c-0.69-0.035-0.635-1.044-0.757-1.605c-0.023-0.129-0.143-0.238-0.28-0.208
				c-1.125,0.244-2.246,0.501-3.368,0.755C156.008,102.892,155.435,102.931,154.839,103.053z"/>
			<path style="fill:#758640;" d="M147.557,110.762c-0.128,0-0.243-0.061-0.313-0.168c-0.083-0.128-0.084-0.299-0.002-0.435
				c1.258-2.116,3.557-2.553,5.788-2.968c-1.168-0.735-1.832-1.866-2.508-3.15c-0.058-0.109-0.053-0.233,0.016-0.338
				c0.079-0.121,0.227-0.198,0.371-0.184c0.988,0.078,1.917-0.146,2.9-0.384c0.332-0.08,0.664-0.161,0.998-0.229l0,0
				c0.604-0.124,1.177-0.163,1.753-0.121l0.655-0.148c0.897-0.204,1.794-0.407,2.693-0.602c0.098-0.021,0.197-0.002,0.281,0.055
				c0.093,0.062,0.157,0.161,0.177,0.273c0.026,0.118,0.045,0.262,0.064,0.413c0.079,0.614,0.165,1.051,0.554,1.071
				c0.631,0.033,1.272,0.015,1.893-0.002l0.398-0.01c1.031-0.025,2.382,0.029,3.676,0.676c0.148,0.073,0.248,0.248,0.236,0.417
				c-0.011,0.146-0.102,0.261-0.246,0.308c-0.476,0.154-0.953,0.306-1.43,0.458c-1.978,0.631-4.021,1.282-5.975,2.079
				c0.101,0.081,0.201,0.162,0.3,0.244c0.235,0.193,0.477,0.392,0.729,0.571c0.14,0.099,0.195,0.266,0.14,0.425
				c-0.059,0.17-0.225,0.281-0.402,0.276c-2.846-0.139-5.667,0.347-8.396,0.817c-1.404,0.242-2.856,0.492-4.302,0.657
				C147.591,110.761,147.574,110.762,147.557,110.762z M150.881,103.817c-0.033,0-0.074,0.022-0.092,0.049
				c-0.01,0.015-0.009,0.023-0.002,0.035c0.718,1.365,1.42,2.549,2.739,3.229l0.386,0.199l-0.787,0.148
				c-2.178,0.404-4.43,0.822-5.627,2.835c-0.029,0.048-0.02,0.094-0.003,0.119c0.017,0.026,0.043,0.035,0.078,0.031
				c1.439-0.164,2.886-0.413,4.286-0.654c2.745-0.473,5.584-0.962,8.461-0.821c0.049-0.003,0.093-0.036,0.106-0.075
				c0.016-0.045-0.01-0.07-0.031-0.085c-0.26-0.184-0.507-0.387-0.745-0.583c-0.163-0.134-0.327-0.268-0.495-0.397l-0.204-0.157
				l0.238-0.099c2.036-0.846,4.171-1.527,6.235-2.184c0.477-0.152,0.953-0.304,1.428-0.458c0.031-0.01,0.038-0.024,0.04-0.045
				c0.003-0.048-0.03-0.108-0.071-0.128c-0.965-0.482-2.055-0.68-3.537-0.645l-0.398,0.01c-0.626,0.017-1.274,0.034-1.916,0.001
				c-0.668-0.034-0.764-0.783-0.835-1.33c-0.018-0.142-0.036-0.277-0.061-0.393c-0.007-0.036-0.026-0.066-0.051-0.083
				c-0.025-0.017-0.045-0.013-0.052-0.011c-0.898,0.195-1.794,0.398-2.69,0.601l-0.699,0.158l-0.022-0.002
				c-0.555-0.042-1.108-0.005-1.693,0.115h0c-0.331,0.067-0.66,0.147-0.988,0.226c-0.963,0.233-1.96,0.476-2.994,0.392
				C150.885,103.817,150.883,103.817,150.881,103.817z"/>
		</g>
		<g>
			<path style="fill:#ADB94F;" d="M167.068,107.4c1.741-0.223,3.435-0.874,5.002-1.643c1.164-0.575,2.647-1.354,3.2-2.601
				c0.067-0.145-0.04-0.29-0.181-0.319c-1.197-0.248-2.52-0.046-3.437,0.808c-0.039,0.037-0.056,0.077-0.056,0.116
				c-0.365,0.174-0.713,0.409-1.044,0.663c-1.175,0.899-2.167,2.023-3.594,2.539C166.712,107.052,166.816,107.432,167.068,107.4z"/>
			<path style="fill:#758640;" d="M167.04,107.551c-0.171,0-0.318-0.118-0.361-0.296c-0.046-0.19,0.048-0.368,0.226-0.432
				c1.002-0.362,1.774-1.023,2.591-1.722c0.31-0.266,0.631-0.54,0.963-0.794c0.363-0.28,0.693-0.492,1.005-0.647
				c0.015-0.039,0.041-0.081,0.083-0.121c0.873-0.813,2.208-1.13,3.571-0.846c0.121,0.025,0.227,0.104,0.281,0.212
				c0.051,0.1,0.053,0.212,0.005,0.315c-0.555,1.25-1.979,2.035-3.27,2.672c-1.874,0.92-3.525,1.462-5.049,1.657h-0.001
				C167.07,107.55,167.055,107.551,167.04,107.551z M174.143,102.888c-0.929,0-1.784,0.302-2.39,0.867l-0.002,0.092l-0.092,0.049
				c-0.312,0.149-0.645,0.36-1.018,0.647c-0.326,0.249-0.643,0.521-0.95,0.784c-0.802,0.686-1.631,1.396-2.684,1.777
				c-0.035,0.013-0.048,0.04-0.038,0.082c0.003,0.012,0.02,0.07,0.079,0.066c1.49-0.191,3.111-0.724,4.955-1.629
				c1.244-0.614,2.614-1.366,3.13-2.527c0.01-0.022,0.01-0.04,0.001-0.058c-0.013-0.026-0.043-0.048-0.075-0.054
				C174.75,102.92,174.442,102.888,174.143,102.888z"/>
		</g>
		<g>
			<path style="fill:#B1CE54;" d="M238.542,182.838c-0.174-0.474-0.406-0.945-0.705-1.413c-0.03-0.05-0.044-0.127-0.007-0.181
				c1.208-1.77,2.413-3.66,2.797-5.804c0.382-2.142,0.306-4.344,0.501-6.504c0.182-2.008,1.229-3.463,2.434-4.989
				c0.803-1.02,1.645-2.172,2.015-3.438c0.373-1.262,0.354-2.558,0.194-3.854c-0.275-2.229-0.535-4.299-0.14-6.533
				c0.143-0.802,0.37-1.625,0.262-2.444c-0.066-0.509-0.194-1.005-0.367-1.489c-0.21-0.586-0.277-1.113-0.941-1.229
				c-1.826-0.313-3.821-0.302-5.47-1.244c-0.325-0.187-0.646-0.441-0.878-0.739c-0.33-0.434-1.201,0.067-1.625,0.221
				c-1.115,0.41-2.296,0.968-3.504,1.024c-0.803,0.037-1.171-0.122-1.656-0.774c-0.412-0.555-1.1-1.936-1.935-1.757
				c-1.308,0.282-3.04,1.765-4.367,0.937c-1.157-0.724-1.503-1.959-1.915-3.177c-0.218-0.654-0.473-1.4-1.045-1.829
				c-0.477-0.358-1.028-0.496-1.597-0.532c-0.054,0.072-0.138,0.101-0.239,0.049c-0.031-0.018-0.06-0.039-0.089-0.056
				c-0.284,0.002-0.568,0.02-0.849,0.05c-0.094,0.011-0.211-0.042-0.24-0.141c-0.203-0.658-0.666-1.034-1.103-1.532
				c-0.027-0.032-0.042-0.063-0.05-0.094c-0.712-0.631-1.404-1.288-2.122-1.899c-1.555-1.318-3.336-2.872-5.372-3.352
				c-1.285-0.305-2.361,0.034-3.495,0.624c-0.73,0.379-1.454,0.701-2.297,0.652c-1.082-0.064-2.123-0.406-3.028-1.013
				c-0.468-0.315-0.921-0.661-1.313-1.069c-0.22-0.229-0.67-0.981-0.99-0.949c-2.193,0.219-3.915-1.319-5.691-2.352
				c-0.832-0.485-1.814-1.123-2.769-1.34c-0.441-0.097-0.852,0.025-1.292,0.082c-1.076,0.142-2.169,0.091-3.252,0.173
				c-1.282,0.091-2.563,0.229-3.832,0.433c-2.794,0.447-5.552,1.118-8.178,2.178c-0.123,0.05-0.27-0.047-0.277-0.177
				c-0.022-0.336,0.023-0.79-0.37-0.874c-0.263-0.059-0.526-0.119-0.786-0.186c-0.55-0.141-1.092-0.292-1.634-0.442
				c-0.854-0.238-1.724-0.536-2.599-0.683c-0.172,0.865-0.812,1.506-0.974,2.37c-0.023,0.123-0.127,0.183-0.245,0.173
				c-1.135-0.093-2.277,0.05-3.417-0.046c-0.159-0.016-0.209-0.225-0.122-0.335c0.32-0.406,0.659-0.814,0.92-1.259
				c0.027-0.043,0.276-0.588,0.286-0.591c-0.451,0.051-0.894,0.37-1.268,0.608c-1.09,0.706-2.154,1.535-3.136,2.382
				c-1.365,1.182-2.659,2.637-4.351,3.358c-0.458,0.194-0.912,0.337-1.398,0.44c-0.406,0.085-0.593,0.717-0.766,1.038
				c-0.266,0.487-0.677,1.091-0.949,1.702c0.15-0.097,0.299-0.191,0.468-0.248c0.174-0.06,0.366,0.178,0.213,0.315
				c-0.015,0.016-0.032,0.026-0.045,0.037c0.136,0.024,0.246,0.152,0.186,0.288c0.01,0.047-0.005,0.094-0.044,0.131
				c0.011,0.037,0.019,0.073,0.031,0.108c0.042-0.031,0.083-0.061,0.139-0.076c0.12-0.036,0.261,0.078,0.217,0.209
				c-0.053,0.16-0.131,0.274-0.225,0.345c0.127,0.567,0.16,1.171-0.147,1.619c-0.436,0.638-1.205,0.617-1.895,0.484
				c-0.09,2.297-1.838,4.203-4.296,3.346c-0.623-0.218-1.228-0.561-1.687-1.043c-0.21-0.219-0.415-0.446-0.58-0.699
				c-0.353-0.538-0.542-0.5-1.19-0.321c-1.536,0.425-3.285,1.218-4.241,2.573c-0.081,2.996-6.102,2.748-6.793-0.246
				c-0.072-0.019-0.138-0.042-0.202-0.069c-0.582,0.438-1.848,0.07-2.477-0.002c-0.101-0.008-0.166-0.096-0.178-0.188
				c-0.261-1.83-1.691-2.654-2.549-4.133c-0.611-1.051-0.82-2.324-0.726-3.529c0.114-1.453,0.056-2.909-0.115-4.356
				c-0.115-1.002-0.272-2.136-0.888-2.976c-1.086-1.483-3.12-1.503-4.786-1.326c-2.243,0.236-3.746,1.808-5.738,2.675
				c-1.695,0.738-3.608,0.51-4.955-0.868c-1.082-1.107-0.911-2.441-0.299-3.757c0.841-1.812,1.8-3.259,1.519-5.348
				c-0.196-1.418-0.844-2.805-0.788-4.25c0.028-0.715,0.283-1.433,0.639-2.051c0.225-0.389,0.466-0.77,0.741-1.129
				c0.364-0.472,0.9-0.868,0.213-1.301c-1.773-1.128-4.079,0.171-5.628,1.139c-0.845,0.525-1.66,1.095-2.492,1.636
				c-0.595,0.389-1.34,0.792-1.792,1.361c-0.438,0.556,0.246,1.385,0.31,2.011c0.154,1.556-0.44,3.541-1.515,4.689
				c-1.231,1.314-2.954,1.668-4.699,1.643c-1.937-0.027-3.845-0.256-5.784-0.217c-1.387,0.03-2.75,0.325-4.137,0.366
				c-0.903,0.027-2.194,0.027-2.784-0.81c-0.74-1.049-0.215-2.5,0.25-3.605c-1.66,0.01-2.931-1.457-3.732-2.784
				c-1.113-1.836-1.91-3.955-2.228-6.083c-0.307-2.048,0.344-3.613,1.415-5.336c0.515-0.823,1.232-1.814,1.208-2.831
				c-0.025-1.369-1.137-2.285-2.17-3.014c-0.067-0.048-0.085-0.161-0.044-0.231c0.695-1.185,1.772-2.047,2.839-2.887
				c0.424-0.336,0.882-0.672,1.323-1.029c-0.021-0.041-0.016-0.088,0.033-0.122c0.288-0.203,0.561-0.429,0.824-0.663
				c0.351-0.364,0.661-0.759,0.887-1.209c0.024-0.049,0.095-0.01,0.073,0.041c-0.078,0.176-0.166,0.343-0.264,0.504
				c0.949-0.976,1.796-2.084,2.746-3.024c1.129-1.116,2.737-2.714,4.484-2.579c0.841,0.065,1.585,0.475,2.134,1.119
				c0.199,0.233,0.778,1.348,1.036,1.334c0.65-0.035,1.3-0.057,1.948-0.096c2.713-0.155,6.074-0.443,7.532-3.066
				c-0.719-0.13-1.374-0.336-2.127-0.212c-0.129,0.02-0.239-0.16-0.164-0.268c1.831-2.633,5.737-1.891,8.447-2.692
				c0.08-0.022,0.159,0.008,0.205,0.076c0.077,0.109,0.539,1.074,0.587,1.064c0.38-0.076,0.766-0.136,1.14-0.238
				c0.965-0.262,1.494-0.82,1.968-1.688c0.045-0.076,0.159-0.123,0.24-0.07c2.122,1.415,3.696,3.433,5.595,5.106
				c0.099,0.088,0.051,0.256-0.069,0.29c-0.527,0.151-0.987,0.42-1.424,0.737c1.847,1.83,4.254,3.665,6.786,4.344
				c0.068,0.018,0.12,0.109,0.093,0.176c-0.472,1.081-0.831,2.2-1.252,3.295c0.501-0.128,1.002-0.266,1.424-0.586
				c0.478-0.367,0.808-0.832,1.119-1.343c0.312-0.515,0.622-1.041,1.012-1.504c0.135-0.159,0.233-0.299,0.279-0.437
				c-0.037-0.201-0.092-0.393-0.16-0.574c-0.054-0.06-0.12-0.12-0.204-0.185c-0.286-0.224-0.605-0.381-0.919-0.551
				c-0.201-0.109-0.123-0.464,0.123-0.403c0.176,0.045,0.339,0.113,0.498,0.19c-0.656-0.947-1.593-1.697-2.165-2.765
				c-1.218-0.791-1.7-2.062-0.794-3.516c0.226-0.364,0.307-0.372-0.06-0.569c-0.245-0.13-0.475-0.269-0.706-0.426
				c-0.385-0.259-0.716-0.585-1.024-0.929c-0.475-0.528-0.863-1.18-1.111-1.855c-0.116,0.036-0.257-0.089-0.185-0.227
				c0.018-0.039,0.042-0.075,0.067-0.104c-0.004-0.019-0.015-0.034-0.02-0.054c-0.019-0.074,0.021-0.137,0.076-0.171
				c-0.029-0.019-0.073-0.041-0.147-0.069c-0.247-0.086-0.502-0.183-0.69-0.38c-0.375-0.384-0.61-0.864-0.689-1.399
				c-0.184-1.218,0.035-2.566,0.539-3.692c0.515-1.15,1.504-1.757,2.625-2.238c1.568-0.678,2.398-1.498,2.562-3.213
				c-2.31-0.454,0.673-3.26,1.428-3.95c0.897-0.813,1.806-1.573,2.795-2.267c1.456-1.022,3.073-2.218,2.968-4.143
				c-1.111,0.414-2.316,1.123-3.367,0.186c-0.569-0.505-0.95-1.085-1.112-1.841c-0.242-1.125-0.414-1.911-1.543-2.469
				c-0.123-0.061-0.178-0.227-0.085-0.341c1.519-1.869,3.083-3.71,4.895-5.304c0.798-0.702,1.762-1.233,2.531-1.951
				c0.589-0.544,0.318-1.107-0.13-1.664c-0.583-0.722-1.372-0.948-2.264-0.689c-0.216,0.063-0.386-0.153-0.257-0.343
				c0.057-0.085,0.117-0.161,0.179-0.24c-1.356,0.841-2.81,1.599-4.312,1.607c-2.44,0.016-4.779-0.933-7.145,0.129
				c-1.915,0.86-3.595,2.196-5.79,2.162c-1.902-0.034-3.686-1.342-4.665-2.925c-1.066,0.511-0.878,1.317-0.993,2.374
				c-0.071,0.64-0.462,0.925-1.091,0.955c-2.708,0.128-3.488-2.685-5.085-4.244c-0.105-0.106-0.13-0.266-0.003-0.367
				c1.921-1.531,5.105,1.791,6.259-1.019c0.043-0.107,0.177-0.149,0.28-0.102c1.711,0.75,3.146,2.108,4.924,2.708
				c0.971,0.328,1.979,0.351,2.983,0.175c0.47-0.08,0.935-0.182,1.404-0.273c0.498-0.093,0.843-0.099,0.719-0.724
				c-0.024-0.11,0.086-0.21,0.189-0.221c1.44-0.132,2.851,0.045,4.292,0.061c1.594,0.014,3.046-0.282,4.44-1.079
				c1.004-0.573,2.057-1.417,3.191-1.721c1.093-0.295,2.224-0.321,3.352-0.319c1.305,0.008,2.617,0.052,3.901-0.224
				c1.34-0.287,2.397-0.985,3.587-1.622c1.52-0.811,4.102-2.041,3.611-4.164c-0.021-0.09,0.019-0.202,0.122-0.228
				c0.81-0.193,1.587-0.459,2.323-0.856c0.971-3.257-8.223-1.106-6.943-5.632c0.029-0.113,0.122-0.198,0.247-0.178
				c1.348,0.216,2.62,0.814,3.976,0.968c1.614,0.183,3.101-0.387,4.696-0.422c1.692-0.037,3.365,0.425,5.064,0.471
				c0.868,0.023,1.734,0.02,2.601,0.002c0.161-0.005,1.318,0.116,1.162-0.283c-0.098-0.254-0.221-0.486-0.391-0.699
				c-1.069-1.327-2.293-1.774-3.964-1.802c-0.982-0.017-1.846-0.072-2.332-1.021c-0.302-0.593-1.35-0.913-1.921-1.167
				c-0.596-0.265-1.203-0.521-1.831-0.708c-0.796-0.232-1.692-0.455-2.531-0.344c-0.819,0.103-0.69,0.339-0.782,1.067
				c-0.02,0.174-0.235,0.284-0.38,0.168c-0.793-0.645-1.599-1.382-2.579-1.736c-0.923-0.333-1.643-0.302-2.587-0.181
				c-1.271,0.158-2.484,0.067-3.108-1.225c-0.219-0.458-0.299-0.933-0.285-1.438c0.009-0.39,0.139-1.005-0.154-1.328
				c-0.608-0.654-1.96-0.582-2.769-0.579c-0.926,0.001-1.859,0.105-2.788,0.056c-1.289-0.07-3.076-0.464-3.836-1.638
				c-0.345-0.53-0.637-0.533-1.309-0.499c-0.967,0.057-1.917,0.077-2.879-0.041c-1.028-0.127-2.041-0.338-3.067-0.465
				c-1.147-0.14-2.242-0.099-3.392-0.035c-2.299,0.127-4.609-0.022-6.885-0.357c-0.132-0.02-0.189-0.124-0.188-0.228
				c-1.106-0.234-2.563,0.222-3.598,0.412c-1.461,0.267-2.936,0.338-4.42,0.414c-1.662,0.081-3.162-0.268-4.788-0.548
				c-1.501-0.259-3.07-0.459-4.459-1.128c-0.136-0.061-0.172-0.219-0.09-0.342c2.5-3.676,7.498-1.563,10.937-0.807
				c2.575,0.567,5.292,0.406,7.912,0.301c2.464-0.099,4.914-0.345,7.346-0.742c-0.782-0.213-1.498-0.598-2.12-1.19
				c-0.128-0.12-0.106-0.306,0.053-0.384c5.919-2.939,12.592,1.298,18.45-1.64c-0.32-0.12-0.634-0.247-0.965-0.308
				c-0.143-0.025-0.239-0.225-0.124-0.336c1.858-1.819,3.761-1.226,5.994-0.564c3.202,0.953,6.083-0.066,9.242-0.593
				c0.907-0.152,1.821-0.249,2.738-0.322c-0.58-0.156-1.161-0.308-1.744-0.457c-7.201-1.304-14.619-1.986-22.196-1.986
				c-38.999,0-73.786,18.033-96.478,46.215c0.582,1.047,0.857,2.327,1.035,3.64c1.341-0.283,1.917-0.994,1.673-2.403
				c-0.133-0.762-0.41-1.678-0.089-2.429c0.382-0.901,1.506-1.508,2.469-1.484c1.34,0.032,2.398,0.452,3.64-0.33
				c0.085-0.051,0.224-0.049,0.277,0.05c0.659,1.235,0.908,2.547,0.12,3.781c-0.696,1.092-1.994,1.728-3.2,2.129
				c-0.636,1.084-0.082,2.263-0.197,3.438c-0.086,0.86-0.481,1.616-1.174,2.16c-0.56,0.438-1.138,0.549-1.834,0.573
				c-0.992,0.039-2.514,0.312-2.908,1.389c-0.3,0.819-0.007,1.895-0.551,2.63c-0.426,0.579-1.172,0.833-1.827,1.073
				c-0.372,0.134-0.758,0.252-1.118,0.417c-0.42,0.188-0.519,0.708-0.58,1.131c-0.104,0.726-0.044,1.456-0.12,2.182
				c-0.071,0.693-0.264,1.416-0.757,1.936c-0.282,0.294-0.591,0.563-0.948,0.759c-0.594,0.321-0.348,0.782-0.179,1.385
				c0.501,1.79,1.717,4.181,0.699,6.002c-0.542,0.968-1.505,1.767-1.764,2.876c-0.266,1.14,0.049,2.404,0.447,3.477
				c0.647,1.75,1.323,3.369,1.508,5.183c0.403-1.135,0.883-2.243,1.047-3.446c0.014-0.118,0.172-0.2,0.274-0.135
				c1.095,0.692,2.121,1.116,3.393,1.334c0.063,0.01,0.126,0.065,0.143,0.128c0.322,1.203,1.142,2.185,1.487,3.374
				c0.316-0.201,0.642-0.379,0.948-0.6c0.115-0.085,0.252,0.003,0.223,0.143c-0.329,1.698-0.374,3.521-0.107,5.231
				c0.133,0.855,0.234,0.807,0.954,1.072c0.273,0.099,0.55,0.273,0.766,0.471c1.411,1.299,1.633,3.443,1.825,5.244
				c0.011,0.101-0.042,0.174-0.148,0.181c-0.349,0.024-1.183-0.102-0.648,0.475c0.255,0.273,0.517,0.54,0.805,0.779
				c0.614,0.507,1.276,0.948,1.904,1.434c0.586,0.451,1.12,0.927,1.585,1.5c0.139,0.166,0.326,0.772,0.603,0.35
				c0.158-0.236,0.301-0.407,0.508-0.598c0.053-0.052,0.139-0.046,0.191,0.006c1.399,1.497,2.4,3.181,2.039,5.291
				c-0.113,0.669,0.001,0.619,0.581,0.848c0.394,0.156,0.785,0.326,1.157,0.526c0.782,0.422,1.514,0.914,2.225,1.443
				c-1.339-2.059-2.561-4.195-3.753-6.335c-1.199-2.152-2.53-4.115-3.936-6.129c-0.607-0.865-1.227-1.753-1.639-2.728
				c-0.322-0.757-0.796-1.529-0.966-2.346c-0.287-1.39,0.309-3.002,0.463-4.375c0.006-0.072,0.042-0.154,0.123-0.17
				c0.512-0.088,1.015-0.097,1.521-0.071c-0.037-0.38-0.139-0.748-0.107-1.145c0.011-0.122,0.131-0.206,0.25-0.146
				c2.801,1.518,2.191,4.976,3.496,7.413c0.357,0.669,0.909,1.206,1.716,1.228c0.223,0.006,0.677-0.126,0.867-0.026
				c0.373,0.195,0.784,0.623,1.057,0.941c0.488,0.563,0.979,1.285,0.831,2.08c-0.11,0.579-0.594,0.99,0.199,1.185
				c0.482,0.12,0.967,0.182,1.463,0.236c0.079,0.009,0.141,0.1,0.142,0.175c0.011,0.337-0.459,1.348,0.112,1.075
				c0.258-0.124,0.482-0.242,0.768-0.16c0.077,0.022,0.138,0.086,0.14,0.174c0.033,1.557,2.279,2.922,3.361,3.767
				c0.936,0.735,2.076,1.492,2.923,2.426c0.38,0.162,0.759,0.344,1.035,0.617c0.401,0.395,0.524,1.103,1.203,0.788
				c0.127-0.061,0.26,0.053,0.271,0.175c0.178,1.609,0.676,3.049,1.423,4.478c0.627,1.203,1.286,2.405,1.66,3.717
				c0.52,1.835,0.239,3.259-0.369,5.027c-0.246,0.72-0.683,1.729-0.344,2.484c0.435,0.965,1.781,1.352,2.737,1.482
				c2.316,0.311,4.54-0.907,6.776-1.305c2.156-0.382,4.007-0.044,5.871,1.088c0.864,0.522,1.976,1.481,3.032,1.528
				c1.195,0.056,2.176-0.924,2.91-1.731c0.553-0.608,1.146-1.304,1.934-1.614c0.683-0.27,1.436-0.396,2.162-0.471
				c2.933-0.314,7.54-0.149,9.088,2.888c0.032,0.067,0.017,0.169-0.031,0.224c-0.371,0.433-0.515,0.927-0.738,1.416
				c1.595,0.033,3.121,0.395,4.6,1.014c1.594,0.67,3.143,1.505,4.858,1.827c2.559,0.478,5.278,0.677,7.875,0.572
				c0.608-0.024,1.225-0.052,1.817-0.178c0.272-0.059,0.816-0.411,1.058-0.374c0.595,0.097,1.296,0.606,1.801,0.919
				c0.694,0.421,1.366,0.877,2.007,1.37c2.592,1.993,5.077,4.373,6.924,7.09c1.623-1.057,3.144-0.72,4.635,0.48
				c0.714,0.571,1.418,1.296,2.286,1.627c1.181,0.439,2.194-0.199,3.022-1.016c0.099-0.1,0.243-0.105,0.337,0.008
				c0.641,0.807,2.065,2.894,3.363,2.608c0.835-0.182,1.254-1.302,1.567-1.987c0.594-1.306,1.176-2.876,2.319-3.799
				c-0.089,0.015-0.182,0.024-0.271,0.049c-0.17,0.042-0.228-0.224-0.059-0.27c0.276-0.074,0.551-0.111,0.833-0.122
				c0.195-0.108,0.402-0.196,0.624-0.268c0.215-0.067,0.348,0.188,0.245,0.324c2.035,0.33,4.111,1.954,5.385,3.234
				c1.421,1.423,3.379,3.955,2.039,5.98c1.353,0.717,2.42,2.105,3.08,3.445c0.475,0.966,1.347,3.118,0.445,4.116
				c-0.291,0.326-0.895,0.494-1.281,0.665c-0.76,0.337-1.533,0.657-2.272,1.038c-1.88,0.968-2.241,3.105-2.867,4.959
				c-0.665,1.99-1.711,3.84-2.01,5.945c-0.258,1.786-0.238,3.68-0.13,5.48c0.103,1.717,0.355,3.451,0.208,5.172
				c-0.095,1.135-0.367,2.352-1.289,3.072c2.503,1.11,4.866,2.456,6.817,4.407c1.791,1.795,3.306,3.839,5.115,5.616
				c1.805,1.772,3.642,3.593,5.051,5.702c0.995,1.498,2.087,3.474,1.383,5.288c2.062,0.45,3.942,1.383,5.894,2.158
				c1.089,0.436,2.277,0.936,3.459,1.01c0.982,0.061,1.948-0.038,2.927-0.113c1.506-0.111,3.075-0.069,4.298,0.946
				c0.975,0.809,1.442,1.717,1.766,2.926c0.816,3.066,1.046,6.335,1.089,9.499c0.019,1.321,0.026,2.663-0.14,3.979
				c-0.2,1.591-0.883,3.029-1.659,4.419c-1.329,2.372-2.552,4.562-2.839,7.319c-0.05,0.491-0.088,0.983-0.122,1.475
				C205.044,228.453,225.98,208.096,238.542,182.838z"/>
			<path style="fill:#758640;" d="M179.202,240.521l0.017-0.251c0.04-0.594,0.078-1.051,0.122-1.48
				c0.291-2.796,1.538-5.021,2.858-7.377c0.732-1.311,1.438-2.748,1.641-4.364c0.163-1.293,0.159-2.61,0.139-3.958
				c-0.054-3.933-0.389-6.851-1.084-9.463c-0.348-1.301-0.845-2.127-1.717-2.85c-1.188-0.986-2.717-1.021-4.192-0.912l-0.391,0.031
				c-0.833,0.067-1.694,0.136-2.556,0.082c-1.141-0.071-2.299-0.536-3.322-0.946l-0.184-0.074c-0.491-0.195-0.978-0.4-1.464-0.605
				c-1.414-0.596-2.876-1.212-4.407-1.546l-0.17-0.037l0.063-0.163c0.671-1.73-0.379-3.662-1.368-5.152
				c-1.434-2.147-3.345-4.023-5.031-5.678c-0.939-0.922-1.811-1.93-2.654-2.904c-0.786-0.909-1.6-1.848-2.462-2.712
				c-1.684-1.684-3.835-3.074-6.772-4.376l-0.227-0.101l0.196-0.153c0.944-0.737,1.155-2.047,1.232-2.967
				c0.106-1.241,0-2.514-0.103-3.744c-0.039-0.47-0.078-0.939-0.106-1.406c-0.133-2.218-0.091-3.969,0.132-5.51
				c0.2-1.408,0.736-2.718,1.254-3.985c0.264-0.646,0.537-1.315,0.762-1.986c0.098-0.292,0.19-0.59,0.283-0.89
				c0.501-1.627,1.018-3.31,2.658-4.154c0.572-0.295,1.171-0.557,1.751-0.81c0.177-0.077,0.353-0.154,0.529-0.232
				c0.094-0.042,0.201-0.083,0.313-0.127c0.337-0.131,0.72-0.28,0.918-0.501c0.887-0.981-0.133-3.271-0.467-3.951
				c-0.754-1.531-1.854-2.763-3.016-3.379l-0.145-0.077l0.091-0.137c1.305-1.972-0.705-4.476-2.02-5.792
				c-0.833-0.837-3.016-2.822-5.303-3.193l-0.244-0.04l0.149-0.197c0.009-0.012,0.006-0.044-0.011-0.069
				c-0.022-0.032-0.049-0.028-0.07-0.022c-0.219,0.071-0.414,0.155-0.596,0.256l-0.031,0.017l-0.036,0.001
				c-0.012,0-0.023,0.001-0.034,0.001l-0.382,0.308c-0.964,0.778-1.536,2.072-2.04,3.213c-0.08,0.181-0.158,0.358-0.237,0.532
				l-0.092,0.204c-0.316,0.711-0.75,1.685-1.579,1.866c-1.253,0.278-2.524-1.378-3.283-2.367c-0.084-0.109-0.161-0.209-0.229-0.294
				c-0.014-0.017-0.031-0.027-0.049-0.028c-0.024-0.003-0.044,0.011-0.065,0.031c-1.106,1.092-2.145,1.436-3.18,1.051
				c-0.69-0.263-1.269-0.757-1.829-1.235c-0.167-0.143-0.332-0.283-0.498-0.416c-1.582-1.273-2.999-1.423-4.461-0.471l-0.123,0.08
				l-0.082-0.121c-1.661-2.442-3.979-4.816-6.892-7.055c-0.616-0.475-1.286-0.933-1.993-1.361c-0.088-0.054-0.181-0.114-0.277-0.176
				c-0.449-0.289-1.007-0.648-1.47-0.723c-0.098-0.015-0.361,0.106-0.551,0.194c-0.168,0.078-0.326,0.152-0.451,0.179
				c-0.625,0.133-1.272,0.158-1.843,0.181c-2.597,0.105-5.332-0.093-7.908-0.574c-1.319-0.248-2.552-0.8-3.744-1.334
				c-0.381-0.171-0.761-0.341-1.145-0.502c-1.537-0.643-3.024-0.971-4.546-1.003l-0.227-0.005l0.095-0.207
				c0.054-0.118,0.103-0.236,0.152-0.354c0.154-0.369,0.313-0.751,0.608-1.096c0.01-0.013,0.016-0.049,0.01-0.062
				c-1.64-3.219-6.797-3.034-8.937-2.804c-0.881,0.091-1.555,0.238-2.123,0.462c-0.703,0.277-1.245,0.875-1.768,1.454l-0.11,0.121
				c-0.871,0.957-1.836,1.835-3.028,1.779c-0.849-0.037-1.706-0.617-2.461-1.129c-0.226-0.154-0.44-0.299-0.64-0.419
				c-1.819-1.104-3.652-1.443-5.768-1.068c-0.764,0.136-1.547,0.375-2.303,0.606c-1.461,0.447-2.97,0.91-4.518,0.7
				c-0.854-0.116-2.359-0.473-2.853-1.568c-0.325-0.723-0.007-1.618,0.248-2.337c0.032-0.089,0.062-0.175,0.09-0.257
				c0.613-1.783,0.87-3.163,0.367-4.939c-0.338-1.186-0.923-2.302-1.489-3.383l-0.16-0.306c-0.812-1.552-1.269-2.991-1.439-4.53
				c-0.002-0.022-0.017-0.044-0.035-0.054c-0.629,0.278-0.903-0.133-1.123-0.464c-0.083-0.125-0.17-0.255-0.272-0.356
				c-0.268-0.265-0.651-0.441-0.989-0.586l-0.052-0.037c-0.627-0.691-1.414-1.282-2.174-1.853c-0.251-0.188-0.497-0.373-0.73-0.556
				c-0.167-0.131-0.362-0.274-0.573-0.428c-1.188-0.871-2.816-2.065-2.846-3.453c0-0.021-0.021-0.03-0.033-0.034
				c-0.219-0.062-0.4,0.024-0.629,0.135l-0.033,0.016c-0.166,0.08-0.298,0.081-0.392,0.005c-0.176-0.144-0.099-0.454-0.01-0.813
				c0.039-0.155,0.078-0.315,0.076-0.396c-0.001-0.012-0.011-0.029-0.018-0.034c-0.543-0.057-1.007-0.121-1.474-0.237
				c-0.274-0.067-0.437-0.167-0.513-0.314c-0.102-0.197-0.017-0.412,0.073-0.638c0.051-0.129,0.104-0.262,0.13-0.405
				c0.14-0.754-0.353-1.441-0.797-1.955c-0.269-0.312-0.663-0.722-1.014-0.906c-0.081-0.042-0.319-0.009-0.477,0.013
				c-0.12,0.017-0.233,0.031-0.325,0.03c-0.761-0.021-1.398-0.473-1.843-1.307c-0.477-0.891-0.704-1.918-0.924-2.912
				c-0.397-1.799-0.773-3.498-2.512-4.44c-0.021,0.003-0.029,0.012-0.03,0.028c-0.021,0.249,0.016,0.488,0.055,0.741
				c0.019,0.125,0.039,0.25,0.051,0.376l0.017,0.172l-0.173-0.009c-0.569-0.03-1.042-0.008-1.487,0.069
				c0.01,0.003,0.001,0.014-0.001,0.036c-0.05,0.45-0.144,0.908-0.242,1.394c-0.202,0.995-0.412,2.023-0.223,2.938
				c0.114,0.548,0.376,1.088,0.629,1.61c0.115,0.238,0.229,0.474,0.329,0.708c0.412,0.974,1.056,1.891,1.624,2.701
				c1.25,1.79,2.688,3.888,3.944,6.143c1.134,2.037,2.373,4.213,3.747,6.326l0.454,0.697l-0.667-0.496
				c-0.804-0.598-1.505-1.052-2.207-1.431c-0.32-0.172-0.682-0.337-1.141-0.519c-0.066-0.026-0.126-0.048-0.18-0.069
				c-0.498-0.186-0.603-0.295-0.493-0.943c0.302-1.768-0.315-3.36-2.001-5.165c-0.175,0.182-0.311,0.342-0.466,0.574
				c-0.095,0.145-0.204,0.226-0.325,0.213c-0.204-0.007-0.329-0.229-0.428-0.407c-0.032-0.057-0.061-0.111-0.088-0.143
				c-0.406-0.501-0.901-0.97-1.562-1.478c-0.255-0.197-0.515-0.386-0.775-0.576c-0.376-0.274-0.765-0.557-1.133-0.861
				c-0.316-0.263-0.591-0.548-0.819-0.792c-0.121-0.131-0.272-0.325-0.192-0.508c0.096-0.218,0.421-0.217,0.732-0.214
				c0.077,0,0.149,0.001,0.207-0.003l0.007-0.041c-0.193-1.814-0.411-3.871-1.775-5.126c-0.207-0.19-0.468-0.351-0.716-0.441
				l-0.185-0.067c-0.603-0.214-0.735-0.289-0.865-1.122c-0.267-1.715-0.229-3.542,0.108-5.283c-0.195,0.155-0.41,0.285-0.619,0.411
				c-0.109,0.066-0.218,0.132-0.326,0.2l-0.168,0.107l-0.055-0.191c-0.164-0.564-0.446-1.096-0.719-1.61
				c-0.295-0.557-0.6-1.133-0.77-1.767c-0.002-0.006-0.015-0.017-0.022-0.019c-1.24-0.212-2.303-0.63-3.45-1.355
				c-0.01-0.003-0.043,0.014-0.046,0.027c-0.134,0.983-0.477,1.91-0.81,2.807c-0.083,0.223-0.165,0.446-0.245,0.671l-0.222,0.624
				l-0.067-0.659c-0.161-1.576-0.697-3.004-1.264-4.517c-0.078-0.208-0.157-0.418-0.235-0.629c-0.53-1.43-0.678-2.595-0.452-3.563
				c0.171-0.731,0.631-1.329,1.076-1.907c0.25-0.324,0.508-0.66,0.703-1.007c0.781-1.398,0.182-3.173-0.346-4.74
				c-0.136-0.404-0.265-0.786-0.367-1.149c-0.022-0.077-0.045-0.153-0.067-0.225c-0.15-0.488-0.305-0.993,0.319-1.331
				c0.303-0.167,0.593-0.399,0.911-0.731c0.398-0.419,0.632-1.023,0.716-1.848c0.034-0.323,0.04-0.655,0.046-0.976
				c0.008-0.396,0.016-0.806,0.074-1.212c0.071-0.491,0.188-1.032,0.667-1.247c0.264-0.121,0.543-0.217,0.813-0.31
				c0.106-0.036,0.211-0.073,0.315-0.11l0.084-0.031c0.606-0.221,1.293-0.473,1.674-0.99c0.292-0.395,0.322-0.903,0.353-1.442
				c0.022-0.389,0.046-0.791,0.178-1.151c0.459-1.252,2.28-1.457,3.042-1.487c0.664-0.023,1.215-0.124,1.748-0.541
				c0.647-0.508,1.033-1.22,1.117-2.058c0.04-0.409-0.006-0.831-0.05-1.24c-0.081-0.749-0.165-1.523,0.267-2.258l0.028-0.048
				l0.053-0.018c1.54-0.513,2.561-1.189,3.121-2.067c0.664-1.04,0.623-2.227-0.126-3.63c-0.008-0.006-0.044-0.007-0.068,0.007
				c-0.968,0.609-1.836,0.52-2.756,0.425c-0.31-0.032-0.63-0.065-0.965-0.073c-0.965-0.027-1.987,0.588-2.328,1.393
				c-0.249,0.583-0.105,1.309,0.023,1.949c0.027,0.135,0.053,0.268,0.076,0.396c0.251,1.445-0.317,2.263-1.789,2.574l-0.157,0.033
				l-0.022-0.159c-0.146-1.081-0.394-2.466-1.017-3.587l-0.049-0.088l0.063-0.078c23.677-29.405,58.885-46.27,96.594-46.27
				c7.458,0,14.935,0.669,22.223,1.988c0.593,0.151,1.175,0.303,1.756,0.46l0.832,0.225l-0.859,0.068
				c-1.053,0.083-1.919,0.185-2.725,0.32c-0.667,0.111-1.331,0.246-1.973,0.377c-2.458,0.5-4.779,0.973-7.337,0.211l-0.078-0.023
				c-2.232-0.663-3.995-1.186-5.769,0.55l-0.004,0.03c0.008,0.028,0.032,0.05,0.049,0.053c0.311,0.058,0.606,0.17,0.892,0.278
				l0.419,0.158l-0.305,0.153c-2.966,1.488-6.175,1.156-9.279,0.835c-3.072-0.318-6.249-0.646-9.171,0.805
				c-0.03,0.015-0.049,0.037-0.053,0.062c-0.004,0.026,0.009,0.056,0.035,0.08c0.58,0.553,1.272,0.942,2.057,1.155l0.663,0.18
				l-0.678,0.111c-2.42,0.395-4.898,0.645-7.365,0.744l-0.539,0.022c-2.455,0.102-4.993,0.206-7.411-0.326
				c-0.539-0.118-1.108-0.268-1.711-0.427c-3.29-0.865-7.019-1.845-9.07,1.172c-0.016,0.024-0.022,0.052-0.014,0.076
				c0.006,0.021,0.02,0.036,0.043,0.046c1.202,0.579,2.556,0.805,3.865,1.023c0.186,0.031,0.372,0.062,0.557,0.094
				c0.269,0.047,0.535,0.095,0.799,0.143c1.33,0.242,2.587,0.47,3.957,0.404l0.068-0.003c1.427-0.072,2.903-0.147,4.332-0.408
				c0.227-0.042,0.474-0.096,0.734-0.153c0.951-0.209,2.028-0.446,2.921-0.258l0.119,0.025l-0.001,0.122
				c-0.001,0.07,0.044,0.076,0.061,0.079c2.407,0.354,4.712,0.474,6.854,0.355c1.131-0.063,2.243-0.107,3.418,0.036
				c0.515,0.064,1.033,0.149,1.534,0.233c0.502,0.083,1.02,0.169,1.533,0.232c1.01,0.123,2.008,0.089,2.852,0.04
				c0.704-0.036,1.057-0.025,1.442,0.567c0.852,1.317,3.062,1.535,3.719,1.571c0.546,0.029,1.108,0.003,1.651-0.022
				c0.37-0.017,0.753-0.034,1.129-0.035l0.204-0.002c0.824-0.008,2.071-0.021,2.675,0.628c0.278,0.306,0.24,0.789,0.21,1.178
				c-0.007,0.091-0.014,0.178-0.016,0.255c-0.014,0.512,0.074,0.96,0.271,1.37c0.605,1.25,1.778,1.287,2.955,1.141
				c0.861-0.111,1.655-0.172,2.656,0.189c0.871,0.315,1.597,0.915,2.299,1.495c0.108,0.089,0.216,0.178,0.323,0.266
				c0.026,0.021,0.055,0.016,0.075,0.008c0.026-0.011,0.058-0.037,0.063-0.077c0.014-0.113,0.023-0.212,0.031-0.301
				c0.048-0.551,0.102-0.799,0.88-0.897c0.844-0.112,1.744,0.102,2.591,0.349c0.647,0.193,1.271,0.457,1.85,0.715
				c0.102,0.046,0.22,0.093,0.346,0.144c0.613,0.248,1.375,0.557,1.648,1.092c0.432,0.845,1.185,0.923,2.201,0.94
				c1.834,0.031,3.053,0.587,4.077,1.858c0.168,0.21,0.304,0.452,0.415,0.739c0.04,0.103,0.031,0.205-0.028,0.287
				c-0.147,0.205-0.548,0.23-1.146,0.203c-0.057-0.003-0.099-0.004-0.122-0.004c-0.962,0.02-1.815,0.019-2.61-0.002
				c-0.782-0.021-1.567-0.131-2.326-0.237c-0.896-0.125-1.821-0.256-2.731-0.234c-0.654,0.014-1.305,0.122-1.934,0.227
				c-0.895,0.149-1.821,0.302-2.782,0.194c-0.741-0.084-1.463-0.3-2.162-0.509c-0.593-0.178-1.206-0.361-1.821-0.46
				c-0.052-0.007-0.073,0.045-0.079,0.068c-0.188,0.667-0.152,1.199,0.11,1.632c0.571,0.943,2.123,1.267,3.623,1.581
				c1.373,0.287,2.671,0.558,3.121,1.314c0.185,0.31,0.214,0.684,0.087,1.111l-0.018,0.059l-0.055,0.029
				c-0.691,0.372-1.463,0.657-2.359,0.869c-0.009,0.002-0.016,0.029-0.011,0.048c0.491,2.121-1.87,3.369-3.433,4.195l-0.253,0.134
				c-0.227,0.122-0.45,0.246-0.671,0.369c-0.952,0.53-1.85,1.03-2.955,1.267c-1.169,0.251-2.371,0.24-3.533,0.23l-0.4-0.003
				c-1.08-0.004-2.223,0.02-3.312,0.314c-0.784,0.21-1.538,0.692-2.267,1.158c-0.307,0.196-0.596,0.381-0.889,0.548
				c-1.338,0.764-2.778,1.111-4.515,1.098c-0.498-0.006-0.998-0.03-1.482-0.054c-0.914-0.045-1.86-0.093-2.795-0.007
				c-0.026,0.002-0.055,0.03-0.057,0.042c0.053,0.264,0.033,0.452-0.062,0.59c-0.135,0.197-0.379,0.24-0.663,0.291l-0.113,0.02
				c-0.154,0.03-0.309,0.061-0.464,0.093c-0.314,0.063-0.627,0.127-0.943,0.181c-1.1,0.193-2.128,0.132-3.056-0.18
				c-1.004-0.339-1.908-0.92-2.782-1.481c-0.69-0.444-1.404-0.902-2.154-1.231c-0.018-0.008-0.039-0.008-0.057-0.001
				c-0.009,0.003-0.02,0.01-0.025,0.022c-0.689,1.677-2.067,1.324-3.399,0.983c-1.035-0.265-2.106-0.54-2.906,0.098
				c-0.025,0.02-0.029,0.038-0.029,0.049c-0.002,0.029,0.016,0.066,0.046,0.097c0.484,0.473,0.898,1.065,1.299,1.637
				c0.953,1.362,1.852,2.644,3.672,2.563c0.588-0.029,0.89-0.29,0.949-0.823c0.021-0.193,0.032-0.377,0.042-0.553
				c0.047-0.797,0.087-1.485,1.035-1.939l0.121-0.058l0.071,0.114c1.054,1.704,2.836,2.824,4.54,2.854
				c1.573,0.03,2.853-0.661,4.214-1.387c0.489-0.261,0.995-0.53,1.512-0.763c1.631-0.732,3.272-0.528,4.86-0.33
				c0.766,0.095,1.561,0.194,2.345,0.188c1.494-0.009,2.979-0.806,4.234-1.585l0.701-0.435l-0.531,0.688
				c-0.05,0.064-0.099,0.128-0.146,0.197c-0.023,0.034-0.025,0.066-0.007,0.092c0.008,0.01,0.036,0.043,0.098,0.025
				c0.967-0.281,1.804-0.025,2.421,0.738c0.425,0.527,0.822,1.215,0.116,1.867c-0.414,0.387-0.889,0.724-1.348,1.05
				c-0.401,0.285-0.816,0.579-1.185,0.904c-1.884,1.657-3.506,3.597-4.878,5.286c-0.005,0.006-0.018,0.022-0.012,0.053
				c0.006,0.026,0.024,0.049,0.047,0.061c1.196,0.59,1.375,1.421,1.623,2.571c0.147,0.687,0.485,1.246,1.065,1.761
				c0.835,0.745,1.76,0.37,2.741-0.027c0.16-0.065,0.318-0.129,0.475-0.187l0.19-0.071l0.011,0.202
				c0.113,2.067-1.704,3.342-3.031,4.273c-0.886,0.622-1.77,1.338-2.78,2.255c-1.578,1.442-2.387,2.612-2.219,3.211
				c0.067,0.239,0.309,0.402,0.72,0.482l0.133,0.026l-0.013,0.135c-0.181,1.894-1.191,2.703-2.651,3.336
				c-0.967,0.414-2.026,0.995-2.549,2.162c-0.51,1.138-0.702,2.453-0.528,3.609c0.074,0.503,0.298,0.958,0.648,1.316
				c0.161,0.17,0.391,0.259,0.632,0.342c0.081,0.031,0.136,0.057,0.178,0.084l0.201,0.128l-0.203,0.125
				c-0.003,0.022,0.006,0.041,0.011,0.066l0.016,0.073l-0.048,0.056c-0.017,0.019-0.033,0.045-0.045,0.071l0.136-0.042l0.054,0.154
				c0.242,0.659,0.626,1.3,1.082,1.807c0.364,0.408,0.671,0.687,0.996,0.905c0.225,0.153,0.451,0.29,0.693,0.418
				c0.175,0.094,0.292,0.165,0.324,0.289c0.031,0.122-0.035,0.224-0.127,0.365c-0.024,0.036-0.05,0.077-0.08,0.125
				c-0.797,1.279-0.524,2.486,0.748,3.312l0.032,0.021l0.018,0.034c0.327,0.612,0.789,1.13,1.235,1.63
				c0.317,0.355,0.645,0.723,0.921,1.121l0.325,0.469l-0.513-0.25c-0.18-0.088-0.325-0.143-0.469-0.18
				c-0.025-0.006-0.035-0.004-0.046,0.022c-0.011,0.029-0.01,0.083,0.03,0.104l0.152,0.082c0.265,0.142,0.538,0.288,0.788,0.483
				c0.094,0.074,0.165,0.138,0.223,0.203l0.028,0.047c0.073,0.193,0.129,0.395,0.167,0.599l0.007,0.038l-0.012,0.036
				c-0.048,0.143-0.142,0.293-0.307,0.486c-0.352,0.418-0.644,0.901-0.927,1.368l-0.071,0.117c-0.295,0.485-0.639,0.988-1.156,1.384
				c-0.431,0.326-0.924,0.47-1.478,0.612l-0.28,0.072l0.103-0.269c0.148-0.387,0.289-0.777,0.43-1.167
				c0.254-0.704,0.517-1.432,0.824-2.134c-2.748-0.71-5.241-2.763-6.848-4.355l-0.125-0.124l0.142-0.103
				c0.526-0.381,0.993-0.622,1.471-0.759l0.11-0.147l-0.099,0.112c-0.704-0.62-1.372-1.295-2.018-1.949
				c-1.098-1.111-2.234-2.259-3.561-3.144c-0.003,0.001-0.023,0.011-0.029,0.021c-0.544,0.996-1.141,1.506-2.058,1.756
				c-0.27,0.074-0.548,0.126-0.816,0.176c-0.112,0.021-0.223,0.042-0.334,0.064c-0.139,0.031-0.169-0.027-0.533-0.736
				c-0.081-0.158-0.182-0.354-0.206-0.388c-0.016-0.023-0.033-0.022-0.044-0.019c-0.869,0.257-1.834,0.354-2.856,0.458
				c-2.112,0.213-4.295,0.434-5.507,2.175c0.001,0.007,0.015,0.032,0.026,0.036c0.618-0.103,1.162,0.009,1.739,0.128
				c0.142,0.029,0.284,0.059,0.43,0.085l0.205,0.037l-0.101,0.182c-1.553,2.794-5.224,3.004-7.653,3.142
				c-0.372,0.022-0.746,0.039-1.12,0.056c-0.276,0.013-0.552,0.025-0.829,0.04c-0.256,0.022-0.506-0.368-0.9-0.997
				c-0.105-0.168-0.204-0.326-0.258-0.389c-0.536-0.629-1.258-1.007-2.032-1.067c-1.667-0.131-3.219,1.401-4.35,2.519
				c-0.521,0.516-1.007,1.075-1.477,1.615c-0.413,0.475-0.84,0.966-1.284,1.423l-0.926,0.951l0.112-0.184
				c-0.255,0.222-0.477,0.398-0.692,0.552l0.034,0.065l-0.095,0.077c-0.251,0.204-0.508,0.4-0.761,0.594
				c-0.191,0.146-0.38,0.291-0.563,0.436c-0.988,0.778-2.108,1.659-2.803,2.845c-0.004,0.008-0.001,0.03,0.005,0.037
				c1.141,0.804,2.204,1.743,2.23,3.13c0.022,0.95-0.55,1.846-1.056,2.637l-0.175,0.276c-1.053,1.694-1.694,3.233-1.394,5.234
				c0.31,2.071,1.073,4.156,2.208,6.029c0.747,1.238,1.975,2.712,3.587,2.712c0.005,0,0.01,0,0.016,0l0.226-0.002l-0.088,0.209
				c-0.525,1.248-0.921,2.531-0.266,3.461c0.57,0.809,1.928,0.769,2.657,0.746c0.672-0.02,1.354-0.102,2.012-0.181
				c0.694-0.083,1.411-0.169,2.126-0.185c1.112-0.021,2.23,0.044,3.311,0.107c0.811,0.048,1.649,0.098,2.478,0.109
				c2.053,0.037,3.554-0.492,4.588-1.596c1.01-1.079,1.631-3.002,1.476-4.573c-0.02-0.196-0.111-0.423-0.208-0.664
				c-0.192-0.479-0.41-1.023-0.071-1.454c0.383-0.483,0.968-0.85,1.483-1.174c0.118-0.074,0.234-0.147,0.344-0.219
				c0.316-0.206,0.629-0.415,0.943-0.625c0.505-0.338,1.027-0.687,1.552-1.014c1.889-1.181,4.054-2.24,5.787-1.139
				c0.237,0.15,0.367,0.313,0.395,0.497c0.045,0.291-0.168,0.541-0.393,0.806c-0.06,0.07-0.12,0.142-0.177,0.215
				c-0.239,0.312-0.472,0.665-0.73,1.112c-0.265,0.461-0.588,1.179-0.619,1.983c-0.033,0.858,0.195,1.72,0.416,2.554
				c0.144,0.544,0.293,1.107,0.371,1.669c0.242,1.798-0.422,3.151-1.124,4.584c-0.135,0.275-0.273,0.557-0.408,0.847
				c-0.713,1.532-0.627,2.673,0.27,3.59c1.236,1.264,3.071,1.582,4.789,0.835c0.707-0.308,1.363-0.712,1.998-1.104
				c1.138-0.702,2.314-1.427,3.784-1.582c1.556-0.166,3.758-0.203,4.922,1.386c0.62,0.846,0.793,1.97,0.916,3.048
				c0.186,1.573,0.224,3.007,0.116,4.384c-0.099,1.267,0.152,2.49,0.706,3.443c0.301,0.518,0.68,0.962,1.047,1.391
				c0.663,0.776,1.348,1.578,1.521,2.796c0.003,0.024,0.018,0.058,0.042,0.06c0.141,0.016,0.306,0.045,0.487,0.077
				c0.626,0.11,1.482,0.261,1.889-0.045l0.068-0.052l0.079,0.033c0.058,0.024,0.118,0.045,0.182,0.062l0.087,0.023l0.02,0.088
				c0.374,1.621,2.404,2.41,4.149,2.235c1.113-0.112,2.315-0.685,2.35-1.959l0.001-0.045l0.026-0.037
				c1.04-1.474,2.925-2.244,4.323-2.631c0.694-0.192,0.954-0.227,1.354,0.383c0.162,0.249,0.367,0.473,0.563,0.678
				c0.407,0.427,0.97,0.775,1.628,1.005c0.971,0.339,1.879,0.249,2.626-0.26c0.872-0.594,1.422-1.697,1.471-2.952l0.007-0.174
				l0.17,0.033c0.889,0.172,1.426,0.042,1.743-0.421c0.233-0.341,0.274-0.832,0.124-1.502l-0.021-0.094l0.077-0.058
				c0.072-0.054,0.131-0.146,0.173-0.272l-0.002,0l-0.035-0.018c-0.03,0.008-0.054,0.025-0.089,0.052l-0.162,0.12l-0.067-0.19
				c-0.009-0.025-0.016-0.051-0.023-0.077l-0.037-0.126l0.067-0.063l-0.01-0.048l0.02-0.035c0.006-0.013,0.005-0.022-0.001-0.033
				c-0.012-0.023-0.043-0.042-0.074-0.048l-0.324-0.057l0.256-0.206l0.103,0.063l0.002-0.011l-0.074-0.076
				c0.015-0.02,0.009-0.039-0.011-0.055c-0.012-0.01-0.032-0.021-0.046-0.016c-0.148,0.05-0.279,0.131-0.436,0.232l-0.421,0.272
				l0.204-0.458c0.182-0.41,0.428-0.819,0.644-1.18c0.113-0.188,0.22-0.368,0.311-0.534c0.035-0.064,0.071-0.144,0.109-0.228
				c0.162-0.357,0.363-0.801,0.757-0.884c0.475-0.101,0.923-0.242,1.37-0.431c1.269-0.541,2.326-1.518,3.349-2.462
				c0.315-0.291,0.64-0.591,0.964-0.871c1.081-0.934,2.142-1.74,3.153-2.395l0.129-0.083c0.36-0.234,0.768-0.499,1.203-0.548
				l0.026,0.154l0.115,0.076c-0.018,0.031-0.085,0.174-0.148,0.307c-0.063,0.133-0.123,0.259-0.135,0.28
				c-0.229,0.389-0.516,0.752-0.795,1.102l-0.136,0.171c-0.011,0.014-0.015,0.046-0.004,0.073c0.009,0.02,0.018,0.021,0.023,0.022
				c0.563,0.047,1.142,0.035,1.702,0.023c0.561-0.012,1.141-0.024,1.713,0.023c0.076,0.004,0.084-0.038,0.087-0.052
				c0.086-0.458,0.298-0.853,0.503-1.236c0.201-0.374,0.39-0.728,0.471-1.135l0.028-0.142l0.143,0.024
				c0.653,0.11,1.305,0.303,1.936,0.49c0.227,0.067,0.453,0.134,0.678,0.197c0.541,0.15,1.083,0.301,1.632,0.442
				c0.258,0.066,0.52,0.125,0.781,0.184c0.452,0.097,0.468,0.545,0.48,0.873c0.002,0.047,0.003,0.093,0.006,0.137
				c0.001,0.015,0.012,0.031,0.029,0.041c0.006,0.004,0.026,0.015,0.043,0.007c2.411-0.974,5.097-1.689,8.211-2.188
				c1.21-0.195,2.468-0.337,3.845-0.435c0.445-0.034,0.897-0.045,1.335-0.057c0.628-0.016,1.278-0.033,1.908-0.116
				c0.105-0.013,0.207-0.03,0.308-0.047c0.331-0.055,0.673-0.112,1.036-0.032c0.848,0.192,1.707,0.702,2.464,1.151
				c0.118,0.07,0.234,0.139,0.347,0.205c0.371,0.216,0.747,0.458,1.11,0.692c1.379,0.889,2.806,1.808,4.491,1.64
				c0.322-0.032,0.631,0.378,0.907,0.739c0.08,0.105,0.15,0.198,0.206,0.255c0.338,0.351,0.748,0.684,1.289,1.048
				c0.869,0.583,1.891,0.925,2.954,0.988c0.824,0.049,1.549-0.288,2.219-0.635c1.021-0.532,2.165-0.976,3.598-0.637
				c2.003,0.473,3.743,1.949,5.279,3.252l0.155,0.131c0.443,0.377,0.882,0.777,1.307,1.164c0.271,0.247,0.543,0.494,0.817,0.738
				l0.033,0.029l0.012,0.043c0.004,0.014,0.009,0.024,0.019,0.036c0.09,0.102,0.182,0.2,0.272,0.296
				c0.355,0.378,0.69,0.735,0.86,1.288c0.006,0.02,0.046,0.041,0.08,0.037c0.297-0.032,0.588-0.049,0.865-0.051l0.042,0l0.126,0.078
				c0.025,0.012,0.031,0.004,0.043-0.011l0.048-0.064l0.08,0.005c0.683,0.043,1.231,0.227,1.678,0.562
				c0.617,0.464,0.883,1.261,1.097,1.901l0.083,0.246c0.379,1.134,0.736,2.204,1.77,2.851c0.833,0.52,1.864,0.043,2.861-0.419
				c0.493-0.228,0.959-0.443,1.395-0.537c0.781-0.167,1.391,0.764,1.836,1.445c0.092,0.141,0.176,0.269,0.251,0.37
				c0.448,0.602,0.763,0.745,1.53,0.714c0.95-0.044,1.893-0.41,2.804-0.765c0.221-0.086,0.439-0.171,0.655-0.25
				c0.075-0.027,0.163-0.065,0.261-0.107c0.475-0.204,1.193-0.513,1.534-0.064c0.2,0.257,0.497,0.507,0.834,0.7
				c1.199,0.685,2.614,0.859,3.983,1.027c0.475,0.058,0.966,0.119,1.438,0.199c0.658,0.115,0.811,0.585,0.974,1.082
				c0.026,0.079,0.053,0.161,0.082,0.243c0.188,0.526,0.311,1.024,0.375,1.52c0.09,0.684-0.044,1.364-0.174,2.022
				c-0.031,0.157-0.061,0.312-0.089,0.467c-0.389,2.198-0.134,4.261,0.136,6.446l0.005,0.042c0.192,1.559,0.129,2.803-0.199,3.915
				c-0.385,1.317-1.255,2.491-2.04,3.488c-1.21,1.532-2.227,2.959-2.403,4.91c-0.073,0.801-0.108,1.624-0.143,2.419
				c-0.058,1.349-0.119,2.744-0.36,4.098c-0.389,2.166-1.607,4.083-2.821,5.862c0.002-0.003,0.006,0.011,0.012,0.021
				c0.292,0.455,0.534,0.94,0.717,1.438l0.022,0.06l-0.029,0.058c-12.573,25.279-33.613,45.703-59.245,57.511L179.202,240.521z
				 M178.013,209.524c1.195,0,2.374,0.208,3.356,1.024c0.923,0.766,1.449,1.636,1.814,3.003c0.702,2.636,1.04,5.577,1.094,9.535
				c0.02,1.359,0.024,2.688-0.141,4c-0.21,1.667-0.93,3.135-1.677,4.473c-1.305,2.329-2.537,4.528-2.821,7.262
				c-0.037,0.363-0.07,0.747-0.104,1.219c25.446-11.786,46.337-32.094,58.845-57.21c-0.173-0.456-0.398-0.901-0.669-1.324
				c-0.057-0.096-0.079-0.237-0.004-0.346c1.196-1.751,2.395-3.638,2.774-5.745c0.238-1.334,0.298-2.719,0.356-4.058
				c0.035-0.799,0.07-1.625,0.143-2.433c0.184-2.033,1.225-3.498,2.465-5.068c0.768-0.975,1.619-2.121,1.989-3.388
				c0.316-1.072,0.376-2.277,0.189-3.794l-0.005-0.042c-0.273-2.208-0.53-4.293-0.134-6.535c0.028-0.157,0.059-0.315,0.09-0.473
				c0.125-0.634,0.255-1.29,0.171-1.926c-0.061-0.476-0.179-0.953-0.36-1.459c-0.031-0.085-0.058-0.169-0.085-0.251
				c-0.157-0.48-0.261-0.797-0.741-0.881c-0.465-0.079-0.952-0.139-1.424-0.197c-1.398-0.172-2.843-0.349-4.095-1.064
				c-0.262-0.151-0.635-0.408-0.922-0.777c-0.202-0.264-0.79-0.012-1.18,0.156c-0.103,0.044-0.197,0.084-0.276,0.113
				c-0.214,0.079-0.431,0.163-0.65,0.248c-0.933,0.363-1.899,0.738-2.898,0.784c-0.859,0.041-1.278-0.155-1.783-0.834
				c-0.078-0.105-0.165-0.238-0.261-0.385c-0.398-0.608-0.943-1.439-1.524-1.316c-0.404,0.087-0.855,0.296-1.332,0.516
				c-1.02,0.471-2.175,1.006-3.144,0.401c-1.124-0.704-1.516-1.876-1.895-3.01l-0.082-0.246c-0.201-0.602-0.45-1.35-0.993-1.757
				c-0.389-0.292-0.851-0.451-1.45-0.498c-0.101,0.082-0.237,0.094-0.365,0.028l-0.063-0.039c-0.255,0.003-0.521,0.02-0.791,0.049
				c-0.154,0.02-0.346-0.069-0.399-0.247c-0.15-0.486-0.448-0.803-0.792-1.171c-0.092-0.099-0.187-0.199-0.28-0.305
				c-0.029-0.033-0.051-0.069-0.067-0.107c-0.266-0.236-0.529-0.475-0.791-0.715c-0.423-0.385-0.86-0.783-1.299-1.157l-0.155-0.131
				c-1.51-1.281-3.221-2.733-5.154-3.189c-1.339-0.317-2.422,0.106-3.392,0.611c-0.707,0.367-1.474,0.719-2.374,0.668
				c-1.116-0.066-2.189-0.425-3.102-1.038c-0.56-0.376-0.985-0.722-1.338-1.089c-0.064-0.067-0.14-0.166-0.228-0.281
				c-0.156-0.204-0.476-0.624-0.632-0.624c-0.003,0-0.005,0-0.008,0c-1.789,0.179-3.26-0.769-4.682-1.686
				c-0.36-0.232-0.732-0.472-1.098-0.685c-0.114-0.066-0.23-0.136-0.35-0.206c-0.739-0.438-1.576-0.935-2.377-1.117
				c-0.307-0.068-0.605-0.017-0.921,0.035c-0.105,0.018-0.211,0.035-0.319,0.049c-0.644,0.085-1.302,0.102-1.938,0.118
				c-0.434,0.011-0.883,0.022-1.321,0.056c-1.369,0.097-2.618,0.238-3.819,0.432c-3.092,0.495-5.757,1.205-8.146,2.169
				c-0.099,0.042-0.217,0.029-0.314-0.031c-0.098-0.062-0.161-0.164-0.168-0.275c-0.003-0.046-0.005-0.095-0.007-0.145
				c-0.012-0.339-0.035-0.547-0.246-0.592c-0.266-0.06-0.53-0.121-0.791-0.187c-0.551-0.142-1.094-0.292-1.637-0.443
				c-0.227-0.063-0.454-0.13-0.683-0.198c-0.577-0.171-1.173-0.347-1.763-0.457c-0.102,0.392-0.287,0.738-0.468,1.075
				c-0.203,0.379-0.395,0.738-0.473,1.15c-0.036,0.191-0.201,0.311-0.405,0.294c-0.556-0.046-1.128-0.034-1.682-0.021
				c-0.568,0.012-1.154,0.025-1.735-0.024c-0.122-0.012-0.222-0.087-0.271-0.202c-0.053-0.126-0.036-0.273,0.045-0.374l0.136-0.172
				c0.272-0.343,0.553-0.697,0.773-1.07c0.015-0.026,0.066-0.137,0.122-0.253c0.007-0.015,0.014-0.029,0.02-0.043
				c-0.271,0.097-0.54,0.272-0.785,0.431l-0.13,0.084c-0.998,0.647-2.048,1.445-3.119,2.369c-0.32,0.277-0.643,0.576-0.956,0.865
				c-1.041,0.962-2.117,1.956-3.434,2.518c-0.465,0.197-0.931,0.344-1.425,0.449c-0.246,0.051-0.413,0.42-0.547,0.715
				c-0.041,0.091-0.08,0.177-0.118,0.247c-0.093,0.17-0.202,0.353-0.317,0.545c-0.136,0.228-0.284,0.474-0.419,0.726
				c0.025-0.01,0.05-0.019,0.075-0.028c0.153-0.052,0.33,0.018,0.418,0.168c0.053,0.089,0.061,0.189,0.028,0.276
				c0.033,0.029,0.061,0.064,0.082,0.103c0.041,0.076,0.05,0.16,0.029,0.241c0.094-0.003,0.189,0.032,0.258,0.103
				c0.082,0.084,0.109,0.2,0.072,0.309c-0.049,0.145-0.116,0.263-0.202,0.351c0.146,0.712,0.084,1.253-0.188,1.649
				c-0.466,0.681-1.261,0.676-1.878,0.576c-0.095,1.278-0.682,2.396-1.592,3.016c-0.828,0.564-1.828,0.666-2.892,0.295
				c-0.703-0.246-1.306-0.619-1.745-1.08c-0.206-0.215-0.421-0.452-0.597-0.72c-0.301-0.459-0.398-0.432-1.025-0.259
				c-1.339,0.371-3.139,1.101-4.133,2.479c-0.057,1.203-1.054,2.045-2.616,2.201c-1.844,0.183-3.988-0.655-4.448-2.379
				c-0.02-0.006-0.04-0.013-0.059-0.02c-0.522,0.321-1.4,0.167-2.049,0.052c-0.174-0.031-0.333-0.059-0.463-0.074
				c-0.157-0.012-0.286-0.142-0.309-0.316c-0.161-1.13-0.788-1.865-1.453-2.642c-0.375-0.44-0.764-0.894-1.078-1.435
				c-0.584-1.005-0.849-2.289-0.745-3.616c0.107-1.357,0.069-2.772-0.114-4.326c-0.119-1.039-0.284-2.118-0.86-2.906
				c-1.073-1.465-3.168-1.424-4.65-1.266c-1.403,0.148-2.498,0.824-3.659,1.539c-0.644,0.397-1.309,0.808-2.035,1.123
				c-1.835,0.799-3.797,0.454-5.121-0.9c-0.982-1.004-1.089-2.288-0.328-3.925c0.135-0.292,0.274-0.575,0.41-0.853
				c0.712-1.451,1.326-2.704,1.096-4.412c-0.075-0.544-0.222-1.098-0.364-1.633c-0.227-0.855-0.461-1.739-0.426-2.642
				c0.034-0.864,0.377-1.63,0.659-2.12c0.266-0.459,0.504-0.823,0.752-1.145c0.06-0.077,0.123-0.153,0.186-0.226
				c0.18-0.212,0.349-0.411,0.325-0.567c-0.014-0.093-0.102-0.191-0.26-0.291c-1.593-1.013-3.659,0.007-5.469,1.14
				c-0.522,0.325-1.042,0.672-1.545,1.009c-0.314,0.21-0.629,0.42-0.945,0.627c-0.112,0.073-0.229,0.147-0.348,0.222
				c-0.519,0.326-1.056,0.664-1.408,1.106c-0.232,0.295-0.064,0.714,0.114,1.158c0.1,0.249,0.203,0.507,0.228,0.745
				c0.163,1.649-0.491,3.67-1.555,4.806c-1.094,1.168-2.665,1.722-4.81,1.69c-0.835-0.012-1.677-0.062-2.491-0.11
				c-1.075-0.063-2.188-0.128-3.287-0.107c-0.7,0.015-1.41,0.101-2.097,0.183c-0.665,0.08-1.353,0.163-2.039,0.183
				c-0.785,0.023-2.247,0.067-2.91-0.873c-0.702-0.996-0.363-2.285,0.151-3.549c-1.649-0.114-2.883-1.596-3.639-2.849
				c-1.155-1.906-1.932-4.029-2.248-6.139c-0.313-2.092,0.348-3.686,1.436-5.436l0.177-0.279c0.482-0.755,1.029-1.611,1.009-2.471
				c-0.023-1.255-1.026-2.133-2.107-2.896c-0.129-0.093-0.169-0.289-0.087-0.428c0.724-1.235,1.867-2.135,2.876-2.928
				c0.183-0.146,0.374-0.291,0.566-0.439c0.228-0.175,0.46-0.352,0.688-0.535c0.005-0.071,0.043-0.136,0.109-0.183
				c0.25-0.176,0.507-0.383,0.811-0.652c0.375-0.389,0.657-0.773,0.853-1.164c0.044-0.091,0.153-0.131,0.246-0.087
				c0.034,0.016,0.062,0.04,0.081,0.069c0.266-0.293,0.526-0.592,0.78-0.885c0.474-0.545,0.963-1.108,1.476-1.615
				c1.189-1.175,2.787-2.757,4.6-2.621c0.854,0.066,1.648,0.482,2.236,1.171c0.068,0.08,0.163,0.232,0.284,0.424
				c0.166,0.266,0.513,0.818,0.644,0.859c0.264-0.016,0.541-0.028,0.818-0.041c0.372-0.017,0.745-0.034,1.116-0.056
				c2.929-0.167,5.899-0.525,7.305-2.81c-0.076-0.015-0.152-0.031-0.228-0.046c-0.549-0.113-1.067-0.219-1.639-0.126
				c-0.119,0.02-0.239-0.041-0.308-0.153c-0.07-0.113-0.071-0.249-0.001-0.348c1.29-1.854,3.543-2.081,5.722-2.301
				c1.008-0.102,1.959-0.198,2.804-0.448c0.144-0.039,0.289,0.014,0.371,0.136c0.033,0.046,0.104,0.183,0.226,0.422
				c0.089,0.173,0.227,0.442,0.299,0.562c0.083-0.016,0.165-0.032,0.248-0.047c0.263-0.049,0.534-0.1,0.793-0.17
				c0.969-0.264,1.451-0.836,1.877-1.615c0.049-0.082,0.13-0.14,0.22-0.161c0.082-0.019,0.165-0.005,0.232,0.039
				c1.353,0.902,2.499,2.062,3.608,3.183c0.643,0.65,1.307,1.322,2.003,1.935c0.086,0.077,0.122,0.192,0.096,0.307
				c-0.027,0.116-0.112,0.208-0.222,0.239c-0.4,0.115-0.795,0.311-1.233,0.612c1.584,1.547,3.975,3.479,6.593,4.181
				c0.075,0.02,0.141,0.074,0.179,0.15c0.037,0.073,0.042,0.155,0.015,0.225c-0.305,0.699-0.566,1.422-0.819,2.121
				c-0.109,0.301-0.217,0.601-0.329,0.901c0.409-0.114,0.777-0.247,1.092-0.486c0.477-0.366,0.802-0.842,1.082-1.302l0.071-0.117
				c0.288-0.477,0.587-0.969,0.955-1.406c0.124-0.146,0.199-0.256,0.239-0.353c-0.033-0.164-0.078-0.326-0.135-0.482
				c-0.043-0.045-0.097-0.093-0.166-0.147c-0.23-0.179-0.48-0.313-0.745-0.455l-0.153-0.082c-0.165-0.089-0.236-0.293-0.166-0.475
				c0.064-0.165,0.223-0.247,0.396-0.204c0.009,0.002,0.019,0.005,0.028,0.007c-0.185-0.228-0.382-0.45-0.587-0.68
				c-0.45-0.504-0.914-1.025-1.257-1.654c-1.38-0.914-1.682-2.294-0.807-3.699c0.03-0.049,0.059-0.092,0.083-0.13
				c0.03-0.047,0.064-0.098,0.079-0.129c-0.027-0.021-0.082-0.054-0.166-0.1c-0.251-0.134-0.487-0.276-0.72-0.434
				c-0.345-0.232-0.67-0.526-1.051-0.953c-0.465-0.516-0.845-1.139-1.103-1.806c-0.068-0.014-0.132-0.051-0.179-0.107
				c-0.08-0.095-0.093-0.225-0.034-0.338c0.009-0.02,0.021-0.04,0.033-0.06c-0.011-0.046-0.011-0.093,0-0.137
				c-0.265-0.093-0.522-0.198-0.722-0.408c-0.393-0.402-0.645-0.914-0.729-1.48c-0.183-1.21,0.018-2.586,0.551-3.774
				c0.564-1.26,1.683-1.877,2.703-2.314c1.608-0.695,2.286-1.506,2.458-2.96c-0.45-0.116-0.725-0.339-0.816-0.664
				c-0.259-0.925,1.111-2.42,2.306-3.512c1.021-0.926,1.913-1.65,2.81-2.279c1.581-1.109,2.892-2.167,2.909-3.806
				c-0.09,0.035-0.18,0.072-0.271,0.109c-0.974,0.394-2.078,0.841-3.051-0.027c-0.63-0.559-0.998-1.169-1.159-1.921
				c-0.239-1.107-0.396-1.839-1.463-2.366c-0.105-0.052-0.182-0.151-0.207-0.265c-0.024-0.108,0.003-0.219,0.072-0.304
				c1.38-1.699,3.011-3.65,4.913-5.322c0.381-0.335,0.802-0.634,1.209-0.923c0.451-0.32,0.918-0.651,1.318-1.025
				c0.426-0.394,0.386-0.803-0.145-1.461c-0.536-0.663-1.264-0.883-2.106-0.639c-0.162,0.048-0.328-0.006-0.423-0.136
				c-0.042-0.057-0.064-0.123-0.069-0.191c-1.19,0.704-2.55,1.349-3.94,1.356c-0.802,0.004-1.609-0.094-2.384-0.19
				c-1.618-0.201-3.146-0.391-4.701,0.306c-0.508,0.228-1.009,0.495-1.494,0.754c-1.334,0.712-2.715,1.437-4.359,1.422
				c-1.764-0.031-3.601-1.156-4.715-2.879c-0.675,0.373-0.705,0.88-0.749,1.627c-0.011,0.181-0.022,0.37-0.043,0.569
				c-0.076,0.686-0.491,1.052-1.232,1.087c-1.983,0.101-2.973-1.321-3.931-2.689c-0.393-0.561-0.799-1.142-1.265-1.597
				c-0.092-0.093-0.14-0.211-0.133-0.326c0.006-0.103,0.056-0.197,0.141-0.265c0.916-0.73,2.06-0.437,3.166-0.154
				c1.32,0.338,2.459,0.63,3.048-0.806c0.034-0.084,0.101-0.151,0.19-0.187c0.093-0.037,0.199-0.036,0.29,0.006
				c0.77,0.338,1.494,0.803,2.194,1.253c0.859,0.552,1.747,1.123,2.716,1.45c0.881,0.297,1.86,0.354,2.91,0.169
				c0.313-0.054,0.624-0.117,0.935-0.179c0.156-0.032,0.311-0.063,0.467-0.093l0.117-0.021c0.226-0.04,0.405-0.072,0.469-0.165
				c0.045-0.066,0.051-0.188,0.016-0.363c-0.018-0.082,0.002-0.17,0.057-0.245c0.062-0.085,0.163-0.144,0.265-0.153
				c0.957-0.087,1.913-0.04,2.838,0.006c0.481,0.024,0.978,0.049,1.47,0.054c1.694,0.019,3.074-0.322,4.364-1.059
				c0.287-0.164,0.573-0.347,0.876-0.54c0.748-0.478,1.521-0.973,2.35-1.195c1.125-0.304,2.29-0.33,3.391-0.324l0.401,0.003
				c1.146,0.009,2.331,0.02,3.468-0.223c1.061-0.228,1.941-0.718,2.872-1.237c0.222-0.124,0.446-0.249,0.675-0.371l0.255-0.135
				c1.481-0.783,3.721-1.967,3.281-3.863c-0.037-0.158,0.04-0.359,0.231-0.406c0.848-0.201,1.579-0.467,2.232-0.813
				c0.085-0.322,0.06-0.588-0.074-0.814c-0.384-0.644-1.619-0.902-2.926-1.175c-1.563-0.327-3.178-0.664-3.817-1.718
				c-0.303-0.501-0.351-1.128-0.143-1.864c0.05-0.196,0.219-0.314,0.414-0.285c0.634,0.102,1.257,0.288,1.859,0.468
				c0.686,0.206,1.395,0.418,2.11,0.499c0.921,0.103,1.785-0.04,2.7-0.192c0.64-0.106,1.301-0.216,1.976-0.231
				c0.93-0.022,1.872,0.111,2.779,0.237c0.751,0.105,1.527,0.213,2.292,0.234c0.79,0.021,1.638,0.022,2.594,0.002
				c0.025,0,0.076,0.001,0.143,0.004c0.726,0.033,0.864-0.044,0.89-0.079c-0.107-0.265-0.228-0.481-0.376-0.666
				c-0.975-1.21-2.091-1.716-3.85-1.746c-0.898-0.016-1.915-0.033-2.462-1.103c-0.222-0.436-0.957-0.734-1.494-0.951
				c-0.129-0.052-0.25-0.101-0.355-0.148c-0.569-0.253-1.183-0.513-1.813-0.701c-0.815-0.238-1.678-0.444-2.469-0.339
				c-0.573,0.072-0.579,0.146-0.622,0.627c-0.008,0.092-0.017,0.196-0.032,0.311c-0.016,0.139-0.11,0.261-0.246,0.317
				c-0.129,0.053-0.27,0.034-0.376-0.052c-0.109-0.088-0.217-0.178-0.326-0.268c-0.682-0.564-1.388-1.147-2.21-1.445
				c-0.858-0.31-1.521-0.301-2.517-0.173c-1.226,0.152-2.573,0.116-3.262-1.308c-0.218-0.455-0.316-0.948-0.3-1.507
				c0.002-0.082,0.009-0.174,0.017-0.271c0.026-0.331,0.058-0.744-0.132-0.953c-0.513-0.552-1.68-0.54-2.452-0.531l-0.206,0.002
				c-0.37,0-0.749,0.018-1.116,0.035c-0.55,0.025-1.118,0.051-1.681,0.022c-0.888-0.048-3.05-0.31-3.953-1.706
				c-0.296-0.454-0.503-0.465-1.176-0.431c-0.855,0.05-1.87,0.085-2.904-0.041c-0.519-0.064-1.041-0.15-1.545-0.234
				c-0.498-0.083-1.014-0.168-1.522-0.231c-1.15-0.14-2.248-0.096-3.365-0.035c-2.161,0.12-4.488-0.001-6.915-0.358
				c-0.147-0.022-0.255-0.117-0.297-0.248c-0.814-0.138-1.811,0.081-2.696,0.276c-0.263,0.058-0.514,0.113-0.744,0.155
				c-1.448,0.264-2.933,0.34-4.37,0.412l-0.068,0.003c-1.404,0.069-2.678-0.163-4.025-0.408c-0.263-0.048-0.528-0.096-0.796-0.142
				c-0.184-0.032-0.37-0.063-0.556-0.094c-1.33-0.222-2.706-0.451-3.942-1.047c-0.1-0.045-0.173-0.129-0.203-0.234
				c-0.031-0.108-0.012-0.226,0.053-0.325c2.171-3.192,6.176-2.139,9.394-1.294c0.6,0.158,1.166,0.306,1.699,0.424
				c2.38,0.524,4.899,0.42,7.335,0.32l0.539-0.022c2.251-0.09,4.511-0.307,6.728-0.646c-0.596-0.24-1.131-0.585-1.598-1.03
				c-0.097-0.091-0.144-0.215-0.125-0.34c0.018-0.123,0.096-0.227,0.215-0.286c3-1.489,6.22-1.157,9.334-0.835
				c2.951,0.305,5.999,0.62,8.802-0.655c-0.205-0.075-0.405-0.14-0.612-0.178c-0.13-0.023-0.24-0.125-0.281-0.26
				c-0.037-0.122-0.007-0.246,0.081-0.331c1.899-1.858,3.828-1.286,6.062-0.623l0.078,0.023c2.487,0.74,4.773,0.275,7.192-0.218
				c0.644-0.131,1.311-0.267,1.983-0.379c0.588-0.099,1.207-0.18,1.905-0.249c-0.307-0.08-0.615-0.16-0.923-0.239
				c-7.26-1.314-14.719-1.981-22.159-1.981c-37.587,0-72.68,16.793-96.299,46.082c0.582,1.091,0.833,2.389,0.982,3.442
				c1.195-0.297,1.614-0.961,1.4-2.195c-0.022-0.126-0.048-0.256-0.075-0.389c-0.136-0.682-0.29-1.456-0.005-2.124
				c0.386-0.91,1.524-1.605,2.61-1.574c0.347,0.008,0.673,0.042,0.989,0.075c0.905,0.093,1.686,0.174,2.569-0.382
				c0.089-0.054,0.199-0.07,0.296-0.044c0.084,0.023,0.151,0.075,0.191,0.149c0.804,1.507,0.842,2.793,0.115,3.932
				c-0.591,0.927-1.646,1.638-3.224,2.172c-0.35,0.636-0.277,1.312-0.2,2.027c0.046,0.424,0.093,0.862,0.05,1.302
				c-0.092,0.921-0.517,1.703-1.23,2.263c-0.631,0.494-1.296,0.583-1.921,0.605c-0.701,0.027-2.377,0.208-2.773,1.291
				c-0.117,0.319-0.138,0.682-0.16,1.066c-0.032,0.558-0.066,1.135-0.411,1.601c-0.434,0.59-1.166,0.857-1.812,1.093l-0.084,0.031
				c-0.106,0.039-0.213,0.075-0.32,0.112c-0.263,0.091-0.535,0.185-0.787,0.3c-0.342,0.153-0.435,0.605-0.495,1.017
				c-0.056,0.387-0.063,0.788-0.071,1.175c-0.006,0.327-0.013,0.666-0.048,1.001c-0.091,0.892-0.352,1.554-0.797,2.023
				c-0.34,0.355-0.653,0.605-0.984,0.787c-0.393,0.213-0.338,0.454-0.176,0.982c0.023,0.075,0.047,0.152,0.069,0.232
				c0.099,0.356,0.227,0.734,0.362,1.134c0.548,1.625,1.169,3.467,0.324,4.981c-0.205,0.366-0.47,0.711-0.727,1.044
				c-0.426,0.553-0.866,1.125-1.022,1.793c-0.212,0.909-0.067,2.018,0.441,3.391c0.078,0.211,0.156,0.42,0.234,0.628
				c0.502,1.337,0.979,2.609,1.202,3.984c0.012-0.034,0.025-0.068,0.038-0.102c0.327-0.882,0.664-1.794,0.794-2.741
				c0.012-0.104,0.085-0.201,0.191-0.252c0.104-0.049,0.221-0.045,0.31,0.011c1.127,0.713,2.125,1.105,3.339,1.313
				c0.121,0.019,0.229,0.116,0.261,0.236c0.161,0.601,0.458,1.162,0.746,1.704c0.25,0.472,0.508,0.958,0.683,1.48
				c0.056-0.034,0.111-0.068,0.167-0.101c0.203-0.123,0.413-0.25,0.609-0.391c0.102-0.076,0.233-0.082,0.334-0.017
				c0.1,0.065,0.148,0.187,0.122,0.312c-0.331,1.705-0.368,3.497-0.106,5.178c0.107,0.687,0.139,0.698,0.67,0.888l0.188,0.067
				c0.283,0.103,0.58,0.286,0.816,0.502c1.446,1.332,1.681,3.54,1.87,5.314c0.013,0.116-0.011,0.202-0.064,0.265
				c-0.053,0.063-0.128,0.099-0.219,0.105c-0.064,0.004-0.144,0.004-0.229,0.004c-0.129,0.001-0.394-0.002-0.459,0.042
				c0.01,0.006,0.031,0.063,0.138,0.179c0.221,0.237,0.488,0.514,0.791,0.765c0.36,0.298,0.746,0.578,1.118,0.85
				c0.263,0.191,0.525,0.382,0.782,0.581c0.679,0.522,1.191,1.007,1.61,1.524c0.039,0.047,0.077,0.115,0.117,0.186
				c0.043,0.077,0.132,0.234,0.181,0.255c0-0.004,0.025-0.02,0.064-0.079c0.168-0.251,0.321-0.432,0.531-0.626
				c0.105-0.105,0.285-0.102,0.398,0.009c1.094,1.171,2.495,3.002,2.081,5.423c-0.08,0.47-0.08,0.47,0.304,0.614
				c0.056,0.021,0.117,0.044,0.185,0.071c0.47,0.186,0.843,0.356,1.173,0.533c0.523,0.282,1.044,0.605,1.606,0.995
				c-1.211-1.91-2.315-3.853-3.334-5.683c-1.249-2.242-2.683-4.333-3.928-6.117c-0.576-0.821-1.23-1.752-1.654-2.755
				c-0.098-0.229-0.21-0.46-0.323-0.694c-0.261-0.538-0.53-1.095-0.652-1.679c-0.202-0.975,0.014-2.034,0.222-3.058
				c0.097-0.479,0.189-0.931,0.238-1.364c0.014-0.154,0.109-0.273,0.243-0.299c0.424-0.073,0.865-0.099,1.381-0.081
				c-0.009-0.063-0.018-0.126-0.028-0.188c-0.04-0.259-0.081-0.526-0.058-0.812c0.01-0.113,0.073-0.212,0.169-0.264
				c0.092-0.051,0.201-0.052,0.297-0.002c1.862,1.009,2.27,2.854,2.664,4.64c0.215,0.974,0.438,1.981,0.895,2.836
				c0.397,0.745,0.931,1.131,1.589,1.149c0.066,0.003,0.168-0.012,0.276-0.027c0.242-0.034,0.491-0.068,0.657,0.019
				c0.393,0.206,0.816,0.644,1.101,0.975c0.45,0.52,1.03,1.315,0.865,2.204c-0.032,0.171-0.093,0.324-0.146,0.459
				c-0.064,0.162-0.125,0.315-0.085,0.392c0.022,0.043,0.096,0.107,0.319,0.162c0.451,0.112,0.903,0.174,1.444,0.232
				c0.164,0.02,0.274,0.182,0.275,0.322c0.004,0.119-0.039,0.292-0.085,0.474c-0.035,0.142-0.098,0.395-0.087,0.495
				c0.015-0.004,0.038-0.012,0.07-0.027l0.033-0.016c0.252-0.121,0.512-0.248,0.841-0.153c0.148,0.043,0.245,0.166,0.248,0.314
				c0.026,1.242,1.585,2.385,2.724,3.219c0.213,0.157,0.411,0.301,0.58,0.434c0.232,0.182,0.476,0.365,0.725,0.552
				c0.763,0.573,1.552,1.165,2.194,1.867c0.356,0.153,0.755,0.341,1.052,0.635c0.124,0.122,0.219,0.264,0.311,0.402
				c0.238,0.358,0.37,0.522,0.726,0.357c0.094-0.045,0.203-0.04,0.297,0.013c0.104,0.059,0.174,0.168,0.185,0.284
				c0.166,1.498,0.613,2.904,1.407,4.422l0.16,0.306c0.573,1.093,1.165,2.224,1.511,3.44c0.524,1.852,0.261,3.278-0.371,5.117
				c-0.028,0.083-0.059,0.17-0.091,0.26c-0.238,0.669-0.533,1.501-0.257,2.114c0.451,1,1.983,1.309,2.621,1.395
				c1.482,0.199,2.961-0.253,4.391-0.69c0.765-0.234,1.556-0.475,2.338-0.614c2.191-0.389,4.09-0.036,5.975,1.107
				c0.206,0.125,0.423,0.272,0.653,0.428c0.723,0.49,1.542,1.045,2.307,1.079c1.059,0.041,1.972-0.779,2.794-1.682l0.11-0.121
				c0.521-0.576,1.112-1.229,1.88-1.531c0.593-0.234,1.293-0.387,2.201-0.481c2.201-0.236,7.51-0.419,9.236,2.968
				c0.059,0.123,0.036,0.289-0.052,0.39c-0.264,0.308-0.407,0.652-0.558,1.016c-0.022,0.053-0.044,0.106-0.067,0.159
				c1.482,0.058,2.935,0.392,4.433,1.019c0.386,0.162,0.768,0.333,1.152,0.505c1.176,0.527,2.392,1.072,3.677,1.313
				c2.554,0.477,5.266,0.674,7.841,0.569c0.559-0.022,1.192-0.047,1.792-0.174c0.092-0.02,0.243-0.09,0.389-0.158
				c0.274-0.127,0.534-0.246,0.723-0.218c0.526,0.085,1.113,0.463,1.585,0.767c0.095,0.061,0.186,0.12,0.272,0.173
				c0.715,0.434,1.395,0.898,2.019,1.379c2.89,2.222,5.202,4.578,6.875,7.005c1.523-0.931,3.057-0.744,4.687,0.566
				c0.168,0.134,0.336,0.277,0.505,0.421c0.541,0.461,1.1,0.938,1.741,1.183c0.926,0.345,1.836,0.031,2.865-0.983
				c0.08-0.081,0.18-0.125,0.289-0.119c0.102,0.004,0.197,0.053,0.267,0.138c0.071,0.089,0.148,0.19,0.233,0.301
				c0.669,0.871,1.915,2.494,2.983,2.257c0.682-0.149,1.08-1.043,1.371-1.696l0.093-0.207c0.078-0.172,0.156-0.349,0.236-0.528
				c0.461-1.042,0.975-2.207,1.8-3.031c-0.073-0.034-0.129-0.099-0.151-0.186c-0.042-0.16,0.045-0.313,0.201-0.355
				c0.262-0.07,0.534-0.112,0.831-0.126c0.19-0.103,0.393-0.189,0.619-0.263c0.158-0.049,0.312,0.002,0.405,0.135
				c0.045,0.064,0.069,0.139,0.07,0.212c2.314,0.448,4.473,2.411,5.307,3.248c1.349,1.352,3.39,3.908,2.143,6.031
				c1.164,0.667,2.253,1.908,3.004,3.434c0.455,0.925,1.406,3.193,0.422,4.281c-0.244,0.274-0.663,0.437-1.032,0.58
				c-0.107,0.042-0.21,0.081-0.3,0.121c-0.176,0.078-0.354,0.156-0.531,0.233c-0.575,0.251-1.17,0.51-1.733,0.801
				c-1.528,0.787-2.027,2.408-2.509,3.977c-0.093,0.302-0.186,0.604-0.285,0.898c-0.227,0.68-0.502,1.353-0.769,2.004
				c-0.511,1.25-1.04,2.543-1.235,3.915c-0.22,1.521-0.261,3.253-0.129,5.45c0.028,0.465,0.067,0.932,0.105,1.4
				c0.103,1.243,0.21,2.528,0.103,3.794c-0.077,0.916-0.282,2.197-1.162,3.02c2.861,1.289,4.978,2.672,6.646,4.341
				c0.87,0.872,1.687,1.816,2.476,2.728c0.84,0.97,1.708,1.973,2.638,2.887c1.697,1.665,3.62,3.552,5.071,5.726
				c0.999,1.505,2.055,3.451,1.456,5.263c1.497,0.346,2.918,0.945,4.293,1.525c0.484,0.204,0.969,0.409,1.458,0.603l0.184,0.074
				c1.05,0.421,2.137,0.857,3.229,0.925c0.84,0.053,1.653-0.013,2.514-0.082l0.392-0.031
				C177.312,209.542,177.663,209.524,178.013,209.524z"/>
		</g>
	</g>
	<path style="opacity:0.21;fill:#FFFFFF;" d="M22.758,131.994c0-65.175,52.835-118.01,118.01-118.01
		c12.07,0,23.716,1.814,34.682,5.181c-14.074-5.927-29.537-9.204-45.766-9.204c-65.175,0-118.01,52.835-118.01,118.01
		c0,53.105,35.079,98.016,83.328,112.83C52.557,222.926,22.758,180.94,22.758,131.994z"/>
</g>
</svg>
