<svg width="971" height="629" viewBox="0 0 971 629" fill="none" xmlns="http://www.w3.org/2000/svg">
<g opacity="0.6">
<path opacity="0.5" d="M953.262 273.972C927.518 232.395 872.957 210.117 871.531 147.814C870.991 124.22 886.409 105.264 879.471 82.1309C832.921 -73.0551 613.033 33.2999 518.063 66.0979C478.518 79.7549 431.207 94.9669 388.687 92.9729C339.738 90.6769 294.26 63.8059 245.807 58.7639C230.88 57.2109 216.933 58.5429 203.891 62.4069C154.999 76.8939 111.83 131.294 95.5741 191.732C82.3971 240.725 99.2331 289.089 78.5421 337.065C56.4881 388.201 13.0571 423.72 2.11512 482.756C-11.0179 553.613 39.1591 615.232 93.0591 617.159C127.367 618.386 190.961 612.046 220.106 587.56C255.595 557.745 290.474 555.784 331.847 556.926C410.582 559.1 489.314 579.594 567.034 594.186C633.63 606.689 699.269 625.205 766.762 627.556C816.329 629.283 858.393 630.059 885.214 567.785C917.271 493.352 1007.27 361.187 953.262 273.972Z" fill="url(#paint0_linear_37_315)"/>
<path opacity="0.5" d="M917.523 286.604C899.279 258.335 854.434 255.71 827.098 239.647C776.628 209.99 823.412 160.254 809.477 115.994C798.224 80.2688 760.907 46.2378 721.837 52.6698C694.177 57.2228 671.072 73.4908 645.852 84.5018C621.547 95.1138 595.23 101.581 569.458 107.523C512.698 120.611 453.512 128.55 395.174 125.925C349.886 123.887 307.809 100.032 262.98 95.5558C249.17 94.1768 236.266 95.3598 224.199 98.7898C178.964 111.651 139.023 159.944 123.983 213.596C111.791 257.089 127.368 300.023 108.225 342.613C87.8211 388.008 47.6381 419.539 37.5141 471.948C25.3631 534.85 71.7881 589.551 121.656 591.262C153.398 592.351 212.235 586.723 239.202 564.986C272.037 538.519 304.307 536.778 342.586 537.791C415.432 539.721 488.276 557.914 560.183 570.868C621.798 581.968 682.528 598.404 744.974 600.491C790.834 602.024 829.752 602.713 854.567 547.43C884.224 481.355 967.486 364.029 917.523 286.604Z" fill="url(#paint1_linear_37_315)"/>
</g>
<path d="M893.612 302.357C893.233 302.357 892.871 302.141 892.703 301.774C892.473 301.272 892.693 300.678 893.195 300.448C894.384 299.902 895.582 299.322 896.755 298.722C897.247 298.471 897.849 298.665 898.1 299.158C898.351 299.65 898.156 300.252 897.664 300.503C896.467 301.115 895.244 301.708 894.029 302.265C893.893 302.328 893.751 302.357 893.612 302.357Z" fill="#E992EC"/>
<path d="M853.34 311.122C852.812 311.122 852.284 311.118 851.758 311.109C851.206 311.1 850.765 310.645 850.774 310.093C850.783 309.541 851.208 309.124 851.79 309.109C854.477 309.151 857.213 309.081 859.91 308.896C860.459 308.857 860.938 309.274 860.976 309.825C861.014 310.376 860.598 310.853 860.047 310.891C857.822 311.044 855.566 311.122 853.34 311.122ZM838.499 309.966C838.447 309.966 838.395 309.962 838.343 309.954C835.619 309.527 832.883 308.976 830.212 308.316C829.676 308.184 829.349 307.642 829.481 307.106C829.613 306.569 830.157 306.241 830.692 306.375C833.307 307.02 835.986 307.56 838.653 307.978C839.199 308.064 839.572 308.575 839.486 309.121C839.408 309.614 838.983 309.966 838.499 309.966ZM873.182 309.075C872.718 309.075 872.303 308.751 872.204 308.279C872.091 307.739 872.438 307.209 872.979 307.096C875.625 306.544 878.275 305.873 880.852 305.102C881.381 304.944 881.938 305.244 882.097 305.773C882.255 306.302 881.955 306.859 881.426 307.018C878.794 307.806 876.09 308.491 873.388 309.054C873.319 309.068 873.25 309.075 873.182 309.075ZM817.76 304.26C817.636 304.26 817.51 304.237 817.388 304.188C814.834 303.165 812.292 302.017 809.83 300.777C809.337 300.528 809.138 299.927 809.387 299.434C809.635 298.941 810.237 298.742 810.73 298.991C813.141 300.205 815.631 301.329 818.132 302.331C818.645 302.537 818.894 303.119 818.688 303.631C818.532 304.022 818.157 304.26 817.76 304.26ZM798.818 294.081C798.622 294.081 798.424 294.023 798.251 293.904C795.987 292.339 793.762 290.658 791.637 288.905C791.211 288.553 791.15 287.924 791.502 287.497C791.854 287.071 792.484 287.01 792.91 287.362C794.992 289.078 797.171 290.726 799.389 292.258C799.844 292.572 799.957 293.195 799.643 293.649C799.447 293.93 799.135 294.081 798.818 294.081ZM782.601 279.966C782.331 279.966 782.062 279.857 781.864 279.643C780.001 277.616 778.203 275.483 776.52 273.306C776.182 272.869 776.263 272.241 776.699 271.903C777.136 271.564 777.764 271.645 778.102 272.082C779.751 274.215 781.512 276.303 783.337 278.289C783.711 278.696 783.684 279.328 783.277 279.702C783.085 279.879 782.842 279.966 782.601 279.966ZM769.918 262.616C769.571 262.616 769.233 262.435 769.049 262.112C767.683 259.72 766.405 257.242 765.251 254.744C765.019 254.243 765.238 253.649 765.739 253.417C766.239 253.186 766.835 253.404 767.066 253.905C768.196 256.35 769.448 258.778 770.785 261.119C771.059 261.599 770.892 262.209 770.413 262.483C770.256 262.573 770.086 262.616 769.918 262.616ZM761.425 242.867C760.996 242.867 760.599 242.588 760.468 242.156C759.675 239.528 758.983 236.825 758.413 234.126C758.299 233.586 758.645 233.055 759.185 232.941C759.728 232.828 760.256 233.173 760.37 233.713C760.928 236.358 761.605 239.004 762.383 241.578C762.543 242.107 762.243 242.664 761.714 242.824C761.618 242.853 761.521 242.867 761.425 242.867ZM757.539 221.722C757.019 221.722 756.58 221.32 756.542 220.793C756.378 218.486 756.294 216.146 756.294 213.837C756.294 213.392 756.297 212.947 756.303 212.503C756.311 211.951 756.749 211.508 757.318 211.518C757.87 211.526 758.311 211.98 758.303 212.533C758.297 212.967 758.294 213.403 758.294 213.838C758.294 216.099 758.377 218.392 758.538 220.652C758.577 221.203 758.163 221.681 757.612 221.721C757.587 221.721 757.563 221.722 757.539 221.722ZM758.414 200.233C758.363 200.233 758.312 200.229 758.26 200.221C757.714 200.137 757.34 199.626 757.424 199.08C757.844 196.36 758.387 193.623 759.04 190.946C759.171 190.409 759.714 190.084 760.248 190.211C760.785 190.342 761.114 190.883 760.983 191.419C760.344 194.041 759.812 196.721 759.4 199.384C759.325 199.88 758.899 200.233 758.414 200.233Z" fill="#E992EC"/>
<path d="M764.088 179.426C763.965 179.426 763.84 179.403 763.718 179.355C763.205 179.15 762.955 178.569 763.159 178.056C763.653 176.817 764.182 175.565 764.733 174.336C764.959 173.832 765.551 173.607 766.054 173.832C766.558 174.057 766.783 174.649 766.558 175.153C766.019 176.357 765.501 177.582 765.017 178.796C764.861 179.187 764.485 179.426 764.088 179.426Z" fill="#E992EC"/>
<path d="M817.105 125.911C816.71 125.911 816.336 125.676 816.178 125.288C815.97 124.776 816.216 124.193 816.727 123.984C817.972 123.477 819.241 122.991 820.5 122.538C821.02 122.348 821.592 122.621 821.779 123.14C821.966 123.66 821.696 124.233 821.177 124.419C819.944 124.862 818.701 125.339 817.482 125.835C817.359 125.887 817.231 125.911 817.105 125.911Z" fill="#E992EC"/>
<path d="M945.691 242.239C945.597 242.239 945.501 242.225 945.406 242.197C944.876 242.04 944.574 241.483 944.731 240.954C945.485 238.412 946.139 235.805 946.675 233.204C946.787 232.664 947.313 232.315 947.857 232.427C948.398 232.539 948.746 233.068 948.634 233.609C948.086 236.265 947.418 238.927 946.649 241.523C946.52 241.957 946.122 242.239 945.691 242.239ZM949.418 221.411C949.396 221.411 949.374 221.411 949.351 221.409C948.8 221.372 948.383 220.896 948.419 220.345C948.557 218.269 948.626 216.159 948.626 214.075C948.626 213.503 948.621 212.93 948.61 212.355C948.6 211.803 949.04 211.347 949.592 211.337C950.101 211.351 950.6 211.767 950.61 212.319C950.62 212.905 950.626 213.49 950.626 214.074C950.626 216.202 950.555 218.356 950.415 220.476C950.38 221.005 949.94 221.411 949.418 221.411ZM948.489 200.27C948.004 200.27 947.578 199.916 947.502 199.422C947.097 196.792 946.578 194.155 945.96 191.584C945.831 191.047 946.161 190.507 946.698 190.378C947.233 190.249 947.775 190.579 947.904 191.116C948.536 193.742 949.066 196.433 949.479 199.117C949.563 199.663 949.189 200.174 948.643 200.258C948.591 200.266 948.539 200.27 948.489 200.27ZM943.002 179.842C942.602 179.842 942.225 179.6 942.07 179.206C941.104 176.738 940.02 174.279 938.846 171.897C938.602 171.402 938.805 170.802 939.301 170.558C939.798 170.312 940.397 170.518 940.64 171.013C941.838 173.445 942.946 175.956 943.932 178.477C944.133 178.991 943.879 179.571 943.365 179.772C943.246 179.82 943.123 179.842 943.002 179.842ZM933.162 161.126C932.841 161.126 932.526 160.972 932.333 160.686C930.849 158.492 929.251 156.331 927.583 154.264C927.236 153.834 927.304 153.204 927.733 152.858C928.163 152.512 928.792 152.578 929.139 153.008C930.843 155.119 932.474 157.326 933.989 159.566C934.299 160.023 934.178 160.645 933.721 160.954C933.55 161.071 933.355 161.126 933.162 161.126ZM919.454 145.017C919.208 145.017 918.961 144.927 918.768 144.745C916.835 142.924 914.804 141.164 912.729 139.512C912.297 139.168 912.226 138.539 912.57 138.107C912.914 137.675 913.543 137.603 913.975 137.948C916.093 139.634 918.166 141.431 920.139 143.29C920.541 143.669 920.56 144.302 920.181 144.704C919.985 144.912 919.719 145.017 919.454 145.017ZM902.562 132.276C902.388 132.276 902.212 132.231 902.052 132.135C899.767 130.776 897.401 129.5 895.019 128.341C894.522 128.099 894.316 127.501 894.557 127.004C894.799 126.506 895.396 126.3 895.894 126.542C898.326 127.725 900.742 129.029 903.074 130.416C903.549 130.698 903.704 131.312 903.422 131.787C903.236 132.102 902.904 132.276 902.562 132.276ZM883.297 123.522C883.194 123.522 883.089 123.506 882.986 123.472C880.463 122.647 877.875 121.92 875.293 121.311C874.755 121.184 874.422 120.646 874.549 120.108C874.675 119.57 875.215 119.234 875.752 119.364C878.388 119.985 881.031 120.728 883.608 121.571C884.133 121.742 884.419 122.307 884.247 122.832C884.11 123.254 883.718 123.522 883.297 123.522ZM833.455 120.896C832.993 120.896 832.577 120.574 832.477 120.103C832.363 119.563 832.708 119.032 833.248 118.917C835.893 118.358 838.6 117.902 841.293 117.563C841.836 117.494 842.341 117.882 842.41 118.43C842.479 118.978 842.091 119.478 841.543 119.547C838.904 119.88 836.253 120.326 833.662 120.874C833.594 120.89 833.524 120.896 833.455 120.896ZM862.575 119.211C862.544 119.211 862.512 119.21 862.48 119.207C859.842 118.958 857.158 118.82 854.503 118.794C853.951 118.789 853.507 118.336 853.513 117.784C853.518 117.235 853.965 116.794 854.513 116.794C854.516 116.794 854.519 116.794 854.523 116.794C857.234 116.82 859.974 116.962 862.668 117.216C863.218 117.268 863.622 117.756 863.57 118.305C863.52 118.823 863.085 119.211 862.575 119.211Z" fill="#E992EC"/>
<path d="M939.358 258.192C939.207 258.192 939.053 258.158 938.909 258.085C938.416 257.836 938.218 257.235 938.467 256.742C939.059 255.568 939.634 254.367 940.175 253.174C940.403 252.671 940.994 252.446 941.499 252.677C942.002 252.905 942.225 253.498 941.997 254.001C941.445 255.219 940.858 256.445 940.253 257.644C940.076 257.991 939.724 258.192 939.358 258.192Z" fill="#E992EC"/>
<path d="M914.729 255.22C915.046 254.843 915.089 254.307 914.837 253.884L907.625 241.83C910.593 235.98 912.649 229.615 913.62 222.934L926.449 217.237C926.899 217.037 927.173 216.574 927.131 216.083L925.686 199.296C925.644 198.805 925.295 198.396 924.818 198.276L911.204 194.855C909.106 188.438 905.993 182.518 902.069 177.261L907.116 164.152C907.293 163.692 907.159 163.171 906.782 162.854L893.891 152.006C893.514 151.689 892.978 151.646 892.555 151.899L880.501 159.111C874.651 156.143 868.285 154.087 861.605 153.117L855.908 140.288C855.708 139.838 855.245 139.564 854.754 139.606L837.967 141.051C837.476 141.093 837.067 141.442 836.947 141.92L833.525 155.534C827.108 157.631 821.188 160.745 815.931 164.669L802.822 159.622C802.363 159.445 801.842 159.579 801.525 159.956L790.677 172.847C790.36 173.224 790.317 173.76 790.57 174.183L797.782 186.237C794.814 192.087 792.758 198.452 791.787 205.133L778.957 210.83C778.507 211.03 778.233 211.493 778.275 211.984L779.72 228.771C779.762 229.262 780.111 229.671 780.589 229.791L794.203 233.212C796.301 239.629 799.414 245.549 803.338 250.806L798.291 263.914C798.114 264.374 798.248 264.895 798.625 265.212L811.516 276.06C811.893 276.377 812.429 276.42 812.852 276.167L824.905 268.955C830.755 271.923 837.121 273.979 843.801 274.949L849.498 287.779C849.698 288.229 850.161 288.503 850.652 288.46L867.438 287.015C867.929 286.973 868.338 286.624 868.459 286.147L871.88 272.533C878.297 270.435 884.217 267.322 889.474 263.398L902.583 268.444C903.042 268.621 903.563 268.487 903.881 268.11L914.729 255.22Z" fill="url(#paint2_linear_37_315)"/>
<path d="M852.717 229.995C846.101 229.995 839.902 225.847 837.619 219.252C834.741 210.935 839.166 201.827 847.483 198.949C851.512 197.554 855.842 197.813 859.677 199.676C863.512 201.539 866.391 204.784 867.785 208.813C870.663 217.13 866.238 226.237 857.921 229.115C856.2 229.712 854.445 229.995 852.717 229.995ZM852.714 200.065C851.176 200.065 849.633 200.322 848.138 200.839C840.863 203.357 836.992 211.323 839.509 218.598C842.027 225.873 849.996 229.741 857.268 227.227C864.543 224.709 868.413 216.743 865.896 209.469C864.676 205.945 862.158 203.106 858.804 201.477C856.873 200.538 854.799 200.065 852.714 200.065Z" fill="#66CAFF"/>
<path d="M852.38 255.483C831.011 255.484 812.774 239.073 810.909 217.398C810.804 216.18 810.752 214.965 810.752 213.757C810.752 203.968 814.162 194.583 820.539 187.005C827.703 178.492 837.753 173.278 848.839 172.324C859.925 171.371 870.718 174.79 879.232 181.954C887.745 189.118 892.959 199.169 893.913 210.254C894.016 211.457 894.068 212.664 894.068 213.868C894.068 215.629 893.957 217.385 893.737 219.12C893.667 219.668 893.156 220.05 892.619 219.986C892.114 219.922 891.745 219.491 891.745 218.995C891.745 218.952 891.747 218.91 891.753 218.868C891.963 217.216 892.068 215.544 892.068 213.867C892.068 212.72 892.019 211.571 891.921 210.425C891.855 209.67 891.77 208.921 891.664 208.177C890.407 199.361 886.284 191.342 879.852 185.195C879.237 184.607 878.601 184.037 877.944 183.484C869.838 176.663 859.56 173.409 849.011 174.316C838.457 175.224 828.889 180.188 822.07 188.292C815.999 195.506 812.753 204.44 812.753 213.76C812.753 214.91 812.802 216.066 812.902 217.225C814.776 239.01 834.03 255.199 855.811 253.335C862.974 252.718 869.823 250.178 875.616 245.99C876.064 245.666 876.689 245.767 877.013 246.215C877.141 246.393 877.203 246.598 877.202 246.802C877.202 247.112 877.058 247.417 876.788 247.612C870.701 252.012 863.507 254.681 855.983 255.328C854.774 255.432 853.571 255.483 852.38 255.483Z" fill="#66CAFF"/>
<path d="M784.346 124.601L779.783 118.189C781.181 114.79 782.047 111.143 782.292 107.369L789.204 103.617C789.447 103.485 789.579 103.215 789.533 102.942L787.981 93.6299C787.935 93.3579 787.723 93.145 787.451 93.099L779.695 91.7919C778.238 88.3009 776.237 85.1329 773.812 82.3709L776.049 74.825C776.127 74.56 776.029 74.2759 775.805 74.1149L768.123 68.6279C767.898 68.4679 767.597 68.467 767.372 68.627L760.96 73.1899C757.561 71.7919 753.914 70.926 750.14 70.681L746.388 63.7679C746.256 63.5259 745.985 63.393 745.713 63.439L736.401 64.991C736.129 65.036 735.915 65.2489 735.87 65.5219L734.563 73.278C731.072 74.734 727.904 76.736 725.142 79.161L717.596 76.924C717.332 76.846 717.046 76.944 716.886 77.168L711.399 84.8499C711.239 85.0749 711.238 85.376 711.398 85.601L715.961 92.013C714.563 95.412 713.697 99.059 713.452 102.833L706.539 106.585C706.297 106.717 706.164 106.987 706.21 107.259L707.762 116.571C707.807 116.843 708.02 117.056 708.292 117.102L716.048 118.408C717.504 121.899 719.506 125.067 721.931 127.829L719.694 135.375C719.615 135.64 719.714 135.925 719.938 136.085L727.62 141.572C727.844 141.732 728.146 141.733 728.371 141.573L734.783 137.01C738.182 138.408 741.829 139.274 745.603 139.519L749.355 146.432C749.486 146.674 749.757 146.807 750.03 146.761L759.342 145.209C759.614 145.164 759.828 144.951 759.873 144.678L761.179 136.922C764.669 135.466 767.838 133.464 770.6 131.039L778.146 133.276C778.41 133.354 778.695 133.256 778.856 133.032L784.343 125.35C784.506 125.127 784.506 124.826 784.346 124.601Z" fill="url(#paint3_linear_37_315)"/>
<path d="M747.875 114.49C746.72 114.49 745.562 114.274 744.454 113.84C742.12 112.927 740.282 111.16 739.277 108.864C737.203 104.125 739.371 98.5809 744.111 96.5069C746.406 95.5019 748.957 95.4519 751.291 96.3649C753.625 97.2779 755.463 99.0449 756.468 101.341C758.542 106.081 756.373 111.624 751.633 113.698C750.428 114.226 749.153 114.49 747.875 114.49ZM747.871 97.7159C746.866 97.7159 745.862 97.9239 744.913 98.3389C741.184 99.9709 739.478 104.333 741.109 108.062C741.899 109.869 743.346 111.259 745.182 111.978C747.019 112.697 749.026 112.657 750.831 111.867C754.56 110.235 756.267 105.873 754.635 102.144C753.845 100.338 752.398 98.9469 750.562 98.2289C749.69 97.8869 748.78 97.7159 747.871 97.7159Z" fill="#66CAFF"/>
<path d="M780.004 145.207C779.715 145.207 779.429 145.083 779.231 144.842C778.88 144.415 778.942 143.785 779.369 143.435C780.377 142.606 781.362 141.73 782.297 140.829C782.695 140.446 783.328 140.458 783.711 140.855C784.094 141.253 784.083 141.886 783.685 142.269C782.713 143.206 781.688 144.118 780.639 144.979C780.452 145.132 780.227 145.207 780.004 145.207Z" fill="#E992EC"/>
<path d="M747.943 156.72C745.652 156.732 743.336 156.569 741.058 156.265C740.511 156.192 740.126 155.688 740.2 155.141C740.273 154.593 740.774 154.21 741.324 154.283C743.513 154.575 745.721 154.732 747.943 154.721C748.314 154.721 748.684 154.716 749.054 154.708C749.613 154.667 750.064 155.132 750.077 155.684C750.09 156.236 749.653 156.694 749.101 156.707C748.714 156.715 748.328 156.72 747.943 156.72ZM761.742 154.773C761.307 154.773 760.907 154.487 760.781 154.048C760.629 153.517 760.936 152.963 761.467 152.811C763.594 152.202 765.707 151.44 767.748 150.547C768.076 150.403 768.401 150.257 768.725 150.107C769.226 149.876 769.82 150.093 770.052 150.595C770.284 151.096 770.065 151.69 769.564 151.922C769.229 152.077 768.891 152.229 768.55 152.379C766.428 153.308 764.23 154.1 762.018 154.734C761.927 154.76 761.834 154.773 761.742 154.773ZM728.808 152.983C728.683 152.983 728.555 152.959 728.432 152.909C725.948 151.899 723.524 150.688 721.23 149.308C720.756 149.023 720.604 148.409 720.888 147.936C721.172 147.462 721.787 147.309 722.26 147.594C724.467 148.921 726.796 150.085 729.185 151.056C729.697 151.264 729.943 151.847 729.735 152.359C729.577 152.748 729.203 152.983 728.808 152.983ZM711.692 141.514C711.433 141.514 711.174 141.414 710.978 141.214C709.103 139.299 707.365 137.22 705.812 135.035C705.492 134.585 705.598 133.96 706.048 133.64C706.499 133.321 707.122 133.426 707.443 133.876C708.935 135.976 710.605 137.974 712.407 139.814C712.794 140.209 712.787 140.842 712.392 141.228C712.197 141.418 711.945 141.514 711.692 141.514ZM700.587 124.156C700.185 124.156 699.806 123.911 699.653 123.513C698.692 121.004 697.923 118.406 697.366 115.79C697.251 115.25 697.595 114.719 698.136 114.604C698.672 114.484 699.207 114.834 699.322 115.374C699.857 117.888 700.597 120.386 701.521 122.798C701.718 123.314 701.46 123.892 700.944 124.09C700.826 124.135 700.706 124.156 700.587 124.156Z" fill="#E992EC"/>
<path d="M697.3 103.76C697.284 103.76 697.268 103.759 697.252 103.759C696.7 103.733 696.274 103.265 696.3 102.713C696.364 101.357 696.482 99.9899 696.653 98.6509C696.723 98.1029 697.227 97.7179 697.772 97.7849C698.32 97.8549 698.707 98.3559 698.638 98.9039C698.474 100.19 698.36 101.503 698.299 102.807C698.273 103.343 697.831 103.76 697.3 103.76Z" fill="#E992EC"/>
<path d="M715.942 66.8139C715.651 66.8139 715.363 66.6879 715.165 66.4439C714.817 66.0149 714.882 65.3849 715.311 65.0379C716.364 64.1829 717.462 63.3619 718.577 62.5959C719.032 62.2839 719.654 62.3989 719.968 62.8539C720.281 63.3089 720.165 63.9319 719.71 64.2449C718.639 64.9809 717.583 65.7709 716.571 66.5919C716.386 66.7409 716.164 66.8139 715.942 66.8139Z" fill="#E992EC"/>
<path d="M797.85 98.1379C797.368 98.1379 796.943 97.7879 796.864 97.2959C796.465 94.7979 795.866 92.3079 795.084 89.8929C794.914 89.3679 795.202 88.8039 795.728 88.6339C796.254 88.4649 796.817 88.7529 796.987 89.2779C797.8 91.7909 798.423 94.3819 798.838 96.9799C798.925 97.5249 798.554 98.0389 798.009 98.1259C797.956 98.1339 797.903 98.1379 797.85 98.1379ZM790.714 79.1629C790.381 79.1629 790.056 78.9969 789.866 78.6939C788.519 76.5459 786.995 74.4869 785.338 72.5759C784.976 72.1589 785.021 71.5269 785.438 71.1649C785.856 70.8029 786.487 70.8479 786.849 71.2649C788.574 73.2539 790.159 75.3959 791.561 77.6309C791.855 78.0989 791.713 78.7159 791.245 79.0089C791.079 79.1139 790.896 79.1629 790.714 79.1629ZM776.712 64.5139C776.516 64.5139 776.317 64.4559 776.144 64.3359C774.065 62.8959 771.854 61.6039 769.572 60.4939C769.075 60.2519 768.868 59.6539 769.11 59.1569C769.351 58.6599 769.95 58.4539 770.446 58.6949C772.82 59.8489 775.12 61.1939 777.283 62.6909C777.737 63.0049 777.85 63.6289 777.536 64.0829C777.341 64.3629 777.029 64.5139 776.712 64.5139ZM730.34 58.6229C729.934 58.6229 729.551 58.3729 729.402 57.9699C729.211 57.4519 729.475 56.8769 729.993 56.6849C732.472 55.7679 735.035 55.0369 737.61 54.5119C738.153 54.3989 738.679 54.7509 738.79 55.2919C738.9 55.8339 738.551 56.3609 738.01 56.4719C735.535 56.9759 733.071 57.6789 730.688 58.5609C730.573 58.6019 730.455 58.6229 730.34 58.6229ZM758.081 56.5309C758.014 56.5309 757.946 56.5239 757.877 56.5099C755.392 55.9959 752.852 55.6709 750.325 55.5429C749.773 55.5149 749.349 55.0449 749.377 54.4939C749.404 53.9419 749.883 53.5189 750.426 53.5459C753.054 53.6789 755.698 54.0169 758.283 54.5519C758.824 54.6639 759.172 55.1929 759.059 55.7339C758.962 56.2069 758.546 56.5309 758.081 56.5309Z" fill="#E992EC"/>
<path d="M797.733 114.742C797.676 114.742 797.618 114.737 797.56 114.727C797.016 114.632 796.652 114.114 796.746 113.57C796.97 112.286 797.145 110.98 797.266 109.686C797.317 109.136 797.802 108.727 798.355 108.784C798.905 108.835 799.309 109.323 799.257 109.873C799.131 111.219 798.949 112.578 798.716 113.914C798.632 114.4 798.21 114.742 797.733 114.742Z" fill="#E992EC"/>
<path d="M747.688 128.781C736.281 128.781 726.182 120.526 724.245 108.91C724.025 107.593 723.919 106.284 723.919 104.99C723.918 93.5818 732.173 83.4808 743.79 81.5448C750.056 80.4998 756.352 81.9578 761.521 85.6498C766.689 89.3408 770.111 94.8248 771.156 101.09C771.435 102.764 771.536 104.464 771.457 106.143C771.431 106.695 770.967 107.123 770.411 107.095C769.875 107.07 769.458 106.627 769.458 106.097C769.458 106.081 769.459 106.065 769.459 106.049C769.475 105.71 769.483 105.369 769.483 105.028C769.482 103.824 769.382 102.615 769.183 101.419C768.303 96.1428 765.583 91.4718 761.471 88.1258C761.111 87.8328 760.74 87.5498 760.358 87.2768C755.625 83.8958 749.86 82.5588 744.119 83.5168C733.48 85.2908 725.918 94.5418 725.919 104.991C725.919 106.176 726.016 107.375 726.217 108.581C728.192 120.426 739.437 128.455 751.28 126.482C755.175 125.832 758.814 124.144 761.803 121.599C762.224 121.241 762.854 121.291 763.213 121.712C763.373 121.9 763.452 122.131 763.452 122.36C763.452 122.643 763.333 122.924 763.1 123.122C759.835 125.902 755.862 127.746 751.61 128.456C750.293 128.675 748.982 128.781 747.688 128.781Z" fill="#66CAFF"/>
<path d="M719.346 612.413C715.059 616.269 708.226 614.494 706.288 609.063C695.591 579.096 673.011 491.634 730.005 397.734C778.134 318.44 796.696 270.87 803.626 248.69C805.092 244 811.692 243.907 813.299 248.551C831.02 299.782 874.705 472.674 719.346 612.413Z" fill="url(#paint4_linear_37_315)"/>
<path d="M712.225 608.531C712.16 608.531 712.094 608.528 712.027 608.521C710.928 608.414 710.124 607.435 710.232 606.336C710.369 604.934 724.703 464.809 786.619 351.577C787.149 350.608 788.364 350.252 789.333 350.782C790.302 351.312 790.658 352.527 790.128 353.496C728.599 466.02 714.349 605.332 714.212 606.726C714.112 607.759 713.242 608.531 712.225 608.531Z" fill="#24286C"/>
<path d="M717.236 620.082C759.113 622.378 880.304 610.916 897.549 404.863C898.039 399.012 890.47 396.292 887.154 401.137C871.621 423.831 843.776 462.608 817.587 476.935C736.449 521.322 712.626 578.227 705.756 604.297C703.721 612.017 709.263 619.645 717.236 620.082Z" fill="url(#paint5_linear_37_315)"/>
<path d="M712.287 615.234C711.521 615.234 710.789 614.791 710.458 614.046C710.009 613.037 710.464 611.855 711.474 611.406C768.738 585.967 807.971 546.67 830.801 518.184C855.527 487.331 866.825 462.244 866.936 461.994C867.385 460.984 868.569 460.531 869.577 460.98C870.586 461.429 871.04 462.612 870.591 463.621C870.478 463.875 858.968 489.434 833.923 520.685C810.816 549.517 771.097 589.295 713.099 615.061C712.834 615.178 712.558 615.234 712.287 615.234Z" fill="#2A6FAE"/>
<path d="M280.56 361.795C280.56 361.795 272.49 290.639 237.211 276.151C201.933 261.663 138.189 258.34 121.85 156.82C112.285 97.3858 107.223 71.5208 104.671 60.2908C103.675 55.9098 107.123 51.7888 111.61 52.0118C143.35 53.5838 247.155 63.7458 277.664 129.446C313.833 207.334 280.56 361.795 280.56 361.795Z" fill="url(#paint6_linear_37_315)"/>
<path d="M139.391 77.1168C142.092 78.9388 144.697 80.8078 147.285 82.7338C148.581 83.6918 149.851 84.6788 151.12 85.6698C152.386 86.6638 153.674 87.6328 154.917 88.6548C157.42 90.6778 159.938 92.6878 162.383 94.7808L166.079 97.8918L169.706 101.081L173.316 104.292L176.853 107.581C179.218 109.768 181.578 111.962 183.863 114.233C188.511 118.698 192.951 123.369 197.431 128.006C201.778 132.764 206.186 137.476 210.319 142.429L213.465 146.105L215.038 147.943L216.557 149.826L222.617 157.373L224.122 159.268L225.568 161.209L228.46 165.091L231.352 168.974L232.798 170.916L234.182 172.902C237.829 178.239 241.627 183.43 245.026 189.011C245.919 190.373 246.714 191.792 247.542 193.192C248.359 194.598 249.198 195.992 249.997 197.409L252.32 201.698L253.479 203.844L254.571 206.024L256.754 210.384L258.806 214.805C260.213 217.736 261.391 220.764 262.679 223.745C267.534 235.788 271.595 248.141 274.664 260.729C277.821 273.294 280.039 286.072 281.521 298.915C282.23 305.342 282.74 311.787 283.043 318.244C283.355 324.717 283.446 331.133 283.121 337.7C283.062 338.889 282.051 339.805 280.862 339.747C279.717 339.69 278.825 338.75 278.813 337.619L278.812 337.525C278.702 324.954 277.609 312.183 275.799 299.642C274.008 287.073 271.537 274.607 268.299 262.358C265.073 250.105 261.063 238.074 256.26 226.384C251.346 214.748 245.802 203.363 239.128 192.659C225.653 171.219 210.006 150.977 193.173 131.902L186.737 124.845C184.62 122.464 182.348 120.231 180.169 117.907C177.994 115.578 175.745 113.322 173.488 111.073L170.112 107.688L166.662 104.38C157.524 95.5048 147.955 86.9868 137.985 79.1188L137.95 79.0918C137.42 78.6728 137.329 77.9038 137.747 77.3738C138.145 76.8678 138.866 76.7648 139.391 77.1168Z" fill="#222669"/>
<path d="M313.966 590.599C319.259 593.231 264.091 523.059 247.297 413.237C239.384 361.486 239.637 296.703 210.322 271.574C185.924 250.66 102.436 263.314 75.1142 268.147C71.7002 268.751 70.5282 273.053 73.1702 275.297C86.1982 286.362 114.053 312.446 121.203 338.617C130.627 373.113 163.251 395.202 192.533 401.294C221.815 407.386 238.091 413.23 252.112 460.191C266.133 507.152 298.925 583.12 313.966 590.599Z" fill="url(#paint7_linear_37_315)"/>
<path d="M113.416 282.988C131.013 283.88 148.374 288.364 164.325 296.078C172.31 299.909 179.825 304.79 186.615 310.557C193.356 316.373 199.378 323.11 204.135 330.682L205.904 333.529C206.488 334.482 206.981 335.486 207.523 336.462C208.039 337.447 208.598 338.435 209.077 339.417L210.518 342.364C212.449 346.289 214.36 350.224 216.231 354.178C219.984 362.081 223.608 370.046 227.106 378.066C234.111 394.104 240.604 410.36 246.081 427.017C246.226 427.458 245.986 427.934 245.545 428.079C245.121 428.218 244.665 428.002 244.502 427.593L244.492 427.568C241.279 419.486 237.917 411.427 234.399 403.454C230.923 395.46 227.353 387.506 223.7 379.592L218.185 367.738L212.539 355.945C210.661 352.012 208.743 348.098 206.806 344.194L205.36 341.263C204.879 340.284 204.355 339.375 203.855 338.427C203.342 337.493 202.879 336.529 202.328 335.618L200.655 332.892C196.176 325.622 190.417 319.211 184.059 313.504C180.816 310.719 177.467 308.033 173.874 305.684L172.544 304.778L171.18 303.923C170.268 303.357 169.37 302.767 168.446 302.219C166.582 301.15 164.729 300.056 162.806 299.087C155.188 295.066 147.077 291.978 138.791 289.493C130.508 287.014 121.947 285.23 113.356 284.338L113.312 284.333C112.941 284.294 112.672 283.963 112.711 283.592C112.748 283.234 113.061 282.97 113.416 282.988Z" fill="#1F5AA9"/>
<path d="M261.826 612.143C264.839 613.731 244.856 579.338 243.323 549.036C241.79 518.734 234.954 467.016 208.823 436.079C182.692 405.142 154.077 402.319 118.02 430.444C87.9722 453.881 69.2302 465.709 58.2372 467.908C55.5152 468.452 54.1262 471.525 55.4512 473.964C62.5012 486.947 82.4332 516.77 115.901 514.67C158.591 511.992 210.328 484.24 226.097 507.391C241.866 530.542 239.841 543.495 240.325 554.467C240.809 565.438 241.889 601.631 261.826 612.143Z" fill="url(#paint8_linear_37_315)"/>
<path d="M130.165 467.627C132.516 465.354 135.009 463.315 137.586 461.343C140.161 459.378 142.814 457.503 145.584 455.797C151.101 452.36 156.999 449.428 163.292 447.405C166.44 446.406 169.685 445.634 173.008 445.205C176.331 444.801 179.731 444.744 183.108 445.161C183.948 445.297 184.797 445.377 185.63 445.563C186.456 445.757 187.313 445.916 188.113 446.145L192.836 447.612L197.459 449.411L201.942 451.567C207.82 454.665 213.134 458.861 217.552 463.794C222.007 468.712 225.475 474.383 228.327 480.243C229.047 481.709 229.774 483.171 230.352 484.694C230.957 486.204 231.609 487.697 232.173 489.22L233.75 493.824C234.308 495.348 234.66 496.932 235.108 498.486C236.876 504.711 238.092 511.051 239.122 517.399C239.188 517.808 238.911 518.193 238.502 518.259C238.115 518.322 237.748 518.076 237.655 517.702L237.649 517.678C236.111 511.477 234.649 505.265 232.559 499.263C231.609 496.23 230.414 493.298 229.304 490.337C228.706 488.875 228.024 487.452 227.39 486.009C226.782 484.552 226.033 483.169 225.293 481.783C222.377 476.221 218.838 471.023 214.634 466.472C210.424 461.924 205.432 458.179 199.97 455.304L195.78 453.32L191.437 451.661L186.974 450.305C186.234 450.095 185.514 449.957 184.783 449.777C184.055 449.605 183.303 449.535 182.564 449.405C179.584 449.012 176.531 449.034 173.495 449.378C170.455 449.698 167.424 450.333 164.445 451.198C158.477 452.922 152.709 455.501 147.158 458.503C144.395 460.028 141.65 461.614 138.985 463.337C136.33 465.062 133.702 466.887 131.196 468.794L131.177 468.809C130.835 469.07 130.345 469.003 130.085 468.661C129.844 468.342 129.884 467.898 130.165 467.627Z" fill="#222669"/>
<path d="M704.073 229.288H268.073V595.288H704.073V229.288Z" fill="url(#paint9_linear_37_315)"/>
<path d="M720.536 180.895L252.318 183.844C245.963 183.884 241.073 188.534 241.073 194.231V264.143C241.073 269.629 245.807 274.107 251.926 274.146L720.646 277.098C727.603 277.142 733.074 272.424 733.074 266.561V191.432C733.073 185.569 727.493 180.852 720.536 180.895Z" fill="url(#paint10_linear_37_315)"/>
<g opacity="0.5">
<path d="M720.605 180.895L251.707 183.847C245.588 183.885 240.636 188.364 240.636 193.85L733.212 191.432C733.212 185.569 727.562 180.852 720.605 180.895Z" fill="url(#paint11_linear_37_315)"/>
</g>
<g opacity="0.5">
<path d="M251.707 274.146L720.605 277.098C727.562 277.142 733.211 272.424 733.211 266.561L240.635 264.143C240.636 269.629 245.588 274.108 251.707 274.146Z" fill="url(#paint12_linear_37_315)"/>
</g>
<path d="M720.912 297.475L252.12 296.503C245.563 296.489 240.211 301.235 240.14 307.104L239.277 379.268C239.208 384.941 244.283 389.586 250.611 389.642L720.88 393.755C727.648 393.814 733.072 389.099 733.072 383.224V308.095C733.073 302.242 727.664 297.489 720.912 297.475Z" fill="url(#paint13_linear_37_315)"/>
<g opacity="0.5">
<path d="M720.981 297.475L251.715 296.502C245.401 296.489 240.231 301.059 240.163 306.71L733.212 308.094C733.212 302.242 727.733 297.489 720.981 297.475Z" fill="url(#paint14_linear_37_315)"/>
</g>
<g opacity="0.5">
<path d="M250.616 389.641L720.952 393.754C727.72 393.813 733.211 389.098 733.211 383.223L239.286 379.267C239.218 384.94 244.288 389.585 250.616 389.641Z" fill="url(#paint15_linear_37_315)"/>
</g>
<path d="M721.397 414.288H252.905C246.129 414.288 241.073 419.305 241.073 425.394V500.115C241.073 505.978 245.925 510.288 252.45 510.288H721.397C727.922 510.288 733.073 505.978 733.073 500.115V424.986C733.073 419.123 727.922 414.288 721.397 414.288Z" fill="url(#paint16_linear_37_315)"/>
<g opacity="0.5">
<path d="M721.397 414.288H252.45C245.925 414.288 240.636 419.288 240.636 425.288H733.212C733.212 419.288 727.922 414.288 721.397 414.288Z" fill="url(#paint17_linear_37_315)"/>
</g>
<g opacity="0.5">
<path d="M252.45 510.288H721.397C727.922 510.288 733.212 506.288 733.212 500.288H240.636C240.636 506.288 245.925 510.288 252.45 510.288Z" fill="url(#paint18_linear_37_315)"/>
</g>
<path d="M721.894 533.037L253.351 531.202C246.451 531.175 241.073 536.092 241.073 542.183V616.904C241.073 622.764 246.24 627.517 252.882 627.519L721.743 627.699C728.155 627.702 733.308 623.039 733.325 617.284L733.505 543.511C733.521 537.752 728.309 533.062 721.894 533.037Z" fill="url(#paint19_linear_37_315)"/>
<g opacity="0.5">
<path d="M721.894 533.037L252.67 531.201C246.025 531.175 240.636 535.909 240.636 541.775L733.478 543.512C733.494 537.752 728.309 533.062 721.894 533.037Z" fill="url(#paint20_linear_37_315)"/>
</g>
<g opacity="0.5">
<path d="M252.663 627.519L721.634 627.699C728.046 627.702 733.254 623.039 733.27 617.284L240.636 616.904C240.636 622.764 246.022 627.516 252.663 627.519Z" fill="url(#paint21_linear_37_315)"/>
</g>
<path d="M310.308 63.3588C309.8 63.3468 309.39 62.9358 309.381 62.4278C309.286 57.2158 307.66 31.3338 284.867 25.9248C259.491 19.9038 247.878 45.7098 247.878 45.7098C247.878 45.7098 216.481 33.6668 210.459 65.9248C190.772 70.6498 185.657 96.3598 198.462 108.923C200.497 110.919 203.223 112.047 206.074 112.073L329.364 113.184C332.982 113.217 336.191 110.848 337.219 107.379C341.071 94.3788 346.119 64.1978 310.308 63.3588Z" fill="url(#paint22_linear_37_315)"/>
<path d="M307.49 63.9118C306.982 63.8998 306.574 63.4908 306.564 62.9828C306.463 57.9838 304.853 33.9848 283.386 28.9538C259.391 23.3308 248.411 47.4298 248.411 47.4298C248.411 47.4298 218.723 36.1838 213.029 66.3068C194.592 70.6768 189.671 94.2688 201.341 106.119C203.387 108.196 206.173 109.377 209.088 109.403L325.149 110.436C328.776 110.468 331.989 108.089 333.01 104.609C336.629 92.2648 340.924 64.7118 307.49 63.9118Z" fill="url(#paint23_linear_37_315)"/>
<path d="M157.479 130.638C157.172 130.631 156.925 130.383 156.919 130.076C156.862 126.929 155.88 111.302 142.118 108.036C126.796 104.4 119.785 119.982 119.785 119.982C119.785 119.982 100.828 112.711 97.1924 132.187C85.3054 135.04 82.2174 150.563 89.9484 158.149C91.1764 159.354 92.8234 160.035 94.5444 160.051L168.985 160.722C171.17 160.742 173.107 159.312 173.728 157.217C176.053 149.368 179.101 131.144 157.479 130.638Z" fill="#9694FF"/>
<path d="M155.777 130.972C155.471 130.965 155.224 130.717 155.218 130.411C155.157 127.392 154.185 112.902 141.223 109.864C126.735 106.469 120.105 121.019 120.105 121.019C120.105 121.019 102.179 114.229 98.7424 132.417C87.6104 135.056 84.6394 149.3 91.6854 156.455C92.9204 157.709 94.6024 158.422 96.3634 158.438L166.44 159.062C168.63 159.081 170.57 157.645 171.186 155.544C173.371 148.091 175.965 131.455 155.777 130.972Z" fill="url(#paint24_linear_37_315)"/>
<g opacity="0.8">
<path d="M443.477 405.726L469.586 446.288H456.525L462.983 504.288H426.815L433.704 446.299L417.172 444.356L443.477 405.726Z" fill="black"/>
<path d="M504.514 490.342L478.406 451.288H491.467L485.008 393.288H521.177L514.288 449.768L530.819 451.712L504.514 490.342Z" fill="black"/>
<g opacity="0.64">
<path d="M386.657 481.237C385.576 481.237 384.579 480.53 384.259 479.441C383.874 478.13 383.514 476.796 383.187 475.478C382.855 474.138 383.673 472.783 385.013 472.451C386.353 472.118 387.709 472.936 388.041 474.277C388.35 475.526 388.692 476.79 389.057 478.033C389.446 479.358 388.687 480.747 387.362 481.136C387.127 481.204 386.89 481.237 386.657 481.237Z" fill="black"/>
<path d="M383.368 464.534C382.103 464.534 381.018 463.578 380.884 462.291C380.603 459.571 380.435 456.804 380.386 454.065C380.361 452.685 381.461 451.546 382.841 451.521C384.232 451.453 385.361 452.595 385.385 453.976C385.431 456.573 385.59 459.197 385.857 461.776C385.999 463.149 385.001 464.378 383.628 464.52C383.541 464.53 383.454 464.534 383.368 464.534ZM383.548 443.502C383.449 443.502 383.349 443.497 383.249 443.484C381.878 443.32 380.899 442.076 381.063 440.706C381.387 437.985 381.832 435.25 382.384 432.577C382.663 431.224 383.985 430.353 385.338 430.634C386.69 430.913 387.56 432.236 387.281 433.588C386.758 436.124 386.336 438.717 386.028 441.299C385.876 442.568 384.796 443.502 383.548 443.502ZM388.347 423.032C388.068 423.032 387.784 422.985 387.506 422.886C386.206 422.422 385.528 420.991 385.992 419.691C386.912 417.114 387.955 414.546 389.093 412.058C389.667 410.803 391.151 410.248 392.406 410.824C393.661 411.398 394.214 412.881 393.64 414.137C392.562 416.495 391.573 418.93 390.701 421.373C390.337 422.395 389.374 423.032 388.347 423.032ZM397.601 404.144C397.141 404.144 396.675 404.017 396.258 403.751C395.094 403.008 394.753 401.462 395.496 400.298C396.968 397.993 398.558 395.722 400.223 393.547C401.062 392.45 402.631 392.244 403.728 393.082C404.824 393.922 405.032 395.491 404.193 396.587C402.614 398.648 401.106 400.802 399.711 402.988C399.234 403.736 398.426 404.144 397.601 404.144ZM410.83 387.789C410.185 387.789 409.541 387.541 409.051 387.046C408.081 386.064 408.091 384.481 409.073 383.51C411.019 381.588 413.071 379.726 415.174 377.975C416.236 377.092 417.813 377.236 418.695 378.296C419.579 379.357 419.435 380.934 418.374 381.817C416.379 383.478 414.432 385.245 412.586 387.068C412.099 387.549 411.465 387.789 410.83 387.789ZM427.342 374.766C426.506 374.766 425.691 374.348 425.217 373.586C424.488 372.414 424.847 370.872 426.02 370.143C428.344 368.698 430.757 367.335 433.192 366.093C434.422 365.467 435.927 365.954 436.555 367.184C437.182 368.414 436.694 369.92 435.464 370.547C433.154 371.725 430.865 373.017 428.661 374.389C428.249 374.643 427.792 374.766 427.342 374.766ZM515.81 368.957C515.465 368.957 515.115 368.885 514.78 368.734C512.418 367.665 509.979 366.684 507.53 365.82C506.228 365.361 505.545 363.933 506.005 362.631C506.464 361.329 507.891 360.645 509.194 361.106C511.776 362.017 514.349 363.051 516.842 364.18C518.1 364.749 518.658 366.231 518.088 367.489C517.671 368.411 516.762 368.957 515.81 368.957ZM446.315 365.723C445.278 365.723 444.309 365.073 443.952 364.038C443.502 362.733 444.195 361.31 445.5 360.859C448.09 359.965 450.746 359.174 453.394 358.508C454.73 358.168 456.091 358.983 456.428 360.322C456.765 361.661 455.952 363.02 454.614 363.356C452.105 363.987 449.587 364.737 447.131 365.585C446.861 365.679 446.586 365.723 446.315 365.723ZM495.798 362.494C495.634 362.494 495.467 362.478 495.299 362.444C492.762 361.93 490.165 361.518 487.581 361.219C486.209 361.061 485.226 359.821 485.384 358.449C485.542 357.077 486.785 356.093 488.154 356.252C490.879 356.566 493.617 357.001 496.292 357.543C497.645 357.817 498.52 359.137 498.246 360.49C498.005 361.675 496.963 362.494 495.798 362.494ZM466.832 361.142C465.571 361.142 464.487 360.191 464.349 358.909C464.202 357.536 465.195 356.304 466.568 356.156C469.284 355.864 472.049 355.686 474.789 355.627C476.191 355.578 477.312 356.692 477.343 358.072C477.373 359.452 476.278 360.595 474.898 360.626C472.301 360.682 469.678 360.851 467.103 361.128C467.011 361.138 466.921 361.142 466.832 361.142Z" fill="black"/>
<path d="M530.672 377.396C530.179 377.396 529.682 377.251 529.247 376.949C528.186 376.211 527.095 375.486 526.006 374.796C524.84 374.057 524.494 372.512 525.234 371.346C525.973 370.18 527.517 369.834 528.684 370.574C529.832 371.303 530.982 372.066 532.102 372.845C533.235 373.633 533.516 375.191 532.728 376.325C532.24 377.022 531.462 377.396 530.672 377.396Z" fill="black"/>
</g>
<g opacity="0.64">
<path d="M569.958 439.885C568.75 439.885 567.687 439.007 567.492 437.776C567.29 436.503 567.057 435.215 566.8 433.946C566.525 432.593 567.4 431.274 568.754 430.999C570.108 430.728 571.427 431.599 571.701 432.953C571.972 434.29 572.218 435.65 572.431 436.993C572.647 438.356 571.717 439.638 570.353 439.854C570.22 439.875 570.088 439.885 569.958 439.885Z" fill="black"/>
<path d="M477.12 548.854C476.068 548.84 474.916 548.836 473.807 548.798C472.427 548.752 471.346 547.595 471.393 546.215C471.439 544.836 472.586 543.759 473.976 543.801C475.026 543.837 476.09 543.837 477.119 543.854C478.63 543.854 480.159 543.816 481.664 543.741C483.045 543.682 484.217 544.735 484.286 546.114C484.354 547.493 483.292 548.667 481.913 548.736C480.326 548.814 478.713 548.854 477.12 548.854ZM461.131 547.511C460.992 547.511 460.851 547.499 460.71 547.475C458.052 547.023 455.384 546.454 452.78 545.784C451.443 545.44 450.638 544.076 450.983 542.74C451.327 541.403 452.693 540.596 454.027 540.943C456.497 541.579 459.027 542.119 461.547 542.547C462.908 542.778 463.824 544.069 463.593 545.43C463.386 546.648 462.327 547.511 461.131 547.511ZM494.522 547.228C493.344 547.228 492.295 546.392 492.068 545.191C491.812 543.835 492.704 542.527 494.061 542.271C496.569 541.797 499.087 541.211 501.545 540.527C502.872 540.159 504.253 540.935 504.623 542.266C504.993 543.596 504.214 544.974 502.884 545.344C500.291 546.065 497.635 546.683 494.989 547.183C494.832 547.214 494.675 547.228 494.522 547.228ZM441.228 541.817C440.912 541.817 440.59 541.757 440.279 541.629C437.79 540.607 435.312 539.465 432.914 538.236C431.685 537.606 431.201 536.099 431.831 534.871C432.461 533.642 433.968 533.158 435.197 533.787C437.469 534.953 439.819 536.035 442.179 537.004C443.456 537.528 444.066 538.989 443.542 540.266C443.145 541.233 442.212 541.817 441.228 541.817ZM514.297 541.166C513.33 541.166 512.409 540.602 512.001 539.658C511.453 538.391 512.036 536.919 513.303 536.371C515.641 535.359 517.969 534.234 520.222 533.027C521.439 532.376 522.954 532.832 523.606 534.049C524.259 535.266 523.801 536.781 522.584 537.433C520.209 538.707 517.754 539.894 515.287 540.96C514.965 541.1 514.628 541.166 514.297 541.166ZM532.267 530.917C531.494 530.917 530.732 530.56 530.243 529.886C529.431 528.769 529.679 527.206 530.796 526.394C532.863 524.892 534.891 523.286 536.823 521.62C537.869 520.719 539.447 520.835 540.349 521.881C541.25 522.927 541.134 524.506 540.088 525.407C538.051 527.163 535.914 528.856 533.735 530.439C533.291 530.762 532.777 530.917 532.267 530.917ZM547.579 517C546.991 517 546.4 516.793 545.924 516.373C544.89 515.459 544.792 513.879 545.707 512.844C547.398 510.93 549.028 508.922 550.552 506.875C551.376 505.768 552.943 505.537 554.05 506.362C555.157 507.186 555.387 508.753 554.563 509.86C552.956 512.019 551.237 514.137 549.453 516.155C548.959 516.715 548.271 517 547.579 517ZM559.496 500.078C559.089 500.078 558.675 499.978 558.293 499.768C557.084 499.102 556.643 497.582 557.308 496.372C558.54 494.133 559.691 491.816 560.728 489.487C561.29 488.225 562.767 487.657 564.029 488.22C565.29 488.781 565.858 490.259 565.296 491.521C564.202 493.979 562.988 496.422 561.689 498.784C561.233 499.61 560.378 500.078 559.496 500.078ZM567.414 480.947C567.185 480.947 566.951 480.915 566.719 480.848C565.392 480.465 564.628 479.079 565.011 477.752C565.719 475.303 566.331 472.791 566.831 470.286C567.101 468.932 568.417 468.053 569.772 468.324C571.126 468.595 572.005 469.911 571.734 471.265C571.207 473.907 570.561 476.557 569.814 479.14C569.498 480.235 568.499 480.947 567.414 480.947ZM570.94 460.559C570.888 460.559 570.836 460.558 570.782 460.554C569.404 460.469 568.356 459.282 568.442 457.904C568.561 455.986 568.622 454.043 568.622 452.13C568.622 451.491 568.615 450.852 568.602 450.215C568.573 448.835 569.669 447.692 571.049 447.663C572.439 447.623 573.572 448.73 573.601 450.11C573.615 450.782 573.622 451.455 573.622 452.129C573.622 454.145 573.558 456.192 573.433 458.214C573.35 459.54 572.249 460.559 570.94 460.559Z" fill="black"/>
<path d="M423.017 531.853C422.521 531.853 422.02 531.706 421.583 531.399C420.464 530.614 419.351 529.797 418.275 528.972C417.179 528.132 416.972 526.563 417.812 525.467C418.652 524.371 420.221 524.163 421.317 525.004C422.338 525.786 423.393 526.561 424.455 527.306C425.585 528.099 425.858 529.658 425.065 530.788C424.579 531.482 423.804 531.853 423.017 531.853Z" fill="black"/>
</g>
</g>
<path d="M296.97 72.6549L314.265 313.153C314.906 322.068 322.357 328.955 331.294 328.894L611.637 326.988C620.746 326.926 628.179 319.678 628.471 310.574L636.004 75.5629C636.308 66.0679 628.754 58.1749 619.254 58.0629L314.083 54.4819C304.16 54.3649 296.258 62.7569 296.97 72.6549Z" fill="#FF2929"/>
<path opacity="0.75" d="M316.141 100.955L330.602 305.912C330.956 310.934 335.147 314.819 340.181 314.792L600.451 313.438C605.676 313.411 609.91 309.191 609.954 303.966L611.632 106.112C611.676 100.882 607.507 96.5889 602.278 96.4799L325.868 90.7308C320.25 90.6148 315.745 95.3489 316.141 100.955Z" fill="white"/>
<path opacity="0.75" d="M315.773 74.2219C315.965 78.0639 319.138 81.0789 322.984 81.0759L427.852 80.9869C431.834 80.9839 435.06 77.7549 435.06 73.7729V71.0189C435.06 66.9579 431.71 63.6969 427.65 63.8069L322.782 66.6489C318.736 66.7599 315.571 70.1779 315.773 74.2219Z" fill="white"/>
<path d="M415.817 102.036H417.512C418.977 102.036 420.173 103.21 420.198 104.676L423.716 306.908C423.742 308.41 422.532 309.641 421.03 309.641C419.573 309.641 418.382 308.48 418.344 307.024L413.131 104.792C413.092 103.281 414.306 102.036 415.817 102.036Z" fill="url(#paint25_linear_37_315)"/>
<path d="M334.881 114.946L394.526 115.442C397.037 115.463 399.062 117.504 399.062 120.015C399.062 122.553 396.996 124.605 394.458 124.589L334.838 124.197C332.724 124.183 330.895 122.722 330.414 120.663L330.39 120.559C329.716 117.675 331.92 114.921 334.881 114.946Z" fill="url(#paint26_linear_37_315)"/>
<path d="M349.615 132.092C361.087 132.382 384.68 132.734 394.557 132.876C397.057 132.912 399.061 134.949 399.061 137.449V138.116C399.061 140.642 397.013 142.69 394.487 142.69H349.975C347.99 142.69 346.231 141.409 345.622 139.52L345.154 138.069C344.187 135.068 346.464 132.012 349.615 132.092Z" fill="url(#paint27_linear_37_315)"/>
<path d="M348.645 152.035V152.778C348.645 155.174 350.587 157.117 352.984 157.117H393.932C396.259 157.117 398.146 155.231 398.146 152.903C398.146 150.543 396.233 148.63 393.873 148.63H352.05C350.169 148.63 348.645 150.154 348.645 152.035Z" fill="url(#paint28_linear_37_315)"/>
<path d="M497.155 228.06L452.791 195.549L497.272 159.445C498.559 158.401 498.755 156.512 497.71 155.225C496.666 153.938 494.777 153.742 493.49 154.786L445.99 193.34C445.268 193.926 444.859 194.814 444.882 195.743C444.905 196.673 445.358 197.539 446.108 198.089L493.608 232.899C494.143 233.291 494.763 233.479 495.379 233.479C496.302 233.479 497.213 233.054 497.801 232.252C498.781 230.917 498.492 229.039 497.155 228.06Z" fill="url(#paint29_linear_37_315)"/>
<path d="M591.272 193.341L543.772 154.787C542.484 153.741 540.596 153.939 539.552 155.226C538.508 156.513 538.704 158.402 539.991 159.446L584.472 195.55L540.108 228.061C538.772 229.04 538.483 230.918 539.461 232.254C540.049 233.056 540.96 233.481 541.883 233.481C542.498 233.481 543.119 233.293 543.654 232.901L591.154 198.091C591.904 197.541 592.357 196.675 592.38 195.745C592.404 194.814 591.994 193.927 591.272 193.341Z" fill="url(#paint30_linear_37_315)"/>
<path d="M527.042 146.264C525.412 145.958 523.845 147.03 523.539 148.658L505.996 241.898C505.69 243.526 506.761 245.095 508.389 245.401C508.762 245.471 509.131 245.469 509.482 245.405C510.668 245.188 511.656 244.263 511.892 243.008L529.435 149.768C529.741 148.139 528.67 146.57 527.042 146.264Z" fill="url(#paint31_linear_37_315)"/>
<path d="M173.643 398.265L170.884 399.346L170.85 399.359C170.379 399.543 169.848 399.311 169.663 398.84C169.479 398.369 169.711 397.838 170.182 397.653L173.013 396.552C173.483 396.369 174.012 396.602 174.194 397.072C174.377 397.542 174.144 398.071 173.674 398.253L173.643 398.265Z" fill="#E992EC"/>
<path d="M162.885 403.22L160.321 404.711L160.291 404.728C159.847 404.986 159.279 404.836 159.021 404.392C158.763 403.948 158.914 403.38 159.357 403.122L161.985 401.602C162.428 401.346 162.994 401.497 163.25 401.94C163.506 402.383 163.355 402.949 162.912 403.205L162.885 403.22Z" fill="#E992EC"/>
<path d="M152.973 409.726L150.644 411.565L150.619 411.585C150.21 411.907 149.618 411.838 149.295 411.429C148.972 411.021 149.042 410.428 149.451 410.105L151.836 408.23C152.244 407.91 152.834 407.98 153.155 408.388C153.476 408.796 153.405 409.386 152.997 409.707L152.973 409.726Z" fill="#E992EC"/>
<path d="M144.034 417.532L141.96 419.659L141.939 419.68C141.571 420.058 140.965 420.066 140.587 419.697C140.209 419.328 140.201 418.723 140.57 418.345L142.691 416.179C143.059 415.803 143.662 415.797 144.038 416.165C144.414 416.533 144.42 417.136 144.052 417.512L144.034 417.532Z" fill="#E992EC"/>
<path d="M136.139 426.406L134.333 428.766L134.316 428.788C133.991 429.213 133.382 429.294 132.957 428.969C132.532 428.644 132.451 428.035 132.776 427.61L134.623 425.208C134.948 424.785 135.555 424.706 135.977 425.031C136.4 425.356 136.479 425.963 136.154 426.386L136.139 426.406Z" fill="#E992EC"/>
<path d="M129.324 436.142L127.793 438.69L127.779 438.713C127.499 439.178 126.896 439.329 126.431 439.049C125.966 438.769 125.816 438.166 126.095 437.7L127.661 435.108C127.94 434.645 128.543 434.496 129.005 434.776C129.467 435.056 129.617 435.658 129.337 436.121L129.324 436.142Z" fill="#E992EC"/>
<path d="M123.616 446.571L122.365 449.269L122.354 449.293C122.123 449.792 121.53 450.009 121.031 449.777C120.532 449.545 120.315 448.953 120.547 448.454L121.827 445.71C122.059 445.213 122.649 444.998 123.146 445.23C123.643 445.462 123.858 446.053 123.626 446.549L123.616 446.571Z" fill="#E992EC"/>
<path d="M119.039 457.545L118.075 460.358L118.066 460.383C117.885 460.91 117.311 461.191 116.784 461.011C116.257 460.83 115.976 460.256 116.156 459.729L117.144 456.866C117.325 456.341 117.898 456.062 118.423 456.243C118.948 456.424 119.227 456.997 119.046 457.522L119.039 457.545Z" fill="#E992EC"/>
<path d="M115.626 468.934L114.96 471.832L114.954 471.858C114.828 472.409 114.279 472.752 113.728 472.626C113.178 472.499 112.834 471.951 112.961 471.4L113.646 468.449C113.773 467.901 114.321 467.56 114.869 467.687C115.417 467.815 115.759 468.362 115.631 468.91L115.626 468.934Z" fill="#E992EC"/>
<path d="M113.422 480.615L113.066 483.566L113.063 483.594C112.995 484.162 112.478 484.567 111.91 484.498C111.342 484.429 110.937 483.913 111.006 483.345L111.376 480.338C111.446 479.772 111.961 479.369 112.527 479.439C113.093 479.508 113.496 480.024 113.426 480.59L113.422 480.615Z" fill="#E992EC"/>
<path d="M112.481 492.459L112.45 495.429V495.458C112.444 496.038 111.969 496.502 111.39 496.496C110.81 496.49 110.346 496.015 110.352 495.436L110.39 492.405C110.397 491.827 110.871 491.365 111.449 491.372C112.027 491.379 112.489 491.854 112.482 492.431L112.481 492.459Z" fill="#E992EC"/>
<path d="M112.85 504.332L113.14 507.29L113.143 507.318C113.2 507.902 112.773 508.422 112.189 508.479C111.605 508.536 111.085 508.109 111.028 507.525L110.739 504.509C110.683 503.927 111.11 503.409 111.692 503.353C112.274 503.297 112.792 503.724 112.848 504.306L112.85 504.332Z" fill="#E992EC"/>
<path d="M114.468 516.108L115.06 519.021L115.065 519.048C115.183 519.63 114.807 520.198 114.225 520.316C113.643 520.434 113.075 520.058 112.957 519.476L112.361 516.506C112.244 515.925 112.621 515.36 113.201 515.243C113.782 515.126 114.347 515.503 114.464 516.084L114.468 516.108Z" fill="#E992EC"/>
<path d="M117.27 527.661L118.148 530.502L118.156 530.527C118.334 531.102 118.012 531.712 117.437 531.889C116.862 532.067 116.252 531.745 116.074 531.17L115.186 528.274C115.01 527.701 115.332 527.093 115.906 526.917C116.479 526.741 117.087 527.063 117.263 527.637L117.27 527.661Z" fill="#E992EC"/>
<path d="M121.194 538.885L122.342 541.628L122.352 541.652C122.587 542.214 122.323 542.86 121.761 543.095C121.199 543.33 120.553 543.066 120.318 542.504L119.155 539.708C118.922 539.148 119.187 538.504 119.748 538.271C120.309 538.038 120.952 538.303 121.185 538.864L121.194 538.885Z" fill="#E992EC"/>
<path d="M126.174 549.684L127.577 552.306L127.589 552.329C127.88 552.872 127.675 553.549 127.131 553.839C126.587 554.13 125.911 553.925 125.621 553.381L124.198 550.707C123.91 550.164 124.115 549.491 124.658 549.202C125.2 548.913 125.874 549.119 126.163 549.662L126.174 549.684Z" fill="#E992EC"/>
<path d="M132.148 559.966L133.79 562.445L133.805 562.467C134.149 562.987 134.007 563.688 133.487 564.032C132.967 564.376 132.266 564.234 131.922 563.714L130.255 561.185C129.913 560.666 130.056 559.968 130.575 559.625C131.094 559.283 131.792 559.427 132.135 559.946L132.148 559.966Z" fill="#E992EC"/>
<path d="M139.056 569.644L140.922 571.958L140.939 571.979C141.335 572.47 141.258 573.19 140.767 573.586C140.276 573.982 139.557 573.905 139.16 573.414L137.263 571.052C136.869 570.561 136.947 569.844 137.438 569.45C137.929 569.056 138.646 569.135 139.04 569.625L139.056 569.644Z" fill="#E992EC"/>
<path d="M146.844 578.625L148.922 580.75L148.942 580.77C149.389 581.226 149.38 581.958 148.924 582.405C148.467 582.851 147.736 582.843 147.289 582.387L145.175 580.216C144.731 579.76 144.741 579.03 145.197 578.586C145.653 578.142 146.383 578.152 146.827 578.608L146.844 578.625Z" fill="#E992EC"/>
<path d="M155.457 586.81L157.733 588.72L157.755 588.739C158.25 589.154 158.314 589.892 157.899 590.386C157.484 590.881 156.746 590.945 156.252 590.53L153.934 588.576C153.442 588.161 153.379 587.426 153.794 586.933C154.209 586.441 154.945 586.378 155.437 586.793L155.457 586.81Z" fill="#E992EC"/>
<path d="M164.84 594.09L167.298 595.754L167.324 595.772C167.865 596.138 168.006 596.873 167.64 597.414C167.274 597.955 166.538 598.096 165.998 597.73L163.49 596.024C162.952 595.658 162.812 594.924 163.178 594.386C163.544 593.847 164.278 593.708 164.816 594.074L164.84 594.09Z" fill="#E992EC"/>
<path d="M174.926 600.343L177.549 601.732L177.576 601.746C178.16 602.055 178.382 602.779 178.073 603.362C177.764 603.946 177.04 604.168 176.457 603.859C175.564 603.385 174.665 602.923 173.779 602.434C173.202 602.116 172.993 601.39 173.312 600.813C173.627 600.243 174.34 600.032 174.913 600.335L174.926 600.343Z" fill="#E992EC"/>
<path d="M185.626 605.483L188.38 606.593L188.409 606.605C189.029 606.855 189.328 607.559 189.079 608.178C188.829 608.798 188.125 609.097 187.505 608.848L184.694 607.708C184.077 607.458 183.779 606.755 184.03 606.137C184.28 605.52 184.983 605.222 185.601 605.473L185.626 605.483Z" fill="#E992EC"/>
<path d="M196.8 609.495L199.653 610.32L199.682 610.329C200.331 610.517 200.704 611.194 200.517 611.843C200.329 612.491 199.652 612.865 199.003 612.678L196.091 611.829C195.444 611.641 195.073 610.964 195.262 610.317C195.451 609.67 196.127 609.299 196.774 609.488L196.8 609.495Z" fill="#E992EC"/>
<path d="M208.321 612.364L211.241 612.903L211.271 612.909C211.942 613.033 212.386 613.677 212.262 614.349C212.138 615.02 211.493 615.464 210.822 615.34L207.841 614.783C207.172 614.658 206.731 614.014 206.856 613.345C206.981 612.676 207.625 612.235 208.294 612.36L208.321 612.364Z" fill="#E992EC"/>
<path d="M220.071 614.095L223.03 614.352L223.059 614.355C223.746 614.415 224.255 615.02 224.195 615.707C224.135 616.394 223.53 616.903 222.842 616.844L219.822 616.575C219.137 616.514 218.63 615.909 218.691 615.223C218.752 614.538 219.357 614.032 220.043 614.093L220.071 614.095Z" fill="#E992EC"/>
<path d="M231.933 614.707L234.904 614.688H234.933C235.63 614.684 236.199 615.245 236.204 615.942C236.208 616.639 235.647 617.208 234.95 617.213L231.919 617.226C231.223 617.229 230.657 616.667 230.655 615.972C230.652 615.277 231.213 614.71 231.909 614.707H231.933Z" fill="#E992EC"/>
<path d="M243.805 614.229L246.763 613.944L246.791 613.941C247.489 613.874 248.109 614.385 248.176 615.083C248.243 615.781 247.732 616.401 247.034 616.468L244.019 616.757C243.321 616.824 242.702 616.313 242.635 615.615C242.568 614.918 243.08 614.298 243.777 614.231L243.805 614.229Z" fill="#E992EC"/>
<path d="M255.59 612.696L258.512 612.151L258.539 612.146C259.23 612.017 259.894 612.473 260.023 613.164C260.152 613.855 259.696 614.519 259.005 614.648L256.027 615.202C255.337 615.331 254.673 614.875 254.544 614.184C254.415 613.494 254.871 612.83 255.561 612.701L255.59 612.696Z" fill="#E992EC"/>
<path d="M267.196 610.136L270.06 609.339L270.087 609.332C270.766 609.143 271.469 609.54 271.658 610.219C271.847 610.898 271.45 611.601 270.771 611.79L267.853 612.6C267.175 612.788 266.472 612.391 266.284 611.713C266.096 611.035 266.493 610.332 267.171 610.144L267.196 610.136Z" fill="#E992EC"/>
<path d="M278.538 606.58L281.322 605.539L281.348 605.529C282.009 605.282 282.746 605.618 282.993 606.279C283.24 606.94 282.905 607.677 282.243 607.924L279.406 608.983C278.745 609.23 278.009 608.894 277.762 608.233C277.515 607.572 277.851 606.836 278.512 606.589L278.538 606.58Z" fill="#E992EC"/>
<path d="M289.532 602.061L292.218 600.785L292.241 600.774C292.88 600.47 293.645 600.742 293.948 601.382C294.252 602.021 293.98 602.786 293.341 603.089L290.606 604.386C289.967 604.689 289.203 604.417 288.9 603.778C288.597 603.139 288.869 602.375 289.508 602.072L289.532 602.061Z" fill="#E992EC"/>
<path d="M300.129 596.648L302.714 595.172L302.734 595.161C303.35 594.809 304.135 595.023 304.486 595.639C304.838 596.255 304.623 597.04 304.008 597.391L301.382 598.889C300.766 599.24 299.982 599.026 299.631 598.41C299.28 597.794 299.494 597.01 300.11 596.659L300.129 596.648Z" fill="#E992EC"/>
<path d="M310.308 590.471L312.786 588.818L312.804 588.806C313.396 588.411 314.195 588.571 314.59 589.163C314.985 589.754 314.825 590.554 314.233 590.948L311.718 592.624C311.127 593.018 310.328 592.858 309.934 592.267C309.54 591.676 309.7 590.877 310.291 590.483L310.308 590.471Z" fill="#E992EC"/>
<path d="M320.06 583.623L322.432 581.818L322.447 581.807C323.014 581.375 323.824 581.485 324.256 582.052C324.688 582.619 324.578 583.429 324.011 583.861L321.607 585.689C321.04 586.12 320.231 586.01 319.8 585.443C319.369 584.876 319.479 584.067 320.046 583.636L320.06 583.623Z" fill="#E992EC"/>
<path d="M329.396 576.201L331.667 574.267L331.679 574.256C332.223 573.793 333.039 573.858 333.502 574.402C333.965 574.946 333.9 575.762 333.356 576.225L331.058 578.18C330.514 578.643 329.698 578.577 329.236 578.033C328.773 577.489 328.839 576.673 329.383 576.211L329.396 576.201Z" fill="#E992EC"/>
<path d="M338.341 568.297L340.521 566.256L340.531 566.246C341.054 565.757 341.874 565.784 342.364 566.306C342.853 566.829 342.826 567.649 342.303 568.139L340.101 570.198C339.578 570.687 338.758 570.659 338.269 570.137C337.78 569.614 337.808 568.794 338.33 568.306L338.341 568.297Z" fill="#E992EC"/>
<path d="M346.935 559.999L349.034 557.872L349.042 557.864C349.546 557.353 350.369 557.348 350.88 557.852C351.391 558.356 351.396 559.179 350.892 559.69L348.775 561.833C348.271 562.343 347.449 562.348 346.938 561.844C346.428 561.34 346.422 560.518 346.926 560.007L346.935 559.999Z" fill="#E992EC"/>
<path d="M355.224 551.382L357.254 549.186L357.261 549.179C357.749 548.651 358.573 548.619 359.102 549.107C359.63 549.595 359.663 550.42 359.174 550.948L357.13 553.157C356.642 553.685 355.818 553.717 355.29 553.228C354.762 552.74 354.73 551.916 355.219 551.388L355.224 551.382Z" fill="#E992EC"/>
<path d="M363.251 542.52L365.23 540.266C365.706 539.724 366.535 539.665 367.077 540.141C367.619 540.617 367.673 541.442 367.197 541.983L365.212 544.243C364.736 544.784 363.912 544.838 363.37 544.362C362.829 543.885 362.776 543.061 363.251 542.52Z" fill="#E992EC"/>
<path d="M371.081 533.459L373.015 531.167C373.481 530.615 374.31 530.541 374.863 531.007C375.415 531.473 375.485 532.299 375.019 532.851L373.079 535.147C372.613 535.699 371.788 535.768 371.236 535.302C370.685 534.836 370.615 534.01 371.081 533.459Z" fill="#E992EC"/>
<path d="M378.761 524.256L380.663 521.94C381.121 521.379 381.948 521.296 382.509 521.754C383.07 522.212 383.153 523.039 382.695 523.6L380.785 525.923C380.325 526.482 379.499 526.563 378.94 526.103C378.38 525.644 378.301 524.816 378.761 524.256Z" fill="#E992EC"/>
<path d="M386.339 514.966L388.224 512.634C388.68 512.069 389.507 511.98 390.072 512.436C390.637 512.892 390.726 513.719 390.27 514.285L388.381 516.62C387.924 517.184 387.097 517.271 386.533 516.815C385.969 516.358 385.882 515.53 386.339 514.966Z" fill="#E992EC"/>
<path d="M393.868 505.627L395.749 503.29C396.205 502.723 397.035 502.633 397.602 503.089C398.169 503.545 398.259 504.375 397.802 504.942L395.92 507.279C395.464 507.845 394.635 507.935 394.068 507.479C393.502 507.022 393.412 506.193 393.868 505.627Z" fill="#E992EC"/>
<path d="M401.402 496.282L403.292 493.95C403.751 493.383 404.583 493.296 405.149 493.755C405.716 494.214 405.803 495.046 405.344 495.612L403.454 497.942C402.996 498.509 402.165 498.597 401.598 498.139C401.031 497.681 400.943 496.848 401.402 496.282Z" fill="#E992EC"/>
<path d="M408.99 486.972L410.902 484.655C411.367 484.091 412.201 484.011 412.765 484.476C413.329 484.941 413.409 485.775 412.944 486.339L411.033 488.653C410.569 489.218 409.736 489.3 409.171 488.836C408.606 488.372 408.526 487.536 408.99 486.972Z" fill="#E992EC"/>
<path d="M416.685 477.739L418.631 475.448C419.105 474.89 419.943 474.822 420.501 475.296C421.059 475.77 421.127 476.607 420.653 477.166L418.709 479.452C418.235 480.01 417.394 480.082 416.837 479.607C416.278 479.134 416.21 478.297 416.685 477.739Z" fill="#E992EC"/>
<path d="M424.537 468.631L426.531 466.379C427.018 465.829 427.858 465.778 428.408 466.265C428.958 466.752 429.009 467.592 428.522 468.142L426.532 470.388C426.045 470.937 425.2 470.994 424.651 470.507C424.102 470.02 424.05 469.18 424.537 468.631Z" fill="#E992EC"/>
<path d="M432.597 459.695L434.651 457.494C435.153 456.956 435.996 456.927 436.535 457.429C437.073 457.931 437.102 458.774 436.6 459.313L436.593 459.321L434.552 461.506L434.545 461.513C434.043 462.051 433.2 462.079 432.663 461.577C432.124 461.075 432.095 460.233 432.597 459.695Z" fill="#E992EC"/>
<path d="M440.917 450.988L443.043 448.854C443.564 448.331 444.409 448.33 444.932 448.851C445.455 449.372 445.456 450.217 444.935 450.74L444.926 450.749L442.816 452.865L442.808 452.873C442.287 453.395 441.442 453.396 440.92 452.876C440.398 452.355 440.396 451.51 440.917 450.988Z" fill="#E992EC"/>
<path d="M449.543 442.573L451.753 440.523C452.295 440.02 453.142 440.052 453.645 440.594C454.148 441.136 454.116 441.983 453.574 442.486L453.563 442.496L451.373 444.526L451.363 444.536C450.821 445.038 449.974 445.006 449.472 444.464C448.969 443.921 449.001 443.075 449.543 442.573Z" fill="#E992EC"/>
<path d="M458.52 434.52L460.824 432.572C461.39 432.094 462.236 432.165 462.715 432.731C463.193 433.297 463.122 434.143 462.557 434.622L462.544 434.633L460.265 436.558L460.253 436.569C459.687 437.047 458.841 436.975 458.363 436.41C457.883 435.843 457.954 434.997 458.52 434.52Z" fill="#E992EC"/>
<path d="M467.886 426.907L470.295 425.084C470.887 424.636 471.731 424.753 472.179 425.345C472.627 425.937 472.51 426.781 471.918 427.229L471.901 427.242L469.524 429.039L469.508 429.051C468.916 429.499 468.073 429.382 467.625 428.79C467.178 428.197 467.294 427.355 467.886 426.907Z" fill="#E992EC"/>
<path d="M477.684 419.839L480.199 418.166C480.819 417.754 481.655 417.922 482.067 418.542C482.479 419.162 482.311 419.998 481.691 420.41L481.673 420.422L479.191 422.071L479.174 422.082C478.554 422.494 477.718 422.325 477.307 421.705C476.896 421.086 477.064 420.251 477.684 419.839Z" fill="#E992EC"/>
<path d="M487.893 413.38L490.505 411.863C491.15 411.488 491.977 411.708 492.351 412.353C492.726 412.998 492.507 413.825 491.862 414.199L491.844 414.21L489.267 415.705L489.249 415.715C488.604 416.089 487.778 415.87 487.404 415.225C487.029 414.58 487.248 413.754 487.893 413.38Z" fill="#E992EC"/>
<path d="M498.473 407.55L501.171 406.193C501.839 405.857 502.652 406.126 502.988 406.794C503.324 407.462 503.055 408.276 502.387 408.612L502.368 408.621L499.705 409.959L499.687 409.968C499.019 410.303 498.206 410.034 497.871 409.366C497.536 408.698 497.805 407.886 498.473 407.55Z" fill="#E992EC"/>
<path d="M509.383 402.365L512.157 401.171C512.845 400.875 513.643 401.192 513.94 401.881C514.236 402.569 513.918 403.367 513.23 403.664L513.211 403.672L510.473 404.849L510.455 404.857C509.767 405.153 508.97 404.835 508.674 404.147C508.377 403.458 508.695 402.661 509.383 402.365Z" fill="#E992EC"/>
<path d="M520.581 397.837L523.421 396.809C524.127 396.553 524.907 396.919 525.162 397.625C525.418 398.331 525.052 399.111 524.346 399.366L524.327 399.373L521.525 400.386L521.506 400.393C520.8 400.648 520.021 400.283 519.766 399.577C519.51 398.871 519.875 398.093 520.581 397.837Z" fill="#E992EC"/>
<path d="M532.026 393.978L534.921 393.118C535.642 392.904 536.401 393.315 536.615 394.036C536.829 394.757 536.418 395.516 535.696 395.73L535.676 395.736L532.819 396.583L532.8 396.589C532.079 396.803 531.321 396.391 531.107 395.67C530.894 394.949 531.304 394.191 532.026 393.978Z" fill="#E992EC"/>
<path d="M543.676 390.793L546.616 390.103C547.35 389.931 548.085 390.386 548.258 391.121C548.43 391.855 547.975 392.59 547.24 392.763L547.22 392.768L544.318 393.447L544.299 393.451C543.565 393.623 542.831 393.167 542.659 392.433C542.487 391.699 542.942 390.965 543.676 390.793Z" fill="#E992EC"/>
<path d="M555.492 388.291L558.467 387.773C559.212 387.643 559.921 388.142 560.05 388.886C560.18 389.631 559.681 390.34 558.936 390.469L558.916 390.472L555.98 390.982L555.961 390.986C555.217 391.115 554.508 390.617 554.379 389.872C554.25 389.127 554.747 388.42 555.492 388.291Z" fill="#E992EC"/>
<path d="M567.432 386.475L570.432 386.129C571.184 386.042 571.865 386.582 571.952 387.334C572.039 388.087 571.499 388.767 570.747 388.854L570.727 388.856L567.766 389.196L567.746 389.198C566.994 389.284 566.314 388.745 566.227 387.992C566.14 387.241 566.679 386.561 567.432 386.475Z" fill="#E992EC"/>
<path d="M579.456 385.349L582.471 385.176C583.229 385.132 583.879 385.711 583.922 386.469C583.965 387.227 583.387 387.877 582.629 387.92L582.608 387.921L579.633 388.091L579.613 388.092C578.855 388.135 578.206 387.556 578.163 386.798C578.12 386.041 578.698 385.392 579.456 385.349Z" fill="#E992EC"/>
<path d="M591.525 384.915H594.545C595.306 384.915 595.923 385.532 595.923 386.293C595.923 387.054 595.306 387.671 594.545 387.671H594.524L591.544 387.67H591.524C590.764 387.669 590.147 387.053 590.148 386.292C590.149 385.531 590.765 384.915 591.525 384.915Z" fill="#E992EC"/>
<path d="M603.6 385.176L606.615 385.35C607.376 385.394 607.958 386.047 607.914 386.808C607.87 387.569 607.217 388.151 606.456 388.107L606.435 388.106L603.46 387.933L603.44 387.932C602.679 387.888 602.098 387.235 602.143 386.474C602.187 385.713 602.839 385.132 603.6 385.176Z" fill="#E992EC"/>
<path d="M615.639 386.132L618.639 386.48C619.398 386.568 619.942 387.255 619.854 388.014C619.766 388.773 619.079 389.317 618.32 389.229L618.299 389.226L615.339 388.881L615.319 388.879C614.56 388.791 614.017 388.104 614.105 387.345C614.195 386.587 614.881 386.044 615.639 386.132Z" fill="#E992EC"/>
<path d="M627.604 387.785L630.579 388.307C631.333 388.439 631.838 389.158 631.705 389.912C631.573 390.666 630.854 391.17 630.1 391.038L630.079 391.034L627.145 390.518L627.125 390.515C626.371 390.382 625.867 389.664 626 388.91C626.132 388.156 626.85 387.652 627.604 387.785Z" fill="#E992EC"/>
<path d="M639.453 390.132L642.392 390.827C643.139 391.004 643.601 391.752 643.425 392.499C643.248 393.246 642.5 393.708 641.753 393.532L641.732 393.527L638.833 392.84L638.813 392.835C638.067 392.658 637.605 391.91 637.782 391.163C637.958 390.417 638.706 389.955 639.453 390.132Z" fill="#E992EC"/>
<path d="M651.144 393.172L654.037 394.04C654.774 394.261 655.192 395.037 654.971 395.774C654.75 396.511 653.973 396.929 653.237 396.708L653.216 396.702L650.363 395.845L650.343 395.839C649.607 395.618 649.189 394.842 649.411 394.105C649.632 393.368 650.407 392.951 651.144 393.172Z" fill="#E992EC"/>
<path d="M662.635 396.901L665.471 397.94C666.195 398.205 666.567 399.007 666.301 399.731C666.036 400.455 665.234 400.827 664.51 400.561L664.49 400.554L661.694 399.528L661.674 399.521C660.951 399.256 660.58 398.454 660.845 397.731C661.11 397.007 661.911 396.635 662.635 396.901Z" fill="#E992EC"/>
<path d="M673.882 401.312L676.651 402.52C677.359 402.829 677.682 403.653 677.373 404.361C677.064 405.069 676.24 405.392 675.532 405.084L675.512 405.075L672.783 403.882L672.763 403.874C672.056 403.565 671.733 402.741 672.042 402.033C672.351 401.326 673.175 401.003 673.882 401.312Z" fill="#E992EC"/>
<path d="M684.844 406.396L687.534 407.771C688.224 408.123 688.497 408.968 688.144 409.657C687.792 410.346 686.947 410.62 686.258 410.267L686.238 410.257L683.586 408.9L683.567 408.89C682.878 408.538 682.606 407.693 682.958 407.005C683.311 406.317 684.155 406.044 684.844 406.396Z" fill="#E992EC"/>
<path d="M695.475 412.141L698.076 413.679C698.744 414.074 698.965 414.935 698.57 415.603C698.175 416.271 697.314 416.492 696.646 416.097L696.627 416.086L694.064 414.569L694.045 414.558C693.378 414.163 693.157 413.302 693.552 412.635C693.947 411.968 694.807 411.746 695.475 412.141Z" fill="#E992EC"/>
<path d="M705.733 418.531L708.234 420.226C708.877 420.662 709.046 421.538 708.609 422.181C708.173 422.824 707.297 422.993 706.654 422.556L706.637 422.544L704.172 420.871L704.154 420.859C703.511 420.423 703.343 419.548 703.779 418.905C704.216 418.262 705.09 418.094 705.733 418.531Z" fill="#E992EC"/>
<path d="M715.595 425.482L718.011 427.279C718.636 427.744 718.766 428.628 718.301 429.253C717.836 429.878 716.952 430.008 716.327 429.543L716.317 429.536L713.92 427.751L713.91 427.744C713.285 427.279 713.156 426.396 713.621 425.771C714.087 425.147 714.97 425.017 715.595 425.482Z" fill="#E992EC"/>
<path d="M725.178 432.761L727.548 434.608C728.164 435.088 728.274 435.976 727.794 436.592C727.314 437.208 726.426 437.318 725.81 436.838L723.444 434.992C722.827 434.514 722.715 433.626 723.193 433.009C723.671 432.393 724.561 432.283 725.178 432.761Z" fill="#E992EC"/>
<path d="M734.629 440.168L736.987 442.019C737.603 442.501 737.712 443.391 737.23 444.008C736.748 444.624 735.857 444.733 735.241 444.251L732.878 442.395C732.263 441.912 732.156 441.022 732.639 440.407C733.123 439.791 734.014 439.685 734.629 440.168Z" fill="#E992EC"/>
<path d="M744.087 447.524L746.468 449.334L746.475 449.34C747.1 449.815 747.221 450.705 746.746 451.33C746.272 451.954 745.381 452.076 744.756 451.601L742.361 449.779C741.737 449.304 741.616 448.414 742.091 447.79C742.565 447.166 743.456 447.045 744.08 447.52L744.087 447.524Z" fill="#E992EC"/>
<path d="M753.688 454.646L756.126 456.366L756.14 456.376C756.782 456.829 756.935 457.717 756.482 458.359C756.029 459.001 755.141 459.154 754.499 458.701L752.035 456.96C751.393 456.507 751.241 455.62 751.694 454.978C752.147 454.337 753.034 454.184 753.676 454.637L753.688 454.646Z" fill="#E992EC"/>
<path d="M763.562 461.325L766.088 462.897L766.109 462.91C766.778 463.326 766.982 464.205 766.566 464.874C766.15 465.542 765.271 465.747 764.602 465.331L762.034 463.731C761.366 463.315 761.162 462.436 761.578 461.768C761.994 461.1 762.873 460.896 763.541 461.312L763.562 461.325Z" fill="#E992EC"/>
<path d="M773.829 467.309L776.468 468.661L776.499 468.677C777.201 469.037 777.479 469.898 777.119 470.6C776.759 471.302 775.898 471.58 775.196 471.22L772.495 469.834C771.793 469.474 771.516 468.613 771.876 467.912C772.236 467.21 773.097 466.933 773.798 467.293L773.829 467.309Z" fill="#E992EC"/>
<path d="M784.572 472.286L787.336 473.331L787.379 473.347C788.119 473.627 788.491 474.453 788.211 475.193C787.931 475.933 787.105 476.305 786.365 476.026L783.517 474.947C782.778 474.667 782.406 473.841 782.686 473.102C782.966 472.363 783.792 471.991 784.531 472.271L784.572 472.286Z" fill="#E992EC"/>
<path d="M795.801 475.899L798.674 476.547L798.727 476.559C799.5 476.733 799.985 477.501 799.811 478.274C799.636 479.047 798.869 479.532 798.096 479.358L795.116 478.684C794.344 478.509 793.859 477.741 794.034 476.969C794.209 476.197 794.977 475.712 795.749 475.887L795.801 475.899Z" fill="#E992EC"/>
<path d="M807.406 477.809C808.383 477.889 809.359 477.926 810.336 477.987L810.406 477.991C811.198 478.041 811.8 478.723 811.751 479.516C811.701 480.308 811.02 480.91 810.227 480.861C809.208 480.798 808.184 480.757 807.168 480.673C806.377 480.608 805.788 479.914 805.853 479.123C805.918 478.333 806.615 477.744 807.406 477.809Z" fill="#E992EC"/>
<path d="M819.129 477.72L822.044 477.368L822.107 477.36C822.897 477.265 823.614 477.828 823.71 478.618C823.805 479.408 823.242 480.125 822.452 480.221L819.41 480.586C818.62 480.681 817.904 480.118 817.809 479.328C817.714 478.539 818.278 477.822 819.067 477.727L819.129 477.72Z" fill="#E992EC"/>
<path d="M830.667 475.562L833.485 474.721L833.541 474.704C834.305 474.476 835.109 474.911 835.337 475.675C835.565 476.439 835.13 477.243 834.366 477.471L831.434 478.344C830.67 478.572 829.867 478.137 829.639 477.373C829.411 476.609 829.846 475.806 830.61 475.578L830.667 475.562Z" fill="#E992EC"/>
<path d="M841.718 471.536L844.377 470.267L844.425 470.244C845.146 469.9 846.01 470.206 846.354 470.927C846.698 471.648 846.392 472.511 845.671 472.855L842.914 474.169C842.193 474.513 841.33 474.206 840.987 473.485C840.643 472.764 840.949 471.901 841.67 471.558L841.718 471.536Z" fill="#E992EC"/>
<path d="M852.066 465.898L854.525 464.267L854.566 464.24C855.233 463.797 856.133 463.98 856.575 464.647C857.018 465.314 856.835 466.214 856.168 466.656L853.626 468.34C852.959 468.782 852.06 468.599 851.618 467.932C851.176 467.265 851.359 466.366 852.026 465.924L852.066 465.898Z" fill="#E992EC"/>
<path d="M861.572 458.9L863.805 456.965L863.839 456.936C864.445 456.411 865.363 456.476 865.888 457.083C866.413 457.689 866.348 458.607 865.742 459.132L863.439 461.125C862.833 461.65 861.916 461.584 861.391 460.977C860.866 460.371 860.932 459.454 861.538 458.929L861.572 458.9Z" fill="#E992EC"/>
<path d="M870.143 450.764L872.131 448.575L872.159 448.544C872.7 447.949 873.62 447.904 874.215 448.445C874.81 448.985 874.855 449.906 874.314 450.501L872.268 452.752C871.727 453.347 870.807 453.391 870.213 452.85C869.618 452.31 869.574 451.389 870.115 450.795L870.143 450.764Z" fill="#E992EC"/>
<path d="M877.706 441.672L879.432 439.269L879.456 439.236C879.926 438.581 880.837 438.432 881.492 438.902C882.146 439.372 882.296 440.283 881.826 440.938L880.051 443.408C879.581 444.062 878.67 444.211 878.016 443.741C877.362 443.271 877.213 442.36 877.683 441.706L877.706 441.672Z" fill="#E992EC"/>
<path d="M884.196 431.781L885.642 429.199L885.662 429.163C886.056 428.459 886.947 428.207 887.652 428.602C888.356 428.997 888.608 429.887 888.213 430.592L886.725 433.245C886.33 433.949 885.44 434.199 884.736 433.805C884.032 433.41 883.782 432.52 884.176 431.816L884.196 431.781Z" fill="#E992EC"/>
<path d="M889.538 421.226L890.684 418.499L890.7 418.461C891.014 417.715 891.872 417.365 892.618 417.678C893.364 417.992 893.714 418.85 893.401 419.596L892.22 422.4C891.906 423.145 891.048 423.495 890.303 423.181C889.558 422.867 889.208 422.009 889.522 421.264L889.538 421.226Z" fill="#E992EC"/>
<path d="M893.648 410.138L894.472 407.298L894.484 407.256C894.71 406.477 895.524 406.029 896.303 406.255C897.082 406.481 897.53 407.295 897.304 408.074L896.454 410.997C896.228 411.775 895.414 412.222 894.636 411.996C893.858 411.77 893.411 410.956 893.637 410.178L893.648 410.138Z" fill="#E992EC"/>
<path d="M896.496 398.644L897.027 395.728L897.033 395.693C897.179 394.894 897.944 394.364 898.744 394.509C899.543 394.655 900.073 395.42 899.928 396.22L899.382 399.207C899.236 400.006 898.471 400.535 897.672 400.389C896.873 400.243 896.344 399.477 896.49 398.679L896.496 398.644Z" fill="#E992EC"/>
<path d="M898.196 386.912L898.446 383.957L898.449 383.923C898.518 383.112 899.231 382.51 900.042 382.579C900.853 382.648 901.455 383.361 901.386 384.172L901.128 387.196C901.059 388.007 900.346 388.608 899.535 388.539C898.724 388.47 898.123 387.757 898.192 386.946L898.196 386.912Z" fill="#E992EC"/>
<path d="M898.792 375.065L898.775 372.097V372.065C898.77 371.249 899.428 370.584 900.243 370.58C901.059 370.575 901.724 371.233 901.728 372.048L901.744 375.081C901.748 375.896 901.091 376.561 900.276 376.565C899.461 376.569 898.797 375.912 898.792 375.097V375.065Z" fill="#E992EC"/>
<path d="M898.338 363.204L898.068 360.247L898.065 360.216C897.991 359.402 898.59 358.682 899.404 358.607C900.218 358.533 900.938 359.132 901.012 359.946L901.286 362.965C901.36 363.778 900.761 364.498 899.947 364.572C899.134 364.646 898.414 364.047 898.34 363.233L898.338 363.204Z" fill="#E992EC"/>
<path d="M896.895 351.415L896.386 348.488L896.381 348.459C896.241 347.652 896.781 346.884 897.588 346.744C898.395 346.604 899.163 347.144 899.303 347.951L899.82 350.937C899.96 351.744 899.419 352.511 898.613 352.651C897.806 352.791 897.039 352.25 896.9 351.444L896.895 351.415Z" fill="#E992EC"/>
<path d="M894.519 339.773L893.786 336.893L893.779 336.866C893.577 336.071 894.057 335.262 894.852 335.059C895.647 334.856 896.456 335.337 896.658 336.132L897.404 339.068C897.606 339.863 897.125 340.671 896.33 340.873C895.535 341.075 894.727 340.594 894.525 339.799L894.519 339.773Z" fill="#E992EC"/>
<path d="M891.264 328.341L890.318 325.523L890.309 325.497C890.047 324.717 890.467 323.873 891.247 323.612C892.026 323.35 892.87 323.77 893.132 324.55L894.094 327.421C894.355 328.2 893.935 329.044 893.156 329.305C892.377 329.566 891.533 329.146 891.272 328.366L891.264 328.341Z" fill="#E992EC"/>
<path d="M887.175 317.177L886.027 314.434L886.017 314.409C885.699 313.649 886.057 312.775 886.817 312.457C887.577 312.139 888.451 312.497 888.769 313.257L889.937 316.051C890.255 316.811 889.896 317.684 889.136 318.002C888.376 318.32 887.503 317.961 887.185 317.201L887.175 317.177Z" fill="#E992EC"/>
<path d="M882.29 306.336L880.948 303.683L880.936 303.659C880.563 302.922 880.858 302.023 881.595 301.65C882.332 301.277 883.231 301.573 883.604 302.309L884.969 305.011C885.341 305.747 885.046 306.646 884.309 307.018C883.572 307.39 882.674 307.095 882.302 306.358L882.29 306.336Z" fill="#E992EC"/>
<path d="M876.638 295.876L875.108 293.327L875.094 293.303C874.668 292.594 874.898 291.674 875.607 291.248C876.317 290.822 877.237 291.052 877.662 291.761L879.219 294.358C879.644 295.067 879.414 295.987 878.705 296.412C877.996 296.837 877.076 296.607 876.651 295.898L876.638 295.876Z" fill="#E992EC"/>
<path d="M870.244 285.861L868.526 283.448L868.505 283.418C868.027 282.747 868.184 281.816 868.855 281.338C869.526 280.86 870.454 281.012 870.932 281.683L872.703 284.149C873.186 284.821 873.032 285.757 872.36 286.239C871.688 286.721 870.752 286.568 870.27 285.896L870.244 285.861Z" fill="#E992EC"/>
<path d="M863.047 276.42L861.134 274.14L861.119 274.122C860.598 273.501 860.679 272.576 861.3 272.055C861.921 271.534 862.842 271.611 863.363 272.232L865.315 274.54C865.84 275.161 865.763 276.091 865.142 276.616C864.521 277.141 863.591 277.064 863.066 276.443L863.047 276.42Z" fill="#E992EC"/>
<path d="M855.194 267.456L853.157 265.276L853.146 265.264C852.602 264.682 852.633 263.769 853.215 263.226C853.797 262.682 854.706 262.709 855.249 263.291L857.318 265.486C857.867 266.068 857.839 266.985 857.257 267.534C856.675 268.083 855.758 268.055 855.209 267.473L855.194 267.456Z" fill="#E992EC"/>
<path d="M846.904 258.864L844.778 256.766L844.769 256.757C844.212 256.207 844.206 255.309 844.756 254.752C845.306 254.195 846.199 254.185 846.756 254.735L848.909 256.842C849.471 257.392 849.48 258.293 848.93 258.855C848.38 259.417 847.479 259.427 846.917 258.876L846.904 258.864Z" fill="#E992EC"/>
<path d="M838.291 250.576L836.096 248.547L836.088 248.54C835.523 248.018 835.489 247.136 836.011 246.572C836.533 246.007 837.41 245.969 837.975 246.491L840.193 248.525C840.763 249.047 840.801 249.932 840.278 250.502C839.756 251.071 838.871 251.11 838.301 250.587L838.291 250.576Z" fill="#E992EC"/>
<path d="M829.423 242.551L827.171 240.583L827.164 240.577C826.595 240.08 826.537 239.215 827.034 238.646C827.531 238.077 828.391 238.015 828.961 238.513L831.234 240.484C831.808 240.981 831.869 241.849 831.372 242.423C830.875 242.997 830.006 243.059 829.433 242.561L829.423 242.551Z" fill="#E992EC"/>
<path d="M820.349 234.75L818.055 232.829L818.049 232.824C817.492 232.357 817.418 231.527 817.885 230.97C818.348 230.417 819.17 230.341 819.727 230.796L822.056 232.7C822.626 233.166 822.711 234.006 822.244 234.577C821.778 235.147 820.937 235.232 820.367 234.766C820.365 234.764 820.363 234.762 820.361 234.761L820.349 234.75Z" fill="#E992EC"/>
<path d="M811.104 227.148L808.764 225.281C808.226 224.852 808.133 224.064 808.562 223.526C808.988 222.992 809.763 222.902 810.301 223.32L812.674 225.168C813.224 225.597 813.323 226.39 812.894 226.941C812.465 227.491 811.672 227.59 811.121 227.161C811.119 227.159 811.117 227.158 811.115 227.156L811.104 227.148Z" fill="#E992EC"/>
<path d="M801.682 219.763L799.3 217.951C798.784 217.558 798.678 216.817 799.071 216.301C799.461 215.789 800.19 215.686 800.706 216.069L803.121 217.861C803.65 218.253 803.76 219 803.368 219.529C802.976 220.058 802.229 220.168 801.7 219.776C801.698 219.775 801.696 219.773 801.694 219.772L801.682 219.763Z" fill="#E992EC"/>
<path d="M792.088 212.602L789.663 210.848C789.169 210.491 789.053 209.797 789.41 209.303C789.764 208.813 790.447 208.7 790.94 209.048L793.397 210.781C793.903 211.138 794.024 211.837 793.667 212.344C793.31 212.85 792.611 212.971 792.104 212.614C792.102 212.613 792.1 212.611 792.098 212.61L792.088 212.602Z" fill="#E992EC"/>
<path d="M782.323 205.674L779.859 203.976L779.853 203.972C779.392 203.654 779.275 203.022 779.594 202.561C779.908 202.105 780.529 201.987 780.989 202.29L783.497 203.949C783.978 204.267 784.11 204.914 783.792 205.395C783.474 205.876 782.827 206.008 782.346 205.69C782.342 205.687 782.338 205.685 782.334 205.682L782.323 205.674Z" fill="#E992EC"/>
<path d="M772.391 198.991L769.876 197.37L769.869 197.366C769.452 197.097 769.331 196.54 769.601 196.122C769.867 195.709 770.414 195.587 770.83 195.844L773.389 197.425C773.825 197.695 773.96 198.267 773.691 198.703C773.422 199.139 772.849 199.274 772.413 199.005C772.409 199.003 772.405 199 772.402 198.998L772.391 198.991Z" fill="#E992EC"/>
<path d="M762.243 192.647L759.667 191.127L759.659 191.122C759.286 190.902 759.162 190.42 759.382 190.047C759.6 189.678 760.073 189.553 760.444 189.762L763.064 191.242C763.455 191.463 763.594 191.959 763.373 192.351C763.152 192.742 762.656 192.881 762.264 192.66C762.26 192.658 762.257 192.656 762.254 192.654L762.243 192.647Z" fill="#E992EC"/>
<path d="M751.837 186.751L749.184 185.375L749.173 185.369C748.861 185.207 748.739 184.823 748.901 184.51C749.06 184.203 749.436 184.08 749.745 184.231L752.454 185.549C752.789 185.712 752.929 186.116 752.766 186.452C752.603 186.787 752.199 186.927 751.863 186.764C751.859 186.762 751.855 186.76 751.85 186.758L751.837 186.751Z" fill="#E992EC"/>
<path d="M743.169 162.768L739.423 178.289L730.522 169.079L743.169 162.768Z" fill="url(#paint32_linear_37_315)"/>
<path d="M675.527 137.014L708.567 183.896C709.2 184.794 710.17 185.395 711.256 185.562C712.341 185.729 713.448 185.447 714.321 184.781L760.141 149.835C760.666 149.435 760.895 148.756 760.721 148.12C760.547 147.484 760.004 147.016 759.349 146.939L675.527 137.014Z" fill="url(#paint33_linear_37_315)"/>
<path d="M743.164 162.769L675.527 137.014L735.787 168.432L734.931 172.78L743.164 162.769Z" fill="url(#paint34_linear_37_315)"/>
<path d="M731.387 171.756L739.423 178.289L735.787 168.432L731.387 171.756Z" fill="url(#paint35_linear_37_315)"/>
<defs>
<linearGradient id="paint0_linear_37_315" x1="-62.8997" y1="762.632" x2="967.44" y2="14.4092" gradientUnits="userSpaceOnUse">
<stop stop-color="#3D3BF3"/>
</linearGradient>
<linearGradient id="paint1_linear_37_315" x1="844.215" y1="190.333" x2="-30.9834" y2="606.661" gradientUnits="userSpaceOnUse">
<stop stop-color="#8EA3A6"/>
<stop offset="1"/>
</linearGradient>
<linearGradient id="paint2_linear_37_315" x1="837.149" y1="131.441" x2="922.287" y2="583.547" gradientUnits="userSpaceOnUse">
<stop stop-color="#2B3582"/>
<stop offset="1" stop-color="#150E42"/>
</linearGradient>
<linearGradient id="paint3_linear_37_315" x1="735.518" y1="59.6632" x2="803.146" y2="308.396" gradientUnits="userSpaceOnUse">
<stop stop-color="#2B3582"/>
<stop offset="1" stop-color="#150E42"/>
</linearGradient>
<linearGradient id="paint4_linear_37_315" x1="645.388" y1="551.743" x2="877.874" y2="309.795" gradientUnits="userSpaceOnUse">
<stop stop-color="#233894"/>
<stop offset="0.9964"/>
</linearGradient>
<linearGradient id="paint5_linear_37_315" x1="765.19" y1="487.812" x2="860.168" y2="540.598" gradientUnits="userSpaceOnUse">
<stop stop-color="#2B3582"/>
<stop offset="1" stop-color="#150E42"/>
</linearGradient>
<linearGradient id="paint6_linear_37_315" x1="128.527" y1="217.118" x2="293.246" y2="192.042" gradientUnits="userSpaceOnUse">
<stop stop-color="#233894"/>
<stop offset="0.9964" stop-color="#DD397A"/>
</linearGradient>
<linearGradient id="paint7_linear_37_315" x1="106.174" y1="446.898" x2="279.188" y2="412.701" gradientUnits="userSpaceOnUse">
<stop stop-color="#2B3582"/>
<stop offset="1" stop-color="#150E42"/>
</linearGradient>
<linearGradient id="paint8_linear_37_315" x1="54.9437" y1="511.598" x2="262.135" y2="511.598" gradientUnits="userSpaceOnUse">
<stop stop-color="#233894"/>
<stop offset="0.9964" stop-color="#DD397A"/>
</linearGradient>
<linearGradient id="paint9_linear_37_315" x1="515.801" y1="146.438" x2="429.157" y2="921.282" gradientUnits="userSpaceOnUse">
<stop stop-color="#2C759E"/>
<stop offset="1" stop-color="#051042"/>
</linearGradient>
<linearGradient id="paint10_linear_37_315" x1="241.073" y1="228.997" x2="733.073" y2="228.997" gradientUnits="userSpaceOnUse">
<stop stop-color="#5AB6FF"/>
<stop offset="1" stop-color="#2F68E3"/>
</linearGradient>
<linearGradient id="paint11_linear_37_315" x1="240.636" y1="187.372" x2="733.212" y2="187.372" gradientUnits="userSpaceOnUse">
<stop stop-color="#53EAC9"/>
<stop offset="0.9964" stop-color="#45AED8"/>
</linearGradient>
<linearGradient id="paint12_linear_37_315" x1="240.636" y1="270.621" x2="733.212" y2="270.621" gradientUnits="userSpaceOnUse">
<stop stop-color="#53EAC9"/>
<stop offset="0.9964" stop-color="#45AED8"/>
</linearGradient>
<linearGradient id="paint13_linear_37_315" x1="239.277" y1="345.128" x2="733.073" y2="345.128" gradientUnits="userSpaceOnUse">
<stop stop-color="#5AB6FF"/>
<stop offset="1" stop-color="#2F68E3"/>
</linearGradient>
<linearGradient id="paint14_linear_37_315" x1="240.162" y1="302.297" x2="733.211" y2="302.297" gradientUnits="userSpaceOnUse">
<stop stop-color="#53EAC9"/>
<stop offset="0.9964" stop-color="#45AED8"/>
</linearGradient>
<linearGradient id="paint15_linear_37_315" x1="239.286" y1="386.511" x2="733.211" y2="386.511" gradientUnits="userSpaceOnUse">
<stop stop-color="#53EAC9"/>
<stop offset="0.9964" stop-color="#45AED8"/>
</linearGradient>
<linearGradient id="paint16_linear_37_315" x1="241.073" y1="462.288" x2="733.073" y2="462.288" gradientUnits="userSpaceOnUse">
<stop stop-color="#5AB6FF"/>
<stop offset="1" stop-color="#2F68E3"/>
</linearGradient>
<linearGradient id="paint17_linear_37_315" x1="240.636" y1="419.788" x2="733.212" y2="419.788" gradientUnits="userSpaceOnUse">
<stop stop-color="#53EAC9"/>
<stop offset="0.9964" stop-color="#45AED8"/>
</linearGradient>
<linearGradient id="paint18_linear_37_315" x1="240.636" y1="505.288" x2="733.212" y2="505.288" gradientUnits="userSpaceOnUse">
<stop stop-color="#53EAC9"/>
<stop offset="0.9964" stop-color="#45AED8"/>
</linearGradient>
<linearGradient id="paint19_linear_37_315" x1="241.073" y1="579.45" x2="733.505" y2="579.45" gradientUnits="userSpaceOnUse">
<stop stop-color="#5AB6FF"/>
<stop offset="1" stop-color="#2F68E3"/>
</linearGradient>
<linearGradient id="paint20_linear_37_315" x1="240.636" y1="537.355" x2="733.478" y2="537.355" gradientUnits="userSpaceOnUse">
<stop stop-color="#53EAC9"/>
<stop offset="0.9964" stop-color="#45AED8"/>
</linearGradient>
<linearGradient id="paint21_linear_37_315" x1="240.636" y1="622.301" x2="733.27" y2="622.301" gradientUnits="userSpaceOnUse">
<stop stop-color="#53EAC9"/>
<stop offset="0.9964" stop-color="#45AED8"/>
</linearGradient>
<linearGradient id="paint22_linear_37_315" x1="191.44" y1="69.0988" x2="339.913" y2="69.0988" gradientUnits="userSpaceOnUse">
<stop stop-color="#5AB6FF"/>
<stop offset="1" stop-color="#2F68E3"/>
</linearGradient>
<linearGradient id="paint23_linear_37_315" x1="332.427" y1="66.9069" x2="108.042" y2="83.456" gradientUnits="userSpaceOnUse">
<stop stop-color="#5AB6FF"/>
<stop offset="1" stop-color="#2F68E3"/>
</linearGradient>
<linearGradient id="paint24_linear_37_315" x1="170.834" y1="132.78" x2="35.3528" y2="142.772" gradientUnits="userSpaceOnUse">
<stop stop-color="#5AB6FF"/>
<stop offset="1" stop-color="#2F68E3"/>
</linearGradient>
<linearGradient id="paint25_linear_37_315" x1="485.625" y1="81.3043" x2="414.125" y2="213.804" gradientUnits="userSpaceOnUse">
<stop stop-color="#FF2929"/>
</linearGradient>
<linearGradient id="paint26_linear_37_315" x1="408.019" y1="39.4261" x2="336.519" y2="171.926" gradientUnits="userSpaceOnUse">
<stop stop-color="#FF2929"/>
</linearGradient>
<linearGradient id="paint27_linear_37_315" x1="421.061" y1="46.4643" x2="349.561" y2="178.964" gradientUnits="userSpaceOnUse">
<stop offset="1" stop-color="#EF497A"/>
</linearGradient>
<linearGradient id="paint28_linear_37_315" x1="428.489" y1="50.4723" x2="356.989" y2="182.972" gradientUnits="userSpaceOnUse">
<stop stop-color="#F47960"/>
<stop offset="1" stop-color="#EF497A"/>
</linearGradient>
<linearGradient id="paint29_linear_37_315" x1="514.975" y1="174.74" x2="464.697" y2="219.209" gradientUnits="userSpaceOnUse">
<stop stop-color="#A737D5"/>
<stop offset="1" stop-color="#EF497A"/>
</linearGradient>
<linearGradient id="paint30_linear_37_315" x1="571.638" y1="171.08" x2="523.218" y2="213.907" gradientUnits="userSpaceOnUse">
<stop stop-color="#A737D5"/>
<stop offset="1" stop-color="#EF497A"/>
</linearGradient>
<linearGradient id="paint31_linear_37_315" x1="548.019" y1="169.029" x2="487.411" y2="222.635" gradientUnits="userSpaceOnUse">
<stop stop-color="#A737D5"/>
<stop offset="1" stop-color="#EF497A"/>
</linearGradient>
<linearGradient id="paint32_linear_37_315" x1="782.454" y1="200.448" x2="730.743" y2="148.707" gradientUnits="userSpaceOnUse">
<stop stop-color="#53D8FF"/>
<stop offset="1" stop-color="#3840F7"/>
</linearGradient>
<linearGradient id="paint33_linear_37_315" x1="747.255" y1="183.374" x2="693.273" y2="97.3791" gradientUnits="userSpaceOnUse">
<stop stop-color="#53D8FF"/>
<stop offset="1" stop-color="#3840F7"/>
</linearGradient>
<linearGradient id="paint34_linear_37_315" x1="777.487" y1="199.428" x2="729.18" y2="151.094" gradientUnits="userSpaceOnUse">
<stop stop-color="#53D8FF"/>
<stop offset="1" stop-color="#3840F7"/>
</linearGradient>
<linearGradient id="paint35_linear_37_315" x1="750.353" y1="178.105" x2="720.937" y2="167.157" gradientUnits="userSpaceOnUse">
<stop stop-color="#53D8FF"/>
<stop offset="1" stop-color="#3840F7"/>
</linearGradient>
</defs>
</svg>
